<svg xmlns="http://www.w3.org/2000/svg" xmlns:xlink="http://www.w3.org/1999/xlink" width="56" height="56" viewBox="0 0 56 56"><defs><style>.a{fill:url(#a);}</style><linearGradient id="a" x1="0.5" x2="0.5" y2="1" gradientUnits="objectBoundingBox"><stop offset="0" stop-color="#6055e0"/><stop offset="1" stop-color="#0ed7ce"/></linearGradient></defs><g transform="translate(0)"><path class="a" d="M44,31.3a2.6,2.6,0,1,0,2.6,2.6A2.6,2.6,0,0,0,44,31.3Zm0,3.535a.939.939,0,1,1,.939-.939A.94.94,0,0,1,44,34.839Zm0,0" transform="translate(-36.874 -27.881)"/><path class="a" d="M107.62,31.3a2.6,2.6,0,1,0,2.6,2.6A2.6,2.6,0,0,0,107.62,31.3Zm0,3.535a.939.939,0,1,1,.939-.939A.94.94,0,0,1,107.62,34.839Zm0,0" transform="translate(-93.537 -27.881)"/><path class="a" d="M171.244,31.3a2.6,2.6,0,1,0,2.6,2.6A2.6,2.6,0,0,0,171.244,31.3Zm0,3.535a.939.939,0,1,1,.939-.939A.94.94,0,0,1,171.244,34.839Zm0,0" transform="translate(-150.203 -27.881)"/><path class="a" d="M52.963,0H3.037A3.041,3.041,0,0,0,0,3.037V39.6a3.041,3.041,0,0,0,3.037,3.037H8.381a.828.828,0,0,0,.068,1.095l3.98,3.98a16.983,16.983,0,0,0-.781,1.884H6.019a.828.828,0,0,0-.828.828v4.75A.828.828,0,0,0,6.019,56H22.366a.828.828,0,0,0,.828-.828,4.584,4.584,0,1,1,9.167,0,.828.828,0,0,0,.828.828H49.538a.828.828,0,0,0,.828-.828v-4.75a.828.828,0,0,0-.828-.828H43.91a16.985,16.985,0,0,0-.781-1.884l3.981-3.98a.829.829,0,0,0,.067-1.095h5.786A3.041,3.041,0,0,0,56,39.6V19.1a.828.828,0,1,0-1.656,0V39.6a1.382,1.382,0,0,1-1.381,1.38H45.529L40.647,36.1V30.43a.829.829,0,0,0-.828-.828H38.327V24.5L39.5,23.418a.828.828,0,0,0,.229-.854l-1.988-6.406a.829.829,0,0,0-.791-.583H34.737a.829.829,0,0,0-.791.583l-1.988,6.406a.828.828,0,0,0,.229.854L33.357,24.5v5.1H31.865a.828.828,0,0,0-.828.828v2.154H24.52V31.325L27.7,28.144a.828.828,0,0,0,.243-.586V20.765a.828.828,0,0,0-.247-.589L23.28,15.813a.828.828,0,0,0-1.411.589v7.385l-2.154,1.356-2.154-1.356v-.472a.828.828,0,1,0-1.657,0v.929a.828.828,0,0,0,.387.7l2.982,1.878a.827.827,0,0,0,.883,0l2.982-1.878a.828.828,0,0,0,.387-.7v-5.86l2.761,2.727v6.1L23.106,30.4a.828.828,0,0,0-.243.586V32.6a.829.829,0,0,0-.663.812V39.04a16.988,16.988,0,0,0-1.884.781l-3.749-3.749v-5.09a.828.828,0,0,0-.243-.586l-3.181-3.181v-6.1L15.9,18.385v1.051a.828.828,0,1,0,1.657,0V16.4a.829.829,0,0,0-1.411-.59l-4.418,4.363a.828.828,0,0,0-.246.589v6.793a.828.828,0,0,0,.243.586l3.181,3.181V36.1l-4.883,4.883H3.037a1.382,1.382,0,0,1-1.38-1.38V12.039H54.343v3.205a.828.828,0,0,0,1.657,0V3.037A3.041,3.041,0,0,0,52.963,0ZM34.747,23.526,33.7,22.555l1.653-5.324h.988l1.652,5.324-1.051.971a.829.829,0,0,0-.267.609V29.6H35.014V24.134a.83.83,0,0,0-.267-.609Zm4.243,7.733v4.814l-3.749,3.749a17.073,17.073,0,0,0-1.884-.781V33.413a.829.829,0,0,0-.663-.812V31.259h6.3ZM20.546,41.564a15.343,15.343,0,0,1,2.725-1.13.829.829,0,0,0,.586-.793v-5.4H31.7v5.4a.829.829,0,0,0,.587.793,15.343,15.343,0,0,1,2.725,1.13.829.829,0,0,0,.975-.145l3.82-3.82L44.6,42.392h0l.751.751-3.82,3.82a.829.829,0,0,0-.145.975,15.317,15.317,0,0,1,1.13,2.725.828.828,0,0,0,.792.586h5.4v3.093H40.287A12.543,12.543,0,0,0,22.682,43.715a.829.829,0,0,0,.674,1.514,10.886,10.886,0,0,1,15.271,9.115H33.965a6.241,6.241,0,0,0-12.371,0H16.93a10.763,10.763,0,0,1,3.409-7.109.828.828,0,0,0-1.133-1.209,12.59,12.59,0,0,0-3.934,8.318H6.847V51.251h5.4a.829.829,0,0,0,.793-.586,15.317,15.317,0,0,1,1.13-2.725.829.829,0,0,0-.145-.975l-3.82-3.82.751-.751h0L15.751,37.6l3.82,3.82a.829.829,0,0,0,.975.145ZM1.656,10.383V3.037a1.382,1.382,0,0,1,1.38-1.38H52.963a1.382,1.382,0,0,1,1.38,1.38v7.345Zm0,0"/></g></svg>