<svg xmlns="http://www.w3.org/2000/svg" width="34.653" height="24.436" viewBox="0 0 34.653 24.436"><defs><style>.a{fill:none;}.b,.c{fill:#f7f8ff;}.c{fill-rule:evenodd;}</style></defs><g transform="translate(0 0.001)"><path class="a" d="M30.126,4.26l-1.539-.268V2.357a.448.448,0,0,0-.448-.447H27.49L27.258.485a.452.452,0,0,0-.514-.37L16.139,1.847C16.1,1.828,5.666.006,5.666.006A.447.447,0,0,0,5.148.37L4.88,1.909H.447A.448.448,0,0,0,0,2.357V21.932a.448.448,0,0,0,.448.448H4.769l.256,1.569a.452.452,0,0,0,.514.37l10.6-1.73.046-.01c.048.03,10.436,1.849,10.436,1.849a.46.46,0,0,0,.077.007.448.448,0,0,0,.44-.371l.293-1.684h.711a.448.448,0,0,0,.448-.448V20.556l1.455-.238a.452.452,0,0,0,.37-.514l-1.228-7.52L30.49,4.778a.448.448,0,0,0-.364-.518ZM26.583,1.909H21.313l5.134-.838ZM5.953.964l5.431.945H5.789ZM5.676,22.379h6.183l-6.022.983Zm20.654,1.09-6.265-1.09H26.52Zm1.361-1.985H.895V2.8h26.8Zm.9-1.835V14.958a.447.447,0,0,0,.109-.11l.761,4.658Zm0-9.153V4.9l.944.164Zm0,0" transform="translate(0 0)"/><path class="b" d="M24.5,73.719H49.323a.448.448,0,0,0,.448-.447V56.561a.448.448,0,0,0-.448-.447h-3.76a.448.448,0,0,0,0,.9h3.312V72.824H24.944V57.009H43.385a.448.448,0,1,0,0-.9H24.5a.447.447,0,0,0-.448.447V73.272a.447.447,0,0,0,.448.447Zm0,0" transform="translate(-22.616 -52.772)"/><path class="b" d="M64.573,88.176a.447.447,0,0,0-.448.447v12.891a.447.447,0,0,0,.448.447h14.8a.448.448,0,0,0,.448-.447V88.623a.448.448,0,0,0-.448-.447Zm7.191,3.385a2.361,2.361,0,0,0-1.91,2.314.448.448,0,0,0,.448.448h1.462v1.492H65.02V94.323h3.372a.448.448,0,0,0,.448-.448v-4.8h2.924Zm-6.744.373h2.924v1.492H65.02Zm2.924-2.863v1.97H65.02V89.071Zm8.057,12v-.945a1.469,1.469,0,0,1,.944.945Zm2.924,0H77.868a2.361,2.361,0,0,0-2.314-1.91.448.448,0,0,0-.448.448v1.462H65.02V96.71h6.744v1.462a.448.448,0,1,0,.9,0v-4.3a.448.448,0,0,0-.448-.447H70.82a1.465,1.465,0,0,1,1.392-1.015.448.448,0,0,0,.448-.448V89.071h6.266Zm0,0" transform="translate(-60.306 -82.925)"/><path class="b" d="M234.333,144.285a1.88,1.88,0,1,0,1.88,1.88A1.882,1.882,0,0,0,234.333,144.285Zm0,2.865a.985.985,0,1,1,.985-.985A.986.986,0,0,1,234.333,147.15Zm0,0" transform="translate(-218.608 -135.692)"/><path class="b" d="M242.826,216.426h-1.91a.448.448,0,1,0,0,.9h1.91a.448.448,0,1,0,0-.9Zm0,0" transform="translate(-226.146 -203.536)"/><path class="b" d="M240.916,121.134h1.91a.448.448,0,1,0,0-.9h-1.91a.448.448,0,1,0,0,.9Zm0,0" transform="translate(-226.146 -113.078)"/><path class="b" d="M88.62,113.118h.955a.448.448,0,1,0,0-.9H88.62a.448.448,0,1,0,0,.9Zm0,0" transform="translate(-82.92 -105.539)"/><path class="b" d="M362.591,248.488a.447.447,0,0,0-.411.271l-1.432,3.342a.451.451,0,0,0,.553.6l1.291-.43,1.291.43a.452.452,0,0,0,.553-.6L363,248.759A.447.447,0,0,0,362.591,248.488Zm.141,2.888a.446.446,0,0,0-.283,0l-.487.162.628-1.466.628,1.466Zm0,0" transform="translate(-339.226 -233.688)"/><path class="b" d="M361.151,180.108a.448.448,0,0,0,.448-.448v-1.628l1.6,1.915a.448.448,0,0,0,.792-.287V176.8a.448.448,0,0,0-.9,0v1.628l-1.6-1.915a.451.451,0,0,0-.792.286v2.865A.448.448,0,0,0,361.151,180.108Zm0,0" transform="translate(-339.219 -165.845)"/><path class="c" d="M240.6,133.977c-.325.264-.646.533-.976.791s-.657.5-1.007.759l-.54-.721.625-.468-.013-.056h-3.475v-.921h3.473l.022-.059-.63-.487.526-.7c.077.047.145.082.2.126.479.358.958.715,1.432,1.08a4.644,4.644,0,0,1,.358.34Z" transform="translate(-205.947 -127.558)"/><path class="c" d="M235.214,133.977c.325.264.646.533.976.791s.657.5,1.007.759l.54-.721-.625-.468.013-.056H240.6v-.921h-3.473l-.022-.059.63-.487-.526-.7c-.077.047-.145.082-.2.126-.479.358-.958.715-1.432,1.08a4.639,4.639,0,0,0-.358.34Z" transform="translate(-205.947 -116.845)"/></g></svg>