<svg xmlns="http://www.w3.org/2000/svg" width="20.164" height="20.164" viewBox="0 0 20.164 20.164"><defs><style>.a{fill:#f7f8ff;}</style></defs><g transform="translate(0)"><g transform="translate(17.475 1.352)"><path class="a" d="M418.621,33.649,417.613,32.3a.348.348,0,0,0-.538,0l-1.008,1.344a.336.336,0,0,0-.067.2V49.646a1.344,1.344,0,0,0,2.689,0V33.851A.336.336,0,0,0,418.621,33.649Zm-.6,16a.672.672,0,1,1-1.344,0v-.672h1.344Zm0-1.344h-1.344v-.672h1.344Zm0-1.344h-1.344v-12.1h1.344Zm0-12.77h-1.344v-.224l.672-.9.672.9Z" transform="translate(-416 -32.178)"/></g><path class="a" d="M16.468,0H1.68a.336.336,0,0,0-.336.336V6.083A1.683,1.683,0,0,0,0,7.729V18.483a1.682,1.682,0,0,0,1.68,1.68h12.1a.338.338,0,0,0,.238-.1L16.7,17.377a.336.336,0,0,0,.067-.1c0-.01.007-.021.011-.031a.337.337,0,0,0,.017-.087c0-.007,0-.013,0-.021V.336A.336.336,0,0,0,16.468,0ZM10.082,18.483a1.008,1.008,0,0,1-1.008,1.008H1.68A1.008,1.008,0,0,1,.672,18.483V7.729A1.008,1.008,0,0,1,1.68,6.721H9.074a1.008,1.008,0,0,1,1.008,1.008ZM5.713,4.033V6.049H3.361V4.033ZM3.361,3.361V2.016H5.713V3.361Zm5.377.672V6.049H6.385V4.033ZM6.385,3.361V2.016H8.738V3.361ZM9.41,6.083V4.033h2.352v4.7H10.754V7.729A1.683,1.683,0,0,0,9.41,6.083Zm0-2.722V2.016h2.352V3.361Zm4.7,15.656V17.475h1.541ZM16.131,16.8H13.779a.336.336,0,0,0-.336.336v2.352H10.409a1.663,1.663,0,0,0,.345-1.008V9.41h4.369a.336.336,0,0,0,.336-.336V1.68a.336.336,0,0,0-.336-.336H3.025a.336.336,0,0,0-.336.336V6.049H2.016V.672H16.131ZM14.787,4.033v4.7H12.434v-4.7Zm-2.352-.672V2.016h2.352V3.361Z"/><g transform="translate(1.344 7.729)"><path class="a" d="M39.729,184H32.336a.336.336,0,0,0-.336.336v2.016a.336.336,0,0,0,.336.336h7.393a.336.336,0,0,0,.336-.336v-2.016A.336.336,0,0,0,39.729,184Zm-.336,2.016H32.672v-1.344h6.721Z" transform="translate(-32 -184)"/></g><g transform="translate(7.057 13.779)"><path class="a" d="M170.352,328h-2.016a.336.336,0,0,0-.336.336v4.033a.336.336,0,0,0,.336.336h2.016a.336.336,0,0,0,.336-.336v-4.033A.336.336,0,0,0,170.352,328Zm-.336,4.033h-1.344v-3.361h1.344Z" transform="translate(-168 -328)"/></g><g transform="translate(7.057 11.09)"><path class="a" d="M170.352,264h-2.016a.336.336,0,0,0-.336.336v1.344a.336.336,0,0,0,.336.336h2.016a.336.336,0,0,0,.336-.336v-1.344A.336.336,0,0,0,170.352,264Zm-.336,1.344h-1.344v-.672h1.344Z" transform="translate(-168 -264)"/></g><g transform="translate(4.033 13.779)"><path class="a" d="M98.352,328H96.336a.336.336,0,0,0-.336.336v1.344a.336.336,0,0,0,.336.336h2.016a.336.336,0,0,0,.336-.336v-1.344A.336.336,0,0,0,98.352,328Zm-.336,1.344H96.672v-.672h1.344Z" transform="translate(-96 -328)"/></g><g transform="translate(4.033 11.09)"><path class="a" d="M98.352,264H96.336a.336.336,0,0,0-.336.336v1.344a.336.336,0,0,0,.336.336h2.016a.336.336,0,0,0,.336-.336v-1.344A.336.336,0,0,0,98.352,264Zm-.336,1.344H96.672v-.672h1.344Z" transform="translate(-96 -264)"/></g><g transform="translate(1.008 13.779)"><path class="a" d="M26.352,328H24.336a.336.336,0,0,0-.336.336v1.344a.336.336,0,0,0,.336.336h2.016a.336.336,0,0,0,.336-.336v-1.344A.336.336,0,0,0,26.352,328Zm-.336,1.344H24.672v-.672h1.344Z" transform="translate(-24 -328)"/></g><g transform="translate(1.008 11.09)"><path class="a" d="M26.352,264H24.336a.336.336,0,0,0-.336.336v1.344a.336.336,0,0,0,.336.336h2.016a.336.336,0,0,0,.336-.336v-1.344A.336.336,0,0,0,26.352,264Zm-.336,1.344H24.672v-.672h1.344Z" transform="translate(-24 -264)"/></g><g transform="translate(4.033 16.467)"><path class="a" d="M98.352,392H96.336a.336.336,0,0,0-.336.336v1.344a.336.336,0,0,0,.336.336h2.016a.336.336,0,0,0,.336-.336v-1.344A.336.336,0,0,0,98.352,392Zm-.336,1.344H96.672v-.672h1.344Z" transform="translate(-96 -392)"/></g><g transform="translate(1.008 16.467)"><path class="a" d="M26.352,392H24.336a.336.336,0,0,0-.336.336v1.344a.336.336,0,0,0,.336.336h2.016a.336.336,0,0,0,.336-.336v-1.344A.336.336,0,0,0,26.352,392Zm-.336,1.344H24.672v-.672h1.344Z" transform="translate(-24 -392)"/></g></g></svg>