<?xml version="1.0" encoding="utf-8"?>
<!-- Generator: Adobe Illustrator 16.0.0, SVG Export Plug-In . SVG Version: 6.00 Build 0)  -->
<!DOCTYPE svg PUBLIC "-//W3C//DTD SVG 1.1//EN" "http://www.w3.org/Graphics/SVG/1.1/DTD/svg11.dtd">
<svg version="1.1" id="Layer_1" xmlns="http://www.w3.org/2000/svg" xmlns:xlink="http://www.w3.org/1999/xlink" x="0px" y="0px"
	 width="20.164px" height="20.164px" viewBox="0 0 20.164 20.164" enable-background="new 0 0 20.164 20.164" xml:space="preserve">
<g transform="translate(0)">
	<g transform="translate(17.475 1.352)">
		<linearGradient id="SVGID_1_" gradientUnits="userSpaceOnUse" x1="1.3443" y1="18.8121" x2="1.3443" y2="-0.0048">
			<stop  offset="0" style="stop-color:#0ED7CE"/>
			<stop  offset="1" style="stop-color:#6055E0"/>
		</linearGradient>
		<path fill="url(#SVGID_1_)" d="M2.621,1.471L1.613,0.122c-0.122-0.149-0.342-0.17-0.49-0.048C1.105,0.088,1.089,0.105,1.075,0.122
			L0.067,1.466C0.024,1.524,0,1.594,0,1.666v15.802c0,0.742,0.603,1.344,1.345,1.344c0.743,0,1.345-0.602,1.345-1.344V1.673
			C2.689,1.6,2.666,1.529,2.621,1.471z M2.021,17.47c0.001,0.372-0.299,0.674-0.67,0.675s-0.673-0.299-0.674-0.67
			c0-0.001,0-0.003,0-0.005v-0.672h1.344V17.47z M2.021,16.127H0.677v-0.672h1.344V16.127z M2.021,14.783H0.677v-12.1h1.344V14.783z
			 M2.021,2.013H0.677V1.789l0.672-0.9l0.672,0.9V2.013z"/>
	</g>
	<linearGradient id="SVGID_2_" gradientUnits="userSpaceOnUse" x1="8.3979" y1="20.1631" x2="8.3979" y2="4.882813e-004">
		<stop  offset="0" style="stop-color:#0ED7CE"/>
		<stop  offset="1" style="stop-color:#6055E0"/>
	</linearGradient>
	<path fill="url(#SVGID_2_)" d="M16.468,0H1.68C1.495,0,1.344,0.15,1.344,0.336v5.747C0.563,6.244,0.001,6.931,0,7.729v10.753
		c0.001,0.928,0.752,1.68,1.68,1.681h12.099c0.09-0.001,0.176-0.036,0.238-0.101l2.683-2.686c0.028-0.029,0.051-0.063,0.067-0.1
		c0-0.01,0.006-0.021,0.01-0.031c0.01-0.028,0.016-0.058,0.018-0.087c0-0.007,0-0.013,0-0.021V0.336
		C16.795,0.154,16.65,0.005,16.468,0z M10.082,18.482c0,0.557-0.451,1.009-1.008,1.009H1.68c-0.557,0-1.008-0.452-1.008-1.009V7.729
		c0-0.557,0.451-1.008,1.008-1.008h7.394c0.557,0,1.008,0.451,1.008,1.008l0,0V18.482z M5.713,4.033v2.016H3.361V4.033H5.713z
		 M3.361,3.361V2.016h2.352v1.345H3.361z M8.738,4.033v2.016H6.385V4.033H8.738z M6.385,3.361V2.016h2.353v1.345H6.385z M9.41,6.083
		v-2.05h2.352v4.7h-1.008V7.729C10.753,6.931,10.191,6.244,9.41,6.083z M9.41,3.361V2.016h2.352v1.345H9.41z M14.109,19.018v-1.543
		h1.541L14.109,19.018z M16.131,16.8h-2.352c-0.186,0-0.336,0.15-0.336,0.336l0,0v2.353h-3.034c0.222-0.289,0.343-0.644,0.345-1.008
		V9.41h4.369c0.186,0,0.336-0.15,0.336-0.336l0,0V1.68c0-0.186-0.15-0.336-0.336-0.336l0,0H3.025c-0.186,0-0.336,0.151-0.336,0.336
		v4.369H2.016V0.672h14.115V16.8z M14.787,4.033v4.7h-2.354v-4.7H14.787z M12.436,3.361V2.016h2.352v1.345H12.436z"/>
	<g transform="translate(1.344 7.729)">
		<linearGradient id="SVGID_3_" gradientUnits="userSpaceOnUse" x1="4.0325" y1="2.688" x2="4.0325" y2="0">
			<stop  offset="0" style="stop-color:#0ED7CE"/>
			<stop  offset="1" style="stop-color:#6055E0"/>
		</linearGradient>
		<path fill="url(#SVGID_3_)" d="M7.729,0H0.336C0.151,0,0,0.15,0,0.336v2.016c0,0.186,0.151,0.336,0.336,0.336h7.393
			c0.186,0,0.336-0.15,0.336-0.336V0.336C8.065,0.15,7.915,0,7.729,0z M7.393,2.016H0.672V0.672h6.721V2.016z"/>
	</g>
	<g transform="translate(7.057 13.779)">
		<linearGradient id="SVGID_4_" gradientUnits="userSpaceOnUse" x1="1.3439" y1="4.7054" x2="1.3439" y2="2.975464e-004">
			<stop  offset="0" style="stop-color:#0ED7CE"/>
			<stop  offset="1" style="stop-color:#6055E0"/>
		</linearGradient>
		<path fill="url(#SVGID_4_)" d="M2.352,0H0.336C0.151,0,0,0.151,0,0.336v4.033c0,0.186,0.15,0.336,0.336,0.336h2.016
			c0.186,0,0.336-0.15,0.336-0.336V0.336C2.688,0.151,2.538,0,2.352,0z M2.016,4.034H0.672V0.672h1.344V4.034z"/>
	</g>
	<g transform="translate(7.057 11.09)">
		<linearGradient id="SVGID_5_" gradientUnits="userSpaceOnUse" x1="1.3439" y1="2.0155" x2="1.3439" y2="-1.525879e-004">
			<stop  offset="0" style="stop-color:#0ED7CE"/>
			<stop  offset="1" style="stop-color:#6055E0"/>
		</linearGradient>
		<path fill="url(#SVGID_5_)" d="M2.352,0H0.336C0.151,0,0,0.15,0,0.336V1.68c0,0.186,0.15,0.336,0.336,0.336h2.016
			c0.186,0,0.336-0.15,0.336-0.336V0.336C2.688,0.15,2.538,0,2.352,0z M2.016,1.344H0.672V0.672h1.344V1.344z"/>
	</g>
	<g transform="translate(4.033 13.779)">
		<linearGradient id="SVGID_6_" gradientUnits="userSpaceOnUse" x1="1.3444" y1="2.0159" x2="1.3444" y2="2.975464e-004">
			<stop  offset="0" style="stop-color:#0ED7CE"/>
			<stop  offset="1" style="stop-color:#6055E0"/>
		</linearGradient>
		<path fill="url(#SVGID_6_)" d="M2.352,0H0.336C0.151,0,0,0.151,0,0.336V1.68c0,0.186,0.15,0.336,0.336,0.336h2.016
			c0.186,0,0.336-0.15,0.336-0.336V0.336C2.688,0.151,2.538,0,2.352,0z M2.016,1.344H0.672V0.672h1.344V1.344z"/>
	</g>
	<g transform="translate(4.033 11.09)">
		<linearGradient id="SVGID_7_" gradientUnits="userSpaceOnUse" x1="1.3444" y1="2.0155" x2="1.3444" y2="-1.525879e-004">
			<stop  offset="0" style="stop-color:#0ED7CE"/>
			<stop  offset="1" style="stop-color:#6055E0"/>
		</linearGradient>
		<path fill="url(#SVGID_7_)" d="M2.352,0H0.336C0.151,0,0,0.15,0,0.336V1.68c0,0.186,0.15,0.336,0.336,0.336h2.016
			c0.186,0,0.336-0.15,0.336-0.336V0.336C2.688,0.15,2.538,0,2.352,0z M2.016,1.344H0.672V0.672h1.344V1.344z"/>
	</g>
	<g transform="translate(1.008 13.779)">
		<linearGradient id="SVGID_8_" gradientUnits="userSpaceOnUse" x1="1.344" y1="2.0159" x2="1.344" y2="2.975464e-004">
			<stop  offset="0" style="stop-color:#0ED7CE"/>
			<stop  offset="1" style="stop-color:#6055E0"/>
		</linearGradient>
		<path fill="url(#SVGID_8_)" d="M2.352,0H0.336C0.15,0,0,0.151,0,0.336V1.68c0,0.186,0.15,0.336,0.336,0.336h2.016
			c0.186,0,0.336-0.15,0.336-0.336V0.336C2.688,0.151,2.537,0,2.352,0L2.352,0z M2.016,1.344H0.672V0.672h1.344V1.344z"/>
	</g>
	<g transform="translate(1.008 11.09)">
		<linearGradient id="SVGID_9_" gradientUnits="userSpaceOnUse" x1="1.344" y1="2.0155" x2="1.344" y2="-1.525879e-004">
			<stop  offset="0" style="stop-color:#0ED7CE"/>
			<stop  offset="1" style="stop-color:#6055E0"/>
		</linearGradient>
		<path fill="url(#SVGID_9_)" d="M2.352,0H0.336C0.15,0,0,0.15,0,0.336V1.68c0,0.186,0.15,0.336,0.336,0.336h2.016
			c0.186,0,0.336-0.15,0.336-0.336V0.336C2.688,0.15,2.537,0,2.352,0L2.352,0z M2.016,1.344H0.672V0.672h1.344V1.344z"/>
	</g>
	<g transform="translate(4.033 16.467)">
		<linearGradient id="SVGID_10_" gradientUnits="userSpaceOnUse" x1="1.3444" y1="2.0154" x2="1.3444" y2="-1.983643e-004">
			<stop  offset="0" style="stop-color:#0ED7CE"/>
			<stop  offset="1" style="stop-color:#6055E0"/>
		</linearGradient>
		<path fill="url(#SVGID_10_)" d="M2.352,0H0.336C0.151,0,0,0.15,0,0.336v1.344c0,0.186,0.15,0.336,0.336,0.336h2.016
			c0.186,0,0.336-0.15,0.336-0.336V0.336C2.688,0.15,2.538,0,2.352,0z M2.016,1.344H0.672V0.672h1.344V1.344z"/>
	</g>
	<g transform="translate(1.008 16.467)">
		<linearGradient id="SVGID_11_" gradientUnits="userSpaceOnUse" x1="1.344" y1="2.0154" x2="1.344" y2="-1.983643e-004">
			<stop  offset="0" style="stop-color:#0ED7CE"/>
			<stop  offset="1" style="stop-color:#6055E0"/>
		</linearGradient>
		<path fill="url(#SVGID_11_)" d="M2.352,0H0.336C0.15,0,0,0.15,0,0.336v1.344c0,0.186,0.15,0.336,0.336,0.336h2.016
			c0.186,0,0.336-0.15,0.336-0.336V0.336C2.688,0.15,2.537,0,2.352,0L2.352,0z M2.016,1.344H0.672V0.672h1.344V1.344z"/>
	</g>
</g>
</svg>
