<svg xmlns="http://www.w3.org/2000/svg" enable-background="new 0 0 512 512" viewBox="0 0 512 512" id="barcode"><path fill="#399349" d="M10 185H0V75c0-2.8 2.2-5 5-5h110v10H10V185zM512 185h-10V80H397V70h110c2.8 0 5 2.2 5 5V185zM115 442H5c-2.8 0-5-2.2-5-5V327h10v105h105V442zM507 442H397v-10h105V327h10v110C512 439.8 509.8 442 507 442z"></path><rect width="30" height="302" x="31" y="105" fill="#399349"></rect><rect width="30" height="302" x="181" y="105" fill="#399349"></rect><rect width="30" height="302" x="241" y="105" fill="#399349"></rect><rect width="30" height="302" x="391" y="105" fill="#399349"></rect><rect width="30" height="302" x="451" y="105" fill="#399349"></rect><rect width="60" height="302" x="91" y="105" fill="#b2d34b"></rect><rect width="60" height="302" x="301" y="105" fill="#b2d34b"></rect></svg>