<svg xmlns="http://www.w3.org/2000/svg" viewBox="0 0 512 512" id="billing"><path fill="#eceff1" fill-rule="evenodd" d="M124.655 8H431.2c2.754 0 5.124.982 7.071 2.929l56.146 56.145c1.947 1.947 2.929 4.317 2.929 7.071V494c0 5.508-4.492 10-10 10h-362.69c-5.508 0-10-4.492-10-10V18c-.001-5.508 4.491-10 9.999-10z" clip-rule="evenodd"></path><path fill="#d1d1d6" fill-rule="evenodd" d="M306 8h125.2c2.754 0 5.124.982 7.071 2.929l56.146 56.145c1.947 1.947 2.929 4.317 2.929 7.071V494c0 5.508-4.492 10-10 10H306V8z" clip-rule="evenodd"></path><path fill="#a79ba7" fill-rule="evenodd" d="M435.342 8.867a10.025 10.025 0 0 1 2.929 2.062l56.146 56.145a10.025 10.025 0 0 1 2.062 2.929h-56.136a5.01 5.01 0 0 1-5-5V8.867zM306 436.494a8 8 0 0 1 0-16h113.25a8 8 0 0 1 0 16H306zM192.75 236.245a8 8 0 0 1 0-16h226.5a8 8 0 0 1 0 16h-226.5zm0 66.75a8 8 0 0 1 0-16h226.5a8 8 0 0 1 0 16h-226.5zm0 66.749a8 8 0 0 1 0-16h226.5a8 8 0 0 1 0 16h-226.5z" clip-rule="evenodd"></path><g fill-rule="evenodd" clip-rule="evenodd"><path fill="#6cf5c2" d="M267.5 178.744v4.571a8 8 0 0 1-16 0v-4.727c-4.908-.96-9.588-2.792-13.648-5.495-6.28-4.183-11.091-10.355-13.126-18.519a7.981 7.981 0 0 1 15.5-3.812c.985 3.95 3.347 6.959 6.439 9.019 3.833 2.552 8.753 3.769 13.748 3.65.834-.02 1.845-.101 3.024-.243 4.23-.513 8.442-1.847 11.415-4.103 2.264-1.718 3.772-4.11 3.698-7.235a14.313 14.313 0 0 0-.111-1.184c-.488-4.022-2.79-6.716-5.856-8.567-3.998-2.414-9.306-3.7-14.287-4.518-6.426-1.055-13.403-2.977-19.111-6.704-6.637-4.332-11.404-10.744-11.868-20.307-.461-9.496 3.628-17.11 10.077-22.354 3.983-3.239 8.88-5.506 14.106-6.67v-4.843a8 8 0 0 1 16 0v4.726c.455.096.908.202 1.359.316 9.557 2.423 18.25 8.706 22.816 19.58a7.999 7.999 0 0 1-14.75 6.188c-2.396-5.707-6.945-9.001-11.941-10.268a21.831 21.831 0 0 0-9.607-.233c-3 .604-5.763 1.825-7.921 3.58-2.686 2.184-4.391 5.331-4.202 9.229.172 3.553 2.029 5.992 4.618 7.682 3.517 2.295 8.368 3.571 12.986 4.329 6.644 1.091 13.898 2.913 19.974 6.581 7.008 4.231 12.293 10.595 13.481 20.38.091.752.149 1.651.173 2.684.214 8.963-3.871 15.639-10.01 20.297-4.843 3.674-10.94 5.943-16.976 6.97z"></path><path fill="#00e499" d="M267.5 178.744v4.571a8 8 0 0 1-8 8v-27.877c.304.003.608 0 .913-.007.834-.02 1.845-.101 3.024-.243 4.23-.513 8.442-1.847 11.415-4.103 2.264-1.718 3.772-4.11 3.698-7.235a14.313 14.313 0 0 0-.111-1.184c-.488-4.022-2.79-6.716-5.856-8.567-3.677-2.22-8.463-3.487-13.082-4.312v-16.194c.454.084.907.164 1.358.238 6.644 1.091 13.898 2.913 19.974 6.581 7.008 4.231 12.293 10.595 13.481 20.38.091.752.149 1.651.173 2.684.214 8.963-3.871 15.639-10.01 20.297-4.844 3.675-10.941 5.944-16.977 6.971zm-8-110.041a8 8 0 0 1 8 8v4.726c.455.096.908.202 1.359.316 9.557 2.423 18.25 8.706 22.816 19.58a7.999 7.999 0 0 1-14.75 6.188c-2.396-5.707-6.945-9.001-11.941-10.268a21.649 21.649 0 0 0-5.484-.657V68.703z"></path><path fill="#6cf5c2" d="M360.5 178.744v4.571a8 8 0 0 1-16 0v-4.727c-4.909-.96-9.588-2.792-13.648-5.495-6.28-4.183-11.091-10.355-13.126-18.519a7.981 7.981 0 0 1 15.5-3.812c.985 3.95 3.347 6.959 6.439 9.019 3.833 2.552 8.753 3.769 13.748 3.65.834-.02 1.845-.101 3.024-.243 4.23-.513 8.442-1.847 11.415-4.103 2.264-1.718 3.772-4.11 3.697-7.235a14.313 14.313 0 0 0-.111-1.184c-.488-4.022-2.79-6.716-5.856-8.567-3.998-2.414-9.306-3.7-14.287-4.518-6.426-1.055-13.403-2.977-19.112-6.704-6.637-4.332-11.404-10.744-11.867-20.307-.461-9.496 3.628-17.11 10.077-22.354 3.983-3.239 8.88-5.506 14.106-6.67v-4.843a8 8 0 0 1 16 0v4.726c.455.096.908.202 1.359.316 9.557 2.423 18.25 8.706 22.816 19.58a7.999 7.999 0 0 1-14.75 6.188c-2.396-5.707-6.945-9.001-11.941-10.268a21.831 21.831 0 0 0-9.607-.233c-3 .604-5.763 1.825-7.921 3.58-2.686 2.184-4.391 5.331-4.202 9.229.172 3.553 2.029 5.992 4.618 7.682 3.517 2.295 8.368 3.571 12.986 4.329 6.644 1.091 13.898 2.913 19.974 6.581 7.008 4.231 12.293 10.595 13.481 20.38.091.752.149 1.651.173 2.684.214 8.963-3.871 15.639-10.01 20.297-4.842 3.674-10.939 5.943-16.975 6.97z"></path><path fill="#00e499" d="M360.5 178.744v4.571a8 8 0 0 1-8 8v-27.877c.304.003.608 0 .913-.007.834-.02 1.845-.101 3.024-.243 4.23-.513 8.442-1.847 11.415-4.103 2.264-1.718 3.772-4.11 3.697-7.235a14.313 14.313 0 0 0-.111-1.184c-.488-4.022-2.79-6.716-5.856-8.567-3.677-2.22-8.463-3.487-13.082-4.312v-16.194c.454.084.907.164 1.358.238 6.644 1.091 13.898 2.913 19.974 6.581 7.008 4.231 12.293 10.595 13.481 20.38.091.752.149 1.651.173 2.684.214 8.963-3.871 15.639-10.01 20.297-4.843 3.675-10.94 5.944-16.976 6.971zm-8-110.041a8 8 0 0 1 8 8v4.726c.455.096.908.202 1.359.316 9.557 2.423 18.25 8.706 22.816 19.58a7.999 7.999 0 0 1-14.75 6.188c-2.396-5.707-6.945-9.001-11.941-10.268a21.649 21.649 0 0 0-5.484-.657V68.703z"></path></g><g fill-rule="evenodd" clip-rule="evenodd"><circle cx="114.655" cy="341.744" r="100" fill="#fe646f" transform="rotate(-87.146 114.647 341.728)"></circle><path fill="#fd4755" d="M114.655 241.743c55.229 0 100 44.772 100 100s-44.771 100-100 100v-200z"></path><path fill="#eceff1" d="M145.534 285.529a7.971 7.971 0 0 1 12.938 9.312L83.841 398.724a7.97 7.97 0 0 1-11.125 1.812 7.97 7.97 0 0 1-1.813-11.125l74.631-103.882zm-60.528 2.983c-9.787 0-17.719 7.932-17.719 17.719 0 9.786 7.932 17.719 17.719 17.719 9.786 0 17.719-7.932 17.719-17.719 0-9.786-7.932-17.719-17.719-17.719zm59.299 71.025c-9.786 0-17.719 7.932-17.719 17.719s7.932 17.719 17.719 17.719 17.719-7.932 17.719-17.719-7.932-17.719-17.719-17.719z"></path></g></svg>