<svg xmlns="http://www.w3.org/2000/svg" enable-background="new 0 0 512 512" viewBox="0 0 512 512" id="warehouse"><path fill="#9bc9ff" fill-rule="evenodd" d="M403.913,106.75c0.005,0,0.011,0-0.001-0.001v-85.75h87.089V256H256V20.999h87.089l0.001,85.751H403.913
		L403.913,106.75z M403.912,341.748V256h87.089v234.999H256V256h87.089l0.001,85.749L403.912,341.748L403.912,341.748z M256,490.999
		H21.001V256h87.089l-0.001,85.749l60.824-0.001V256H256V490.999z" clip-rule="evenodd"></path><path fill="#57a4ff" fill-rule="evenodd" d="M479.001,478.999H268V268h63.089v73.748c0,6.631,5.372,12.001,12.001,12.001h60.823
		c6.627,0,11.999-5.37,11.999-12.001V268h63.089V478.999L479.001,478.999z M33.001,268h63.089v73.748
		c0,6.631,5.372,12.001,11.999,12.001h60.823c6.627,0,12.001-5.37,12.001-12.001V268H244v210.999H33.001V268L33.001,268z
		 M156.913,268H120.09v61.749h36.823V268L156.913,268z M355.09,268v61.749h36.822V268H355.09L355.09,268z M268,32.998h63.089v73.75
		c0,6.631,5.372,12.001,12.001,12.001h60.823c6.627,0,11.999-5.37,11.999-12.001v-73.75h63.089V244H268V32.998L268,32.998z
		 M391.912,32.998H355.09v61.751h36.822V32.998L391.912,32.998z M491.002,9.001H256.001c-6.627,0-12.001,5.368-12.001,11.997V244H21
		c-6.627,0-11.999,5.37-11.999,11.999v234.999c0,6.631,5.372,12.001,11.999,12.001h470.002c6.624,0,11.997-5.37,11.997-12.001v-470
		C502.999,14.368,497.626,9.001,491.002,9.001z" clip-rule="evenodd"></path></svg>