<svg xmlns="http://www.w3.org/2000/svg" viewBox="0 0 512 512" id="performance"><path fill="#a79ba7" fill-rule="evenodd" d="M386.234 117.423h-65.972v134.093l69.498.246V267.7l-69.498-.246v134.585h65.972v16h-73.972a8 8 0 0 1-8-8V267.397l-67.899-.24v-15.938l67.899.24V109.423a8 8 0 0 1 8-8h73.972v16z" clip-rule="evenodd"></path><path fill="#fe646f" fill-rule="evenodd" d="M385.404 64.944h53.591c9.726 0 17.683 7.957 17.683 17.683v53.591c0 9.726-7.957 17.683-17.683 17.683h-53.591c-9.726 0-17.683-7.957-17.683-17.683V82.627c0-9.725 7.957-17.683 17.683-17.683z" clip-rule="evenodd"></path><path fill="#fd4755" fill-rule="evenodd" d="M445.451 66.171c6.557 2.593 11.228 9.005 11.228 16.456v53.591c0 9.726-7.957 17.683-17.683 17.683h-53.591c-7.451 0-13.864-4.67-16.456-11.227a17.516 17.516 0 0 0 6.456 1.227h53.591c9.726 0 17.683-7.957 17.683-17.683V72.627a17.561 17.561 0 0 0-1.228-6.456z" clip-rule="evenodd"></path><path fill="#a79ba7" fill-rule="evenodd" d="M397.135 102.457a7.998 7.998 0 0 1 0-11.312 7.998 7.998 0 0 1 11.312 0l20.64 20.64 57.544-52.222a7.986 7.986 0 0 1 10.75 11.812l-62.871 57.057-.044.045a7.998 7.998 0 0 1-11.312 0l-26.019-26.02z" clip-rule="evenodd"></path><path fill="#ffe177" fill-rule="evenodd" d="M385.404 215.252h53.591c9.726 0 17.683 7.957 17.683 17.683v53.591c0 9.726-7.957 17.683-17.683 17.683h-53.591c-9.726 0-17.683-7.957-17.683-17.683v-53.591c0-9.726 7.957-17.683 17.683-17.683z" clip-rule="evenodd"></path><path fill="#ffd064" fill-rule="evenodd" d="M445.451 216.479c6.557 2.593 11.228 9.005 11.228 16.456v53.591c0 9.726-7.957 17.683-17.683 17.683h-53.591c-7.451 0-13.864-4.67-16.456-11.227a17.516 17.516 0 0 0 6.456 1.227h53.591c9.726 0 17.683-7.957 17.683-17.683v-53.591a17.557 17.557 0 0 0-1.228-6.456z" clip-rule="evenodd"></path><path fill="#a79ba7" fill-rule="evenodd" d="M397.135 252.765a7.998 7.998 0 0 1 0-11.312 7.998 7.998 0 0 1 11.312 0l20.64 20.64 57.544-52.222a7.985 7.985 0 0 1 11.281.531 7.985 7.985 0 0 1-.531 11.281l-62.871 57.056-.044.045a7.998 7.998 0 0 1-11.312 0l-26.019-26.019z" clip-rule="evenodd"></path><g fill-rule="evenodd" clip-rule="evenodd"><path fill="#6cf5c2" d="M385.404 365.559h53.591c9.726 0 17.683 7.957 17.683 17.684v53.591c0 9.726-7.957 17.683-17.683 17.683h-53.591c-9.726 0-17.683-7.957-17.683-17.683v-53.591c0-9.726 7.957-17.684 17.683-17.684z"></path><path fill="#00e499" d="M445.45 366.786c6.558 2.593 11.228 9.005 11.228 16.457v53.591c0 9.726-7.957 17.683-17.683 17.683h-53.591c-7.451 0-13.864-4.67-16.456-11.227a17.516 17.516 0 0 0 6.456 1.227h53.591c9.726 0 17.683-7.957 17.683-17.683v-53.591c0-2.276-.436-4.454-1.228-6.457z"></path><path fill="#a79ba7" d="M397.135 403.073a8 8 0 0 1 11.312-11.312l20.64 20.64 57.544-52.222a7.986 7.986 0 0 1 10.75 11.812l-62.871 57.056-.044.045a7.998 7.998 0 0 1-11.312 0l-26.019-26.019z"></path></g><g fill-rule="evenodd" clip-rule="evenodd"><circle cx="134.406" cy="259.731" r="122.399" fill="#eceff1" transform="rotate(-45.001 134.403 259.734)"></circle><path fill="#8ac9fe" d="M134.405 137.332c67.599 0 122.398 54.8 122.398 122.398h-45.628c0-42.398-34.372-76.77-76.77-76.77-42.398 0-76.77 34.372-76.77 76.77H12.007c0-67.598 54.8-122.398 122.398-122.398z"></path><path fill="#a79ba7" d="M134.405 244.731c1.14 0 2.251.128 3.318.369l22.45-22.45a7.998 7.998 0 0 1 11.312 0 7.998 7.998 0 0 1 0 11.312l-22.45 22.449c.241 1.068.369 2.178.369 3.319 0 8.285-6.715 15-15 15-8.284 0-15-6.715-15-15 .002-8.283 6.717-14.999 15.001-14.999z"></path><path fill="#6cf5c2" d="m96.014 193.235-22.818-39.522a123.001 123.001 0 0 0-44.809 44.808l39.522 22.818a77.144 77.144 0 0 1 28.105-28.104z"></path><path fill="#ffe177" d="m73.196 153.713 22.818 39.522c11.293-6.535 24.406-10.275 38.391-10.275v-45.628c-22.298 0-43.203 5.963-61.209 16.381z"></path><path fill="#ffc338" d="M134.405 137.332v45.628c13.986 0 27.098 3.74 38.392 10.275l22.818-39.522c-18.006-10.418-38.911-16.381-61.21-16.381z"></path><path fill="#fe646f" d="m195.615 153.713-22.818 39.522a77.144 77.144 0 0 1 28.104 28.105l39.522-22.818a122.994 122.994 0 0 0-44.808-44.809z"></path><path fill="#eb3241" d="m240.423 198.521-39.522 22.818c6.534 11.293 10.274 24.405 10.274 38.391h45.629c0-2.837-.097-5.651-.286-8.44a121.677 121.677 0 0 0-16.095-52.769z"></path></g></svg>