<svg xmlns="http://www.w3.org/2000/svg" viewBox="0 0 24 24" id="receipt"><defs><linearGradient id="a" x1="2.203" x2="20.09" y1="20.09" y2="2.203" gradientUnits="userSpaceOnUse"><stop offset="0" stop-color="#5433ff"></stop><stop offset="1" stop-color="#20bdff"></stop></linearGradient></defs><path fill="url(#a)" d="m14.75,13c0,.414-.336.75-.75.75h-1c-.414,0-.75-.336-.75-.75s.336-.75.75-.75h1c.414,0,.75.336.75.75Zm-.75-3.75h-1c-.414,0-.75.336-.75.75s.336.75.75.75h1c.414,0,.75-.336.75-.75s-.336-.75-.75-.75Zm.75,6.75c0-.414-.336-.75-.75-.75h-1c-.414,0-.75.336-.75.75s.336.75.75.75h1c.414,0,.75-.336.75-.75Zm7-11v11c0,.965-.785,1.75-1.75,1.75h-2.25v1.25c0,1.517-1.233,2.75-2.75,2.75h-1c-.414,0-.75-.336-.75-.75s.336-.75.75-.75h1c.689,0,1.25-.561,1.25-1.25V5c0-.452.12-.873.315-1.25H5c-.689,0-1.25.561-1.25,1.25v14c0,.689.561,1.25,1.25,1.25h1c.414,0,.75.336.75.75s-.336.75-.75.75h-1c-1.517,0-2.75-1.233-2.75-2.75V5c0-1.517,1.233-2.75,2.75-2.75h14c1.517,0,2.75,1.233,2.75,2.75Zm-1.5,0c0-.689-.561-1.25-1.25-1.25s-1.25.561-1.25,1.25v11.25h2.25c.138,0,.25-.112.25-.25V5Zm-9.25,15.25h-2c-.414,0-.75.336-.75.75s.336.75.75.75h2c.414,0,.75-.336.75-.75s-.336-.75-.75-.75Zm-5-3.5h4c.414,0,.75-.336.75-.75s-.336-.75-.75-.75h-4c-.414,0-.75.336-.75.75s.336.75.75.75Zm0-3h4c.414,0,.75-.336.75-.75s-.336-.75-.75-.75h-4c-.414,0-.75.336-.75.75s.336.75.75.75Zm8-7.5H6c-.414,0-.75.336-.75.75s.336.75.75.75h8c.414,0,.75-.336.75-.75s-.336-.75-.75-.75Zm-8,4.5h4c.414,0,.75-.336.75-.75s-.336-.75-.75-.75h-4c-.414,0-.75.336-.75.75s.336.75.75.75Z"></path></svg>