<svg xmlns="http://www.w3.org/2000/svg" viewBox="0 0 32 32" id="box-graph"><path fill="#434343" d="M29 30H3c-.6 0-1-.4-1-1V3c0-.6.4-1 1-1s1 .4 1 1v25h25c.6 0 1 .4 1 1s-.4 1-1 1z"></path><path fill="#41B655" d="M11 7h-1V5c0-.6-.4-1-1-1s-1 .4-1 1v2H7c-.6 0-1 .4-1 1v12c0 .6.4 1 1 1h1v2c0 .6.4 1 1 1s1-.4 1-1v-2h1c.6 0 1-.4 1-1V8c0-.6-.4-1-1-1zm8 0h-1V5c0-.6-.4-1-1-1s-1 .4-1 1v2h-1c-.6 0-1 .4-1 1v8c0 .6.4 1 1 1h4c.6 0 1-.4 1-1V8c0-.6-.4-1-1-1z"></path><path fill="#D41F26" d="M27 15h-1V5c0-.6-.4-1-1-1s-1 .4-1 1v10h-1c-.6 0-1 .4-1 1v7c0 .6.4 1 1 1h4c.6 0 1-.4 1-1v-7c0-.6-.4-1-1-1z"></path></svg>