<svg xmlns="http://www.w3.org/2000/svg" data-name="Artboard 30" viewBox="0 0 64 64" id="packing"><circle cx="10" cy="9" r="7" fill="#aeaba2"></circle><path fill="#e8e4d8" d="M38,15a22.418,22.418,0,0,1-13.7-4.7L16.283,4.065a8.164,8.164,0,1,0,1.627,3.8l5.161,4.015A24.432,24.432,0,0,0,38,17H52V15ZM10,15a6,6,0,1,1,6-6A6.006,6.006,0,0,1,10,15Z"></path><circle cx="10" cy="9" r="2" fill="#e8e4d8"></circle><path fill="#e8e4d8" d="M43,16h0A10,10,0,0,0,53,6V3a1,1,0,0,1,1-1h7a1,1,0,0,1,1,1V6A10,10,0,0,1,52,16H43Z"></path><rect width="60" height="46" x="2" y="16" fill="#ffc239" rx="1"></rect><path fill="#ffd55d" d="M61,16H9V33.457A21.543,21.543,0,0,0,30.543,55H62V17A1,1,0,0,0,61,16Z"></path><rect width="14" height="18" x="25" y="16" fill="#e8e4d8"></rect><rect width="20" height="12" x="38" y="46" fill="#e8e4d8"></rect><rect width="2" height="8" x="53" y="48" fill="#7a7b7d"></rect><rect width="2" height="8" x="50" y="48" fill="#7a7b7d"></rect><rect width="2" height="8" x="47" y="48" fill="#7a7b7d"></rect><rect width="2" height="8" x="44" y="48" fill="#7a7b7d"></rect><rect width="2" height="8" x="41" y="48" fill="#7a7b7d"></rect><rect width="2" height="2" x="5" y="45" fill="#fff"></rect><rect width="10" height="2" x="9" y="45" fill="#fff"></rect><rect width="9" height="2" x="5" y="49" fill="#fff"></rect><rect width="3" height="2" x="16" y="49" fill="#fff"></rect><rect width="2" height="2" x="5" y="53" fill="#fff"></rect><rect width="10" height="2" x="9" y="53" fill="#fff"></rect><rect width="9" height="2" x="5" y="57" fill="#fff"></rect><rect width="3" height="2" x="16" y="57" fill="#fff"></rect><path fill="#f1efe8" d="M54,2a1,1,0,0,0-1,1V6a9.962,9.962,0,0,1-2.864,7h3.418A3.446,3.446,0,0,0,57,9.554V2Z"></path></svg>