<svg xmlns="http://www.w3.org/2000/svg" viewBox="0 0 512 512" id="logistic-warehouse"><path fill="#c48958" fill-rule="evenodd" d="M58.164 375.685h86.667c3.672 0 6.667 2.995 6.667 6.667v86.667c0 3.672-2.995 6.667-6.667 6.667H58.164c-3.672 0-6.667-2.995-6.667-6.667v-86.667c.001-3.672 2.996-6.667 6.667-6.667z" clip-rule="evenodd"></path><path fill="#b5733e" fill-rule="evenodd" d="M138.164 382.351v86.667c0 3.672-2.995 6.667-6.667 6.667h13.334c3.672 0 6.667-2.995 6.667-6.667v-86.667c0-3.672-2.995-6.667-6.667-6.667h-13.334c3.672.001 6.667 2.996 6.667 6.667z" clip-rule="evenodd"></path><path fill="#f2d1a5" fill-rule="evenodd" d="M84.757 375.685h33.483v34.133c0 3.672-2.995 6.667-6.667 6.667h-20.15c-3.672 0-6.667-2.995-6.667-6.667v-34.133z" clip-rule="evenodd"></path><path fill="#e3a76f" fill-rule="evenodd" d="M111.572 375.685v34.133c0 3.672-2.995 6.667-6.667 6.667h6.667c3.672 0 6.667-2.995 6.667-6.667v-34.133h-6.667z" clip-rule="evenodd"></path><path fill="#c48958" fill-rule="evenodd" d="M212.664 375.685h86.667c3.672 0 6.667 2.995 6.667 6.667v86.667c0 3.672-2.995 6.667-6.667 6.667h-86.667c-3.672 0-6.667-2.995-6.667-6.667v-86.667c.001-3.672 2.996-6.667 6.667-6.667z" clip-rule="evenodd"></path><path fill="#b5733e" fill-rule="evenodd" d="M292.664 382.351v86.667c0 3.672-2.995 6.667-6.667 6.667h13.334c3.672 0 6.667-2.995 6.667-6.667v-86.667c0-3.672-2.995-6.667-6.667-6.667h-13.334c3.673.001 6.667 2.996 6.667 6.667z" clip-rule="evenodd"></path><path fill="#f2d1a5" fill-rule="evenodd" d="M239.257 375.685h33.482v34.133c0 3.672-2.995 6.667-6.667 6.667h-20.15c-3.672 0-6.666-2.995-6.666-6.667v-34.133z" clip-rule="evenodd"></path><path fill="#e3a76f" fill-rule="evenodd" d="M266.072 375.685v34.133c0 3.672-2.995 6.667-6.667 6.667h6.667c3.672 0 6.667-2.995 6.667-6.667v-34.133h-6.667z" clip-rule="evenodd"></path><path fill="#c48958" fill-rule="evenodd" d="M367.164 375.685h86.667c3.672 0 6.667 2.995 6.667 6.667v86.667c0 3.672-2.995 6.667-6.667 6.667h-86.667c-3.672 0-6.667-2.995-6.667-6.667v-86.667c.001-3.672 2.996-6.667 6.667-6.667z" clip-rule="evenodd"></path><path fill="#b5733e" fill-rule="evenodd" d="M447.164 382.351v86.667c0 3.672-2.995 6.667-6.667 6.667h13.334c3.672 0 6.667-2.995 6.667-6.667v-86.667c0-3.672-2.995-6.667-6.667-6.667h-13.334c3.673.001 6.667 2.996 6.667 6.667z" clip-rule="evenodd"></path><path fill="#f2d1a5" fill-rule="evenodd" d="M393.757 375.685h33.482v34.133c0 3.672-2.995 6.667-6.667 6.667h-20.15c-3.672 0-6.666-2.995-6.666-6.667v-34.133z" clip-rule="evenodd"></path><path fill="#e3a76f" fill-rule="evenodd" d="M420.573 375.685v34.133c0 3.672-2.995 6.667-6.666 6.667h6.667c3.672 0 6.667-2.995 6.667-6.667v-34.133h-6.668z" clip-rule="evenodd"></path><g fill-rule="evenodd" clip-rule="evenodd"><path fill="#837683" d="M22.254 475.31h467.487c7.841 0 14.257 6.415 14.257 14.257 0 7.841-6.415 14.257-14.257 14.257H22.254c-7.841 0-14.257-6.415-14.257-14.257.001-7.842 6.416-14.257 14.257-14.257z"></path><path fill="#685e68" d="M479.741 493.823H12.254c-1.297 0-2.555-.175-3.752-.504 1.657 6.036 7.208 10.505 13.752 10.505h467.487c7.841 0 14.257-6.415 14.257-14.257 0-6.544-4.468-12.095-10.505-13.752.329 1.197.504 2.455.504 3.752.001 7.841-6.415 14.256-14.256 14.256z"></path></g><g fill-rule="evenodd" clip-rule="evenodd"><path fill="#c48958" d="M58.164 191.942h86.667c3.672 0 6.667 2.995 6.667 6.667v86.667c0 3.672-2.995 6.667-6.667 6.667H58.164c-3.672 0-6.667-2.995-6.667-6.667v-86.667c.001-3.672 2.996-6.667 6.667-6.667z"></path><path fill="#b5733e" d="M138.164 198.608v86.667c0 3.672-2.995 6.667-6.667 6.667h13.334c3.672 0 6.667-2.995 6.667-6.667v-86.667c0-3.672-2.995-6.667-6.667-6.667h-13.334c3.672.001 6.667 2.996 6.667 6.667z"></path><path fill="#f2d1a5" d="M84.757 191.942h33.483v34.133c0 3.672-2.995 6.667-6.667 6.667h-20.15c-3.672 0-6.667-2.995-6.667-6.667v-34.133z"></path><path fill="#e3a76f" d="M111.572 191.942v34.133c0 3.672-2.995 6.667-6.667 6.667h6.667c3.672 0 6.667-2.995 6.667-6.667v-34.133h-6.667z"></path></g><g fill-rule="evenodd" clip-rule="evenodd"><path fill="#c48958" d="M212.664 191.942h86.667c3.672 0 6.667 2.995 6.667 6.667v86.667c0 3.672-2.995 6.667-6.667 6.667h-86.667c-3.672 0-6.667-2.995-6.667-6.667v-86.667c.001-3.672 2.996-6.667 6.667-6.667z"></path><path fill="#b5733e" d="M292.664 198.608v86.667c0 3.672-2.995 6.667-6.667 6.667h13.334c3.672 0 6.667-2.995 6.667-6.667v-86.667c0-3.672-2.995-6.667-6.667-6.667h-13.334c3.673.001 6.667 2.996 6.667 6.667z"></path><path fill="#f2d1a5" d="M239.257 191.942h33.482v34.133c0 3.672-2.995 6.667-6.667 6.667h-20.15c-3.672 0-6.666-2.995-6.666-6.667v-34.133z"></path><path fill="#e3a76f" d="M266.072 191.942v34.133c0 3.672-2.995 6.667-6.667 6.667h6.667c3.672 0 6.667-2.995 6.667-6.667v-34.133h-6.667z"></path></g><g fill-rule="evenodd" clip-rule="evenodd"><path fill="#c48958" d="M367.164 191.942h86.667c3.672 0 6.667 2.995 6.667 6.667v86.667c0 3.672-2.995 6.667-6.667 6.667h-86.667c-3.672 0-6.667-2.995-6.667-6.667v-86.667c.001-3.672 2.996-6.667 6.667-6.667z"></path><path fill="#b5733e" d="M447.164 198.608v86.667c0 3.672-2.995 6.667-6.667 6.667h13.334c3.672 0 6.667-2.995 6.667-6.667v-86.667c0-3.672-2.995-6.667-6.667-6.667h-13.334c3.673.001 6.667 2.996 6.667 6.667z"></path><path fill="#f2d1a5" d="M393.757 191.942h33.482v34.133c0 3.672-2.995 6.667-6.667 6.667h-20.15c-3.672 0-6.666-2.995-6.666-6.667v-34.133z"></path><path fill="#e3a76f" d="M420.573 191.942v34.133c0 3.672-2.995 6.667-6.666 6.667h6.667c3.672 0 6.667-2.995 6.667-6.667v-34.133h-6.668z"></path></g><g fill-rule="evenodd" clip-rule="evenodd"><path fill="#837683" d="M22.254 291.567h467.487c7.841 0 14.257 6.415 14.257 14.257 0 7.841-6.415 14.257-14.257 14.257H22.254c-7.841 0-14.257-6.415-14.257-14.257.001-7.842 6.416-14.257 14.257-14.257z"></path><path fill="#685e68" d="M479.741 310.08H12.254c-1.297 0-2.555-.176-3.752-.504 1.657 6.036 7.208 10.505 13.752 10.505h467.487c7.841 0 14.257-6.415 14.257-14.257 0-6.544-4.468-12.095-10.505-13.752.329 1.197.504 2.455.504 3.752.001 7.841-6.415 14.256-14.256 14.256z"></path></g><g fill-rule="evenodd" clip-rule="evenodd"><path fill="#c48958" d="M58.164 8.199h86.667c3.672 0 6.667 2.995 6.667 6.667v86.667c0 3.672-2.995 6.667-6.667 6.667H58.164c-3.672 0-6.667-2.994-6.667-6.667V14.865c.001-3.672 2.996-6.666 6.667-6.666z"></path><path fill="#b5733e" d="M138.164 14.865v86.667c0 3.672-2.995 6.667-6.667 6.667h13.334c3.672 0 6.667-2.994 6.667-6.667V14.865c0-3.672-2.995-6.667-6.667-6.667h-13.334c3.672.001 6.667 2.995 6.667 6.667z"></path><path fill="#f2d1a5" d="M84.757 8.199h33.483v34.133c0 3.672-2.995 6.667-6.667 6.667h-20.15c-3.672 0-6.667-2.995-6.667-6.667V8.199z"></path><path fill="#e3a76f" d="M111.572 8.199v34.133c0 3.672-2.995 6.667-6.667 6.667h6.667c3.672 0 6.667-2.995 6.667-6.667V8.199h-6.667z"></path></g><g fill-rule="evenodd" clip-rule="evenodd"><path fill="#c48958" d="M212.664 8.199h86.667c3.672 0 6.667 2.995 6.667 6.667v86.667c0 3.672-2.995 6.667-6.667 6.667h-86.667c-3.672 0-6.667-2.994-6.667-6.667V14.865c.001-3.672 2.996-6.666 6.667-6.666z"></path><path fill="#b5733e" d="M292.664 14.865v86.667c0 3.672-2.995 6.667-6.667 6.667h13.334c3.672 0 6.667-2.994 6.667-6.667V14.865c0-3.672-2.995-6.667-6.667-6.667h-13.334c3.673.001 6.667 2.995 6.667 6.667z"></path><path fill="#f2d1a5" d="M239.257 8.199h33.482v34.133c0 3.672-2.995 6.667-6.667 6.667h-20.15c-3.672 0-6.666-2.995-6.666-6.667V8.199z"></path><path fill="#e3a76f" d="M266.072 8.199v34.133c0 3.672-2.995 6.667-6.667 6.667h6.667c3.672 0 6.667-2.995 6.667-6.667V8.199h-6.667z"></path></g><g fill-rule="evenodd" clip-rule="evenodd"><path fill="#c48958" d="M367.164 8.199h86.667c3.672 0 6.667 2.995 6.667 6.667v86.667c0 3.672-2.995 6.667-6.667 6.667h-86.667c-3.672 0-6.667-2.994-6.667-6.667V14.865c.001-3.672 2.996-6.666 6.667-6.666z"></path><path fill="#b5733e" d="M447.164 14.865v86.667c0 3.672-2.995 6.667-6.667 6.667h13.334c3.672 0 6.667-2.994 6.667-6.667V14.865c0-3.672-2.995-6.667-6.667-6.667h-13.334c3.673.001 6.667 2.995 6.667 6.667z"></path><path fill="#f2d1a5" d="M393.757 8.199h33.482v34.133c0 3.672-2.995 6.667-6.667 6.667h-20.15c-3.672 0-6.666-2.995-6.666-6.667V8.199z"></path><path fill="#e3a76f" d="M420.573 8.199v34.133c0 3.672-2.995 6.667-6.666 6.667h6.667c3.672 0 6.667-2.995 6.667-6.667V8.199h-6.668z"></path></g><g fill-rule="evenodd" clip-rule="evenodd"><path fill="#837683" d="M22.254 107.824h467.487c7.841 0 14.257 6.415 14.257 14.257 0 7.841-6.415 14.257-14.257 14.257H22.254c-7.841 0-14.257-6.415-14.257-14.257.001-7.842 6.416-14.257 14.257-14.257z"></path><path fill="#685e68" d="M479.741 126.337H12.254c-1.297 0-2.555-.175-3.752-.504 1.657 6.036 7.208 10.505 13.752 10.505h467.487c7.841 0 14.257-6.415 14.257-14.257 0-6.544-4.468-12.095-10.505-13.752.329 1.197.504 2.455.504 3.752.001 7.84-6.415 14.256-14.256 14.256z"></path></g><path fill-rule="evenodd" d="M22.258 116.008h467.481a6.27 6.27 0 0 1 6.261 6.261c0 3.449-2.807 6.251-6.261 6.251H22.258c-3.449 0-6.256-2.802-6.256-6.251 0-3.449 2.807-6.261 6.256-6.261zM76.762 16.01v32.798a7.995 7.995 0 0 0 7.996 8.001h33.482a7.999 7.999 0 0 0 8.001-8.001V16.01H143.5v84h-84v-84h17.262zm15.998 0v24.801h17.48V16.01H92.76zm138.5 0v32.798a7.998 7.998 0 0 0 7.997 8.001h33.482a7.999 7.999 0 0 0 8.001-8.001V16.01h17.258v84h-84.001v-84h17.263zm15.998 0v24.801h17.484V16.01h-17.484zm138.5 0v32.798a8 8 0 0 0 8.002 8.001h33.477a8 8 0 0 0 8.002-8.001V16.01h17.262v84h-84v-84h17.257zm16.003 0v24.801h17.479V16.01h-17.479zM22.258 144.523h467.481c12.28 0 22.258-9.983 22.258-22.254 0-12.28-9.978-22.258-22.258-22.258h-21.24V8.009a7.995 7.995 0 0 0-8.001-7.997H360.5a7.995 7.995 0 0 0-8.001 7.997v92.002h-38.497V8.009a7.995 7.995 0 0 0-8.001-7.997h-99.998a7.995 7.995 0 0 0-8.001 7.997v92.002h-38.497V8.009a7.995 7.995 0 0 0-8.001-7.997H51.498a7.991 7.991 0 0 0-7.997 7.997v92.002H22.258C9.982 100.011 0 109.989 0 122.269c-.001 12.271 9.982 22.254 22.258 22.254zm467.481 167.745H22.258c-3.449 0-6.256-2.812-6.256-6.26 0-3.449 2.807-6.261 6.256-6.261h467.481a6.27 6.27 0 0 1 6.261 6.261 6.27 6.27 0 0 1-6.261 6.26zM76.762 199.749v32.803a7.994 7.994 0 0 0 7.996 7.997h33.482a7.998 7.998 0 0 0 8.001-7.997v-32.803H143.5v84h-84v-84h17.262zm15.998 0v24.801h17.48v-24.801H92.76zm138.5 0v32.803a7.998 7.998 0 0 0 7.997 7.997h33.482a7.998 7.998 0 0 0 8.001-7.997v-32.803h17.258v84h-84.001v-84h17.263zm15.998 0v24.801h17.484v-24.801h-17.484zm138.5 0v32.803a7.999 7.999 0 0 0 8.002 7.997h33.477a7.999 7.999 0 0 0 8.002-7.997v-32.803h17.262v84h-84v-84h17.257zm16.003 0v24.801h17.479v-24.801h-17.479zm87.978 84h-21.24v-92.001a7.995 7.995 0 0 0-8.001-7.997H360.5a7.995 7.995 0 0 0-8.001 7.997v92.001h-38.497v-92.001a7.995 7.995 0 0 0-8.001-7.997h-99.998a7.995 7.995 0 0 0-8.001 7.997v92.001h-38.497v-92.001a7.995 7.995 0 0 0-8.001-7.997H51.498a7.991 7.991 0 0 0-7.997 7.997v92.001H22.258C9.982 283.749 0 293.737 0 306.008s9.983 22.263 22.258 22.263h467.481c12.28 0 22.258-9.992 22.258-22.263s-9.978-22.259-22.258-22.259zm0 212.258H22.258a6.264 6.264 0 0 1-6.256-6.256 6.257 6.257 0 0 1 6.256-6.251h467.481c3.453 0 6.261 2.798 6.261 6.251a6.266 6.266 0 0 1-6.261 6.256zM76.762 383.498V416.3c0 4.411 3.576 8.001 7.996 8.001h33.482c4.421 0 8.001-3.59 8.001-8.001v-32.803H143.5v84h-84v-84h17.262v.001zm15.998 0v24.801h17.48v-24.801H92.76zm138.5 0V416.3c0 4.411 3.581 8.001 7.997 8.001h33.482c4.421 0 8.001-3.59 8.001-8.001v-32.803h17.258v84h-84.001v-84h17.263v.001zm15.998 0v24.801h17.484v-24.801h-17.484zm138.5 0V416.3a8.005 8.005 0 0 0 8.002 8.001h33.477a8.005 8.005 0 0 0 8.002-8.001v-32.803h17.262v84h-84v-84h17.257v.001zm16.003 0v24.801h17.479v-24.801h-17.479zm87.978 84h-21.24v-91.997a7.999 7.999 0 0 0-8.001-8.001H360.5a7.999 7.999 0 0 0-8.001 8.001v91.997h-38.497v-91.997a7.999 7.999 0 0 0-8.001-8.001h-99.998a7.999 7.999 0 0 0-8.001 8.001v91.997h-38.497v-91.997a7.999 7.999 0 0 0-8.001-8.001H51.498a7.995 7.995 0 0 0-7.997 8.001v91.997H22.258C9.982 467.498 0 477.481 0 489.752c0 12.276 9.983 22.258 22.258 22.258h467.481c12.28 0 22.258-9.983 22.258-22.258 0-12.271-9.978-22.254-22.258-22.254z" clip-rule="evenodd"></path></svg>