<svg xmlns="http://www.w3.org/2000/svg" enable-background="new 0 0 64 64" viewBox="0 0 64 64" id="maintenance"><polygon fill="#88898d" points="40.155 49.155 32 41 23 32 14.846 23.846 23.845 14.845 33.5 24.5 39.5 30.5 49.157 40.157"></polygon><path fill="#9c9d9e" d="M45.94,36.94L39.5,30.5l-6-6l-6.622-6.622l-4.471,4.472c-1.052,1.052-1.048,2.758,0.007,3.805l9,9
		l4.522,4.522c2.006,2.006,5.259,2.007,7.266,0.001L45.94,36.94z"></path><path fill="#c4c4c5" d="M41.586,39L25,22.414c-0.39-0.39-0.39-1.024,0-1.414l0,0c0.39-0.39,1.024-0.39,1.414,0L43,37.586
			c0.39,0.39,0.39,1.024,0,1.414l0,0C42.61,39.39,41.976,39.39,41.586,39z"></path><polygon fill="#efefef" points="26 32 52 6 62 2 58 12 32 38"></polygon><path fill="#e5e5e5" d="M60.867,55.867l-6.849-6.849c-0.663-0.663-1.562-1.036-2.5-1.036h0
			c-1.953,0-3.536,1.583-3.536,3.535v0c0,0.938,0.372,1.837,1.036,2.5c0,0,6.849,6.849,6.848,6.849C54.399,61.593,52.747,62,51,62
			c-6.075,0-11-4.925-11-11s4.925-11,11-11s11,4.925,11,11C62,52.747,61.593,54.4,60.867,55.867z"></path><path fill="#efefef" d="M51,40c-3.496,0-6.604,1.636-8.619,4.178C41.638,49.398,43.006,56.47,54.37,59.37
			c-2.015-2.015-5.351-5.352-5.351-5.352c-0.663-0.663-1.036-1.562-1.036-2.5v0c0-1.953,1.583-3.536,3.536-3.536h0
			c0.938,0,1.837,0.372,2.5,1.036l6.849,6.849C61.593,54.4,62,52.747,62,51C62,44.925,57.075,40,51,40z"></path><ellipse cx="56.492" cy="45.256" fill="#fcfcfc" rx="1.944" ry="3.914" transform="rotate(-45.001 56.492 45.257)"></ellipse><path fill="#e5e5e5" d="M8.133,3.133l6.849,6.849c0.663,0.663,1.036,1.562,1.036,2.5v0c0,1.953-1.583,3.536-3.535,3.536h0
			c-0.938,0-1.837-0.372-2.5-1.036c0,0-6.849-6.849-6.849-6.848C2.407,9.601,2,11.253,2,13c0,6.075,4.925,11,11,11s11-4.925,11-11
			S19.075,2,13,2C11.253,2,9.6,2.407,8.133,3.133z"></path><path fill="#efefef" d="M24,13c0,3.496-1.636,6.604-4.178,8.619C14.602,22.362,7.53,20.994,4.63,9.63
			c2.015,2.015,5.352,5.351,5.352,5.351c0.663,0.663,1.562,1.036,2.5,1.036h0c1.953,0,3.536-1.583,3.536-3.536v0
			c0-0.938-0.372-1.837-1.036-2.5L8.133,3.133C9.6,2.407,11.253,2,13,2C19.075,2,24,6.925,24,13z"></path><ellipse cx="18.744" cy="7.508" fill="#fcfcfc" rx="1.944" ry="3.914" transform="rotate(-45.001 18.744 7.508)"></ellipse><polygon fill="#e5e5e5" points="56.946 4.022 52 6 26 32 28.967 34.967 54.967 8.967"></polygon><polygon fill="#fcfcfc" points="53 11 62 2 58 12"></polygon><polygon fill="#efefef" points="53 11 52 6 62 2"></polygon><path fill="#c3313c" d="M22,32L4.071,49.929C2.745,51.255,2,53.054,2,54.929v0C2,58.834,5.166,62,9.071,62h0
		c1.875,0,3.674-0.745,5-2.071L32,42v-4l-6-6H22z"></path><path fill="#db3845" d="M6.492,61.508L31,37l-4-4L2.492,57.508C3.21,59.336,4.664,60.79,6.492,61.508z"></path></svg>