<svg xmlns="http://www.w3.org/2000/svg" data-name="Layer 1" viewBox="0 0 48 48" id="return-box"><path fill="#232323" d="M28.01,43H8a5.006,5.006,0,0,1-5-5V8A5.006,5.006,0,0,1,8,3H36a5.006,5.006,0,0,1,5,5V22a1,1,0,0,1-2,0V8a3,3,0,0,0-3-3H8A3,3,0,0,0,5,8V38a3,3,0,0,0,3,3H28.01a1,1,0,1,1,0,2Z"></path><path fill="#232323" d="M22,19a2.968,2.968,0,0,1-2.057-1.287c-.5-.547-1.024-1.113-1.546-1.113-.149,0-.3.051-.7.678A2,2,0,0,1,14,16.226V8a1,1,0,0,1,2,0v8.226A2.857,2.857,0,0,1,18.4,14.6a4.237,4.237,0,0,1,3.018,1.759,7.637,7.637,0,0,0,.555.564c.118-.129.273-.336.385-.486A3.615,3.615,0,0,1,25.192,14.6a3.5,3.5,0,0,1,2.7,1.8l.1.138V5H15a1,1,0,0,1,0-2H29a1,1,0,0,1,1,1V16.537a2,2,0,0,1-3.594,1.209L26.3,17.6c-.469-.623-.777-1-1.106-1-.428,0-.767.41-1.235,1.035A2.6,2.6,0,0,1,22,19Zm.1-1.984Z"></path><path fill="#7fbde7" d="M32,36a1,1,0,0,1-.707-.293l-3-3a1,1,0,0,1,0-1.414l3-3a1,1,0,0,1,1.414,1.414L30.414,32l2.293,2.293A1,1,0,0,1,32,36Z"></path><path fill="#7fbde7" d="M36,39H31a1,1,0,0,1,0-2h5a2,2,0,0,0,0-4H31a1,1,0,0,1,0-2h5a4,4,0,0,1,0,8Z"></path><path fill="#7fbde7" d="M34,45A11,11,0,1,1,45,34,11.013,11.013,0,0,1,34,45Zm0-20a9,9,0,1,0,9,9A9.011,9.011,0,0,0,34,25Z"></path></svg>