<svg xmlns="http://www.w3.org/2000/svg" enable-background="new 0 0 4000 4000" viewBox="0 0 4000 4000" id="product-packaging"><path fill="#422c77" d="M2402.261,1225.122c-9.673,0-19.345-2.8-27.746-8.4l-375.143-250.096
			c-22.985-15.324-29.196-46.379-13.873-69.364c15.323-22.985,46.378-29.197,69.365-13.873l347.397,231.599l347.398-231.599
			c22.985-15.323,54.04-9.113,69.364,13.873c15.324,22.985,9.113,54.041-13.873,69.364l-375.144,250.096
			C2421.605,1222.322,2411.934,1225.122,2402.261,1225.122z"></path><path fill="#422c77" d="M3402.646 2175.487c-27.625 0-50.02-22.394-50.02-50.019V799.958c0-82.742-67.315-150.058-150.058-150.058h-600.23c-82.742 0-150.058 67.316-150.058 150.058v375.144c0 27.625-22.395 50.019-50.02 50.019s-50.02-22.394-50.02-50.019V799.958c0-66.803 26.015-129.608 73.252-176.845s110.042-73.251 176.845-73.251h600.23c66.803 0 129.607 26.014 176.845 73.251s73.252 110.042 73.252 176.845v1325.509C3452.665 2153.093 3430.271 2175.487 3402.646 2175.487zM3402.646 3425.968c-27.625 0-50.02-22.395-50.02-50.02V2625.66c0-27.625 22.395-50.02 50.02-50.02s50.02 22.395 50.02 50.02v750.288C3452.665 3403.573 3430.271 3425.968 3402.646 3425.968z"></path><path fill="#fff" d="M901.685,1875.372V724.93c0-69.062,55.986-125.048,125.048-125.048h675.259
					c69.062,0,125.048,55.986,125.048,125.048v1150.442H901.685z"></path><path fill="#422c77" d="M1827.04,1925.391c-27.625,0-50.019-22.394-50.019-50.019V724.93
					c0-41.371-33.658-75.029-75.029-75.029h-675.259c-41.371,0-75.029,33.658-75.029,75.029v1150.442
					c0,27.625-22.394,50.019-50.019,50.019s-50.019-22.394-50.019-50.019V724.93c0-96.532,78.535-175.067,175.067-175.067h675.259
					c96.533,0,175.067,78.535,175.067,175.067v1150.442C1877.059,1902.997,1854.665,1925.391,1827.04,1925.391z"></path><path fill="#ff8f80" d="M1827.04,1875.372v-375.144c0-69.062,55.986-125.048,125.048-125.048h725.278
					c69.062,0,125.048,55.986,125.048,125.048v375.144H1827.04z"></path><path fill="#422c77" d="M2802.415 1925.391c-27.625 0-50.02-22.394-50.02-50.019v-375.144c0-41.371-33.658-75.029-75.029-75.029h-725.278c-41.371 0-75.029 33.658-75.029 75.029v375.144c0 27.625-22.394 50.019-50.019 50.019s-50.019-22.394-50.019-50.019v-375.144c0-96.532 78.535-175.067 175.067-175.067h725.278c96.533 0 175.068 78.535 175.068 175.067v375.144C2852.435 1902.997 2830.04 1925.391 2802.415 1925.391zM1576.944 975.026h-425.163c-27.625 0-50.019-22.394-50.019-50.019s22.394-50.019 50.019-50.019h425.163c27.625 0 50.019 22.394 50.019 50.019S1604.569 975.026 1576.944 975.026zM1576.944 1275.141h-425.163c-27.625 0-50.019-22.394-50.019-50.019s22.394-50.019 50.019-50.019h425.163c27.625 0 50.019 22.394 50.019 50.019S1604.569 1275.141 1576.944 1275.141zM1576.944 1575.256h-425.163c-27.625 0-50.019-22.394-50.019-50.019s22.394-50.019 50.019-50.019h425.163c27.625 0 50.019 22.394 50.019 50.019S1604.569 1575.256 1576.944 1575.256z"></path><path fill="#ffda8f" d="M751.627,1875.372V3250.9c0,69.062,55.986,125.048,125.048,125.048h1950.749
					c69.062,0,125.048-55.986,125.048-125.048V1875.372H751.627z"></path><path fill="#422c77" d="M2827.424,3425.968H876.675c-96.533,0-175.067-78.535-175.067-175.067V1875.372
					c0-27.625,22.395-50.02,50.019-50.02c27.625,0,50.019,22.395,50.019,50.02V3250.9c0,41.371,33.658,75.028,75.029,75.028
					h1950.749c41.371,0,75.029-33.657,75.029-75.028V1875.372c0-27.625,22.395-50.02,50.02-50.02s50.02,22.395,50.02,50.02V3250.9
					C3002.492,3347.433,2923.956,3425.968,2827.424,3425.968z"></path><polygon fill="#ffda8f" points="1401.877 2425.583 301.454 2425.583 751.627 1875.372 1852.05 1875.372"></polygon><path fill="#422c77" d="M1401.876,2475.603H301.454c-19.327,0-36.924-11.135-45.201-28.6
					c-8.276-17.466-5.75-38.136,6.488-53.094l450.173-550.211c9.5-11.611,23.71-18.346,38.713-18.346H1852.05
					c19.327,0,36.924,11.135,45.201,28.6c8.276,17.465,5.75,38.135-6.488,53.094l-450.173,550.211
					C1431.089,2468.868,1416.879,2475.603,1401.876,2475.603z M407.007,2375.563h971.167l368.324-450.173H775.33L407.007,2375.563z"></path><polygon fill="#ffda8f" points="2302.222 2425.583 3402.645 2425.583 2952.472 1875.372 1852.05 1875.372"></polygon><path fill="#422c77" d="M3402.646 2475.603H2302.223c-15.003 0-29.213-6.734-38.713-18.346l-450.173-550.211c-12.238-14.958-14.764-35.629-6.488-53.094 8.276-17.465 25.874-28.6 45.201-28.6h1100.423c15.003 0 29.213 6.734 38.713 18.346l450.173 550.211c12.238 14.958 14.765 35.628 6.488 53.094C3439.57 2464.468 3421.973 2475.603 3402.646 2475.603zM2325.926 2375.563h971.167l-368.323-450.173h-971.167L2325.926 2375.563zM1852.05 3425.968c-27.625 0-50.019-22.395-50.019-50.02V2325.544c0-27.625 22.395-50.019 50.019-50.019s50.019 22.394 50.019 50.019v1050.404C1902.069 3403.573 1879.674 3425.968 1852.05 3425.968z"></path></svg>