<?xml version="1.0" encoding="UTF-8" standalone="no"?>
<svg
   width="32"
   height="32"
   id="box"
   version="1.1"
   sodipodi:docname="Replenishment.svg"
   xmlns:inkscape="http://www.inkscape.org/namespaces/inkscape"
   xmlns:sodipodi="http://sodipodi.sourceforge.net/DTD/sodipodi-0.dtd"
   xmlns="http://www.w3.org/2000/svg"
   xmlns:svg="http://www.w3.org/2000/svg">
  <defs
     id="defs17" />
  <sodipodi:namedview
     id="namedview15"
     pagecolor="#ffffff"
     bordercolor="#000000"
     borderopacity="0.25"
     inkscape:showpageshadow="2"
     inkscape:pageopacity="0.0"
     inkscape:pagecheckerboard="0"
     inkscape:deskcolor="#d1d1d1" />
  <path
     fill="#fcd062"
     fill-rule="evenodd"
     d="M15.688 15.987V30.99l-.01.01L4.01 26.01 4 25.993V10.991l.01.018 11.667 4.99z"
     id="path2" />
  <path
     fill="#f8aa3a"
     fill-rule="evenodd"
     d="m27.376 10.986-.01.018-11.668 4.99v15.002l11.668-4.99.01-.018V10.986z"
     id="path4" />
  <path
     fill="#f8c253"
     fill-rule="evenodd"
     d="m27.365 10.992-11.667-4.99h-.02L4.01 10.992v.012l11.667 4.99z"
     id="path6" />
  <path
     fill="none"
     stroke="#34485c"
     stroke-linecap="round"
     stroke-linejoin="round"
     d="m23.528 24.504-2.917 1.247L17.695 27m2.916-3.243-2.916 1.248"
     id="path8" />
  <path
     fill="#f8b84e"
     fill-rule="evenodd"
     d="m4 11-4 4 11.7 5 4-4zm15.7-9-4 4 11.7 5 4-4zm7.7 9 4 4-11.7 5-4-4zM11.7 2l4 4L4 11 0 7z"
     id="path10" />
  <path
     fill="#f05542"
     d="M14.7 13.25v-8h-2.5l3.5-4 3.5 4h-2.5v8h-2z"
     id="path12" />
</svg>
