<svg xmlns="http://www.w3.org/2000/svg" viewBox="0 0 32 32" id="bill"><g data-name="Layer 2"><path fill="#c6c3d8" d="M30,15H24a.99974.99974,0,0,0-1,1V27a4,4,0,0,0,8,0V16A.99974.99974,0,0,0,30,15Z"></path><path fill="#edebf2" d="M27.33008,30.92A.62182.62182,0,0,1,27,31H7a6.00472,6.00472,0,0,1-6-6V3A2.00583,2.00583,0,0,1,3,1H23a2.00583,2.00583,0,0,1,2,2V28A2.9831,2.9831,0,0,0,27.33008,30.92Z"></path><path fill="#82bcf4" d="M19 8H13a1 1 0 010-2h6a1 1 0 010 2zM17 11H13a1 1 0 010-2h4a1 1 0 010 2z"></path><path fill="#fc5692" d="M19 15H13a1 1 0 010-2h6a1 1 0 010 2zM17 18H13a1 1 0 010-2h4a1 1 0 010 2z"></path><rect width="5" height="5" x="5" y="6" fill="#82bcf4" rx="1"></rect><rect width="5" height="5" x="5" y="13" fill="#fc5692" rx="1"></rect><rect width="5" height="5" x="5" y="20" fill="#ffde76" rx="1"></rect><path fill="#ffde76" d="M19 22H13a1 1 0 010-2h6a1 1 0 010 2zM17 25H13a1 1 0 010-2h4a1 1 0 010 2z"></path><path fill="#2d2d2d" d="M27,31a4.00427,4.00427,0,0,1-4-4V16a1,1,0,0,1,2,0V27a2,2,0,0,0,4,0V17H27.42871a1,1,0,1,1,0-2H30a.99974.99974,0,0,1,1,1V27A4.00427,4.00427,0,0,1,27,31Z"></path><path fill="#2d2d2d" d="M27,31H7a6.00657,6.00657,0,0,1-6-6V3A2.00229,2.00229,0,0,1,3,1H23a2.00229,2.00229,0,0,1,2,2V26.5a2.52124,2.52124,0,0,0,2.12354,2.4707.99877.99877,0,0,1,.751.542,1.03934,1.03934,0,0,1-.03369.99316A1.003,1.003,0,0,1,27,31ZM3,3V25a4.00427,4.00427,0,0,0,4,4H23.7583A4.44325,4.44325,0,0,1,23,26.5V3Z"></path></g></svg>