<svg xmlns="http://www.w3.org/2000/svg" viewBox="0 0 48 48" id="boxes"><rect width="38" height="4" x="5" y="40" fill="#bfbfbf"></rect><rect width="38" height="4" x="5" y="22" fill="#bfbfbf"></rect><polygon fill="#fc6459" points="18 36 16 35 14 36 14 32 18 32 18 36"></polygon><polygon fill="#fc6459" points="34 36 32 35 30 36 30 32 34 32 34 36"></polygon><polygon fill="#bfbfbf" points="16 18 14 17 12 18 12 14 16 14 16 18"></polygon><polygon fill="#bfbfbf" points="40 18 38 17 36 18 36 14 40 14 40 18"></polygon><polygon fill="#bfbfbf" points="30 18 28 17 26 18 26 14 30 14 30 18"></polygon><polygon fill="#bfbfbf" points="35 10 33 9 31 10 31 6 35 6 35 10"></polygon><path fill="#424242" d="M47,0H43a1,1,0,0,0-1,1V13H39V6a1,1,0,0,0-1-1H28a1,1,0,0,0-1,1v7H23a1,1,0,0,0-1,1v7H20V14a1,1,0,0,0-1-1H9a1,1,0,0,0-1,1v7H6V1A1,1,0,0,0,5,0H1A1,1,0,0,0,0,1V47a1,1,0,0,0,1,1H5a1,1,0,0,0,1-1V45H42v2a1,1,0,0,0,1,1h4a1,1,0,0,0,1-1V1A1,1,0,0,0,47,0ZM4,46H2V2H4ZM29,7h8v6H29Zm-5,8h8v6H24ZM10,15h8v6H10ZM42,43H6V41H42ZM12,39V33h8v6Zm16,0V33h8v6Zm14,0H38V32a1,1,0,0,0-1-1H27a1,1,0,0,0-1,1v7H22V32a1,1,0,0,0-1-1H11a1,1,0,0,0-1,1v7H6V27H42Zm0-14H6V23H42Zm0-4H34V15h8Zm4,25H44V2h2Z"></path></svg>