<svg xmlns="http://www.w3.org/2000/svg" viewBox="0 0 64 64" id="work-force"><path fill="#4e5292" d="M45.03 48.26c-4.07 3.75-9.37 5.81-14.94 5.81-4.12 0-8.04-1.12-11.47-3.23l.75-.08c.53-.05.92-.53.87-1.06a.968.968 0 0 0-1.06-.87l-3.33.34c-.27.03-.51.16-.68.38-.16.22-.23.49-.18.75l.58 3.3c.08.47.49.8.95.8.06 0 .11 0 .17-.01.53-.09.88-.6.79-1.12l-.17-.95c3.81 2.42 8.18 3.7 12.78 3.7 6.05 0 11.82-2.25 16.25-6.33.39-.36.42-.98.06-1.37a.966.966 0 0 0-1.37-.06zM13.91 16.58c.25 0 .49-.09.68-.28 4.17-4.11 9.68-6.37 15.51-6.37 4.35 0 8.58 1.3 12.17 3.68l-.75.05a.98.98 0 0 0-.91 1.03c.03.51.46.91.97.91h.06l3.34-.21c.27-.02.52-.15.69-.35.17-.21.25-.48.21-.75l-.46-3.32a.97.97 0 0 0-1.92.26l.13.96C39.66 9.48 34.93 8 30.09 8c-6.35 0-12.34 2.46-16.88 6.93-.38.38-.39.99-.01 1.37.2.18.46.28.71.28zm-4.45.24c-3.1 0-5.74 2.03-6.66 4.83-.01 0-.01 0-.01.01 0 0 0 .01-.01.02-.21.68-.34 1.41-.34 2.15 0 3.87 3.15 7.02 7.02 7.02s7.01-3.15 7.01-7.02c.01-3.87-3.14-7.01-7.01-7.01zm0 1.94c2.09 0 3.9 1.27 4.66 3.09-.89-.23-1.55-.65-2.31-1.43a.977.977 0 0 0-1.29-.08c-.12.09-2.56 1.93-5.55 1.13.87-1.6 2.55-2.71 4.49-2.71zm0 10.15c-2.8 0-5.08-2.28-5.08-5.08 0-.16.04-.32.05-.48 2.92.8 5.42-.31 6.59-1 1.03.88 2.07 1.34 3.51 1.55a5.07 5.07 0 0 1-5.07 5.01z"></path><path fill="#98d3ba" d="M14.13 21.85c-.89-.23-1.55-.65-2.31-1.43a.977.977 0 0 0-1.29-.08c-.12.09-2.56 1.93-5.55 1.13.85-1.61 2.53-2.72 4.48-2.72 2.1.01 3.9 1.28 4.67 3.1z"></path><path fill="#f0d299" d="M14.54 23.9c-.04 2.77-2.3 5.01-5.07 5.01-2.8 0-5.08-2.28-5.08-5.08 0-.16.04-.32.05-.48 2.92.8 5.42-.31 6.59-1 1.02.88 2.06 1.34 3.51 1.55z"></path><path fill="#89c3a8" d="M9.2 18.77c-1.27.15-2.37 1.29-2.89 2.9a6.33 6.33 0 0 1-1.33-.18c.82-1.54 2.38-2.62 4.22-2.72z"></path><path fill="#b9e0ce" d="M14.13 21.85c-.72-.18-1.28-.48-1.86-1.01-.63-1.27-1.66-2.08-2.8-2.08a5.06 5.06 0 0 1 4.66 3.09z"></path><path fill="#dfc189" d="M9.46 28.91c-2.8 0-5.08-2.28-5.08-5.08 0-.16.04-.32.05-.48.53.15 1.06.23 1.56.26-.01.07-.01.15-.01.22 0 2.81 1.56 5.08 3.48 5.08z"></path><path fill="#ffe4aa" d="M14.54 23.9c-.04 2.77-2.3 5.01-5.07 5.01 1.91 0 3.47-2.27 3.47-5.08 0-.12 0-.23-.01-.34.48.2 1 .32 1.61.41z"></path><path fill="#4e5292" d="M11.96 31.47h-5C3.12 31.47 0 34.59 0 38.43v7.79c0 .53.44.97.97.97h16.99c.53 0 .97-.44.97-.97v-7.79c0-3.84-3.13-6.96-6.97-6.96zm-1.75 1.94-.38 1.23H9.1l-.38-1.23h1.49zm-1.05 3.17h.59l.91 4.25-1.2 1.28-1.2-1.28.9-4.25zm7.83 8.67H1.94v-6.82c0-2.68 2.11-4.85 4.75-4.99l.69 2.22-1.12 5.26c-.07.31.03.64.24.87l2.26 2.4c.18.19.44.3.71.3.26 0 .52-.11.71-.3l2.25-2.4c.22-.23.31-.56.24-.87l-1.12-5.26.68-2.22c2.65.15 4.76 2.32 4.76 4.99v6.82z"></path><path fill="#ffdb7c" d="m10.21 33.41-.38 1.23H9.1l-.38-1.23zM10.67 40.83l-1.21 1.28-1.2-1.28.9-4.25h.6z"></path><path fill="#bbe0f6" d="M16.99 38.43v6.82H1.94v-6.82c0-2.68 2.11-4.85 4.75-4.99l.69 2.22-1.12 5.26c-.07.31.03.64.24.87l2.26 2.4c.18.19.44.3.71.3.26 0 .52-.11.71-.3l2.25-2.4c.22-.23.31-.56.24-.87l-1.12-5.26.68-2.22c2.65.15 4.76 2.32 4.76 4.99z"></path><path fill="#a7d6e7" d="M6.72 33.54c-1.8.46-3.16 2.47-3.16 4.9v6.82H1.94v-6.82c0-2.68 2.11-4.85 4.75-4.99l.03.09z"></path><path fill="#cae5f7" d="M16.99 38.43v6.82h-1.62v-6.82c0-2.43-1.37-4.44-3.17-4.9l.03-.1c2.65.16 4.76 2.33 4.76 5z"></path><path fill="#4e5292" d="M55.68 25.7a8.851 8.851 0 0 0-6.3-2.61 8.8 8.8 0 0 0-6.3 2.61c-3.47 3.47-3.47 9.12 0 12.61a8.871 8.871 0 0 0 6.3 2.6c2.28 0 4.57-.86 6.3-2.6 3.47-3.48 3.47-9.14 0-12.61zM54.3 36.93a6.977 6.977 0 0 1-9.86 0A6.945 6.945 0 0 1 42.4 32c0-1.86.73-3.62 2.04-4.94 1.32-1.31 3.07-2.04 4.94-2.04s3.61.73 4.93 2.04A6.936 6.936 0 0 1 56.36 32a6.964 6.964 0 0 1-2.06 4.93z"></path><path fill="#4e5292" d="M63.72 28.87a.976.976 0 0 0-.69-.28h-1.95c-.24-.86-.59-1.69-1.02-2.47l1.37-1.37c.38-.38.38-.99 0-1.37l-3.44-3.45c-.37-.36-1.01-.36-1.37 0l-1.38 1.38c-.79-.44-1.61-.78-2.47-1.02v-1.95a.97.97 0 0 0-.97-.97h-4.87c-.26 0-.5.11-.69.29-.18.17-.28.43-.28.68v1.95c-.86.25-1.69.59-2.46 1.03l-1.38-1.38c-.38-.38-1-.38-1.38 0l-3.44 3.44a.993.993 0 0 0 0 1.38l1.38 1.38c-.43.78-.77 1.6-1.02 2.46h-1.95c-.53 0-.97.44-.97.97v4.88c0 .25.11.5.29.68.17.18.43.29.68.29h1.95c.25.85.59 1.68 1.02 2.46l-1.37 1.38c-.18.17-.29.43-.29.68 0 .26.11.5.29.69l3.44 3.44c.18.18.43.29.69.29.25 0 .5-.11.69-.29l1.37-1.37c.79.43 1.61.77 2.47 1.02v1.94c0 .53.44.97.97.97h4.87c.54 0 .97-.44.97-.97v-1.94c.86-.25 1.69-.59 2.47-1.03l1.37 1.38c.38.37 1 .38 1.38-.01l3.44-3.44c.18-.18.29-.43.29-.69 0-.25-.11-.5-.29-.68l-1.37-1.38c.43-.79.77-1.61 1.02-2.46l1.94-.01c.53 0 .97-.43.97-.97v-4.87c0-.26-.11-.5-.28-.69zm-1.66 4.59-1.73.01c-.46 0-.84.31-.95.76-.25 1.17-.71 2.27-1.35 3.28a.98.98 0 0 0 .13 1.21l1.22 1.21L57.31 42l-1.22-1.21a.968.968 0 0 0-1.2-.14 9.837 9.837 0 0 1-3.28 1.36c-.45.1-.77.49-.77.95v1.73h-2.93v-1.73c0-.46-.32-.85-.77-.95-1.16-.25-2.27-.71-3.28-1.35a.955.955 0 0 0-1.2.13l-1.22 1.22-2.08-2.08 1.22-1.22c.32-.32.38-.82.13-1.2-.64-1-1.1-2.1-1.35-3.28-.11-.45-.49-.77-.95-.77l-1.74.01v-2.94h1.74c.46 0 .84-.32.94-.77.26-1.17.72-2.27 1.36-3.27.24-.39.19-.89-.14-1.21l-1.22-1.22L41.44 22l1.22 1.22c.32.32.82.38 1.21.13 1-.64 2.1-1.1 3.28-1.36.44-.1.76-.48.76-.94v-1.74h2.93v1.73c0 .46.32.85.77.95 1.17.26 2.27.72 3.28 1.36.39.24.88.18 1.21-.14l1.21-1.22 2.08 2.08-1.21 1.22a.97.97 0 0 0-.14 1.2c.64 1.01 1.1 2.11 1.36 3.29.1.44.49.76.95.76h1.73v2.92z"></path><path fill="#bec5da" d="M60.33 30.53c-.46 0-.85-.32-.95-.76-.26-1.17-.72-2.28-1.36-3.29a.97.97 0 0 1 .14-1.2l1.21-1.22-2.08-2.08-1.21 1.22c-.33.32-.82.38-1.21.14-1.01-.64-2.1-1.1-3.28-1.36a.973.973 0 0 1-.77-.95V19.3H47.9v1.74c0 .46-.32.84-.76.94-1.17.26-2.28.72-3.28 1.36-.39.25-.89.19-1.21-.13L41.44 22l-2.08 2.08 1.22 1.22c.33.32.38.82.14 1.21-.64 1-1.1 2.09-1.36 3.27-.1.45-.48.77-.94.77h-1.74v2.94l1.74-.01c.46 0 .84.32.95.77.25 1.17.71 2.28 1.35 3.28.25.38.19.88-.13 1.2l-1.22 1.22 2.08 2.08 1.22-1.22c.32-.32.82-.38 1.2-.13 1.01.64 2.11 1.1 3.28 1.35.45.1.77.49.77.95v1.73h2.93v-1.73c0-.46.32-.85.77-.95 1.16-.25 2.27-.71 3.28-1.36.39-.24.88-.18 1.2.14L57.31 42l2.08-2.08-1.22-1.21a.98.98 0 0 1-.13-1.21c.64-1.01 1.1-2.1 1.35-3.28.11-.45.49-.76.95-.76l1.73-.01v-2.93h-1.74zM49.38 40.91c-2.28 0-4.57-.86-6.3-2.6-3.47-3.48-3.47-9.13 0-12.61a8.834 8.834 0 0 1 6.3-2.61c2.38 0 4.62.92 6.3 2.61 3.47 3.47 3.47 9.12 0 12.61a8.913 8.913 0 0 1-6.3 2.6z"></path><path fill="#f1b8c7" d="M54.3 27.07c-1.32-1.31-3.06-2.04-4.93-2.04a6.968 6.968 0 0 0-6.98 6.98c0 1.86.73 3.61 2.04 4.93 2.72 2.72 7.15 2.72 9.86 0a6.913 6.913 0 0 0 2.05-4.93c.01-1.87-.72-3.62-2.04-4.94zm-2.5 5.9h-2.42a.97.97 0 0 1-.97-.97v-4.75c0-.53.43-.97.97-.97.53 0 .97.44.97.97v3.78h1.45c.53 0 .97.44.97.97 0 .54-.44.97-.97.97z"></path><path fill="#ec9aad" d="M55.34 35.61c-.21.33-.44.65-.7.94-2.73 2.36-6.88 2.25-9.47-.35a6.945 6.945 0 0 1-2.04-4.93c0-1.69.6-3.3 1.69-4.56.29-.25.61-.48.94-.67a6.824 6.824 0 0 0-1.02 3.62c0 1.86.73 3.61 2.04 4.93a6.963 6.963 0 0 0 8.56 1.02z"></path><path fill="#d88b9e" d="M54.64 36.55c-.1.14-.21.25-.34.38a6.977 6.977 0 0 1-9.86 0A6.945 6.945 0 0 1 42.4 32c0-1.86.73-3.62 2.04-4.94.13-.12.24-.23.38-.35a6.949 6.949 0 0 0-1.69 4.56 6.962 6.962 0 0 0 11.51 5.28z"></path><path fill="#acb3c6" d="M56.3 25.07a9.803 9.803 0 0 0-6.92-2.86c-2.62 0-5.08 1.03-6.93 2.86A9.784 9.784 0 0 0 39.59 32c0 2.62 1.02 5.07 2.86 6.92 3.83 3.82 10.04 3.81 13.86 0A9.729 9.729 0 0 0 59.18 32a9.803 9.803 0 0 0-2.88-6.93zm-.62 13.24a8.871 8.871 0 0 1-6.3 2.6c-2.28 0-4.57-.86-6.3-2.6-3.47-3.48-3.47-9.13 0-12.61a8.834 8.834 0 0 1 6.3-2.61c2.38 0 4.62.92 6.3 2.61 3.47 3.47 3.47 9.13 0 12.61z"></path><path fill="#4e5292" d="M52.77 32.01c0 .53-.44.97-.97.97h-2.42a.97.97 0 0 1-.97-.97v-4.75c0-.53.43-.97.97-.97.53 0 .97.44.97.97v3.78h1.45c.53 0 .97.43.97.97z"></path></svg>