<svg xmlns="http://www.w3.org/2000/svg" enable-background="new 0 0 512 512" viewBox="0 0 512 512" id="forklift"><rect width="10" height="141" x="29" y="143" fill="#c4c1ab"></rect><rect width="10" height="27" x="29" y="143" fill="#747e6c"></rect><path fill="#c4c1ab" d="M280,313h-10v-43.1l-76.2-128.6l8.6-5.1L279.3,266c0.5,0.8,0.7,1.7,0.7,2.5V313z"></path><polygon fill="#747e6c" points="202.4 136.2 193.8 141.3 210.8 170 222.4 170"></polygon><rect width="48.3" height="10" x="172.8" y="267.9" fill="#1f3f77" transform="rotate(45.001 196.922 272.918)"></rect><rect width="13" height="10" x="177.9" y="255.4" fill="#0a2751" transform="rotate(45.001 184.423 260.426)"></rect><path fill="#1f3f77" d="M79.3,202.3L79.3,202.3l0,101.7h40.6v-61.1C119.9,220.5,101.7,202.3,79.3,202.3z"></path><polygon fill="#db3328" points="95.1 304 79.3 269 5 269 5 304 5 394.8 5 395 296 395 296 304"></polygon><path fill="#b5100b" d="M252,304L252,304c0,25.4-20.6,46-46,46H5v44.8v0.2h291v-91H252z"></path><path fill="#db3328" d="M222.9,157.7H26.6c-8.2,0-14.8-6.6-14.8-14.8v0c0-8.2,6.6-14.8,14.8-14.8h196.3
			c8.2,0,14.8,6.6,14.8,14.8v0C237.7,151,231.1,157.7,222.9,157.7z"></path><rect width="30" height="315" x="296" y="80" fill="#1f3f77"></rect><rect width="153" height="153" x="326" y="242" fill="#d84861"></rect><rect width="127.9" height="153" x="350.7" y="242" fill="#f37787"></rect><rect width="38.3" height="59.7" x="383.3" y="242" fill="#c4c1ab"></rect><rect width="111" height="111" x="326" y="131" fill="#3179af"></rect><rect width="86.3" height="111" x="350.7" y="131" fill="#68a1d6"></rect><rect width="27.8" height="43.3" x="367.6" y="131" fill="#c4c1ab"></rect><path fill="#c4c1ab" d="M204,256L204,256l0,48h48v0C252,277.5,230.5,256,204,256z"></path><rect width="25.4" height="25.4" x="5" y="306.6" fill="#747e6c"></rect><rect width="25.4" height="19.5" x="5" y="312.5" fill="#c4c1ab"></rect><circle cx="74.7" cy="394.8" r="37.3" fill="#1f3f77"></circle><path fill="#0a2751" d="M94.9,380c0,0.1,0,0.3,0,0.4c-1.3,18.4-16.2,33.2-34.5,34.5c-0.1,0-0.3,0-0.4,0
			c-6.8,0.4-8.8,9.4-2.8,12.7c6,3.2,13,4.8,20.4,4.3c18.3-1.3,33-16.1,34.4-34.4c0.5-7.4-1.1-14.4-4.3-20.4
			C104.4,371.2,95.3,373.1,94.9,380z"></path><circle cx="74.7" cy="394.8" r="14.1" fill="#0a2751"></circle><circle cx="237.7" cy="394.8" r="37.3" fill="#1f3f77"></circle><circle cx="237.7" cy="394.8" r="14.1" fill="#0a2751"></circle><path fill="#0a2751" d="M257.9,380c0,0.1,0,0.3,0,0.4c-1.3,18.4-16.2,33.2-34.5,34.5c-0.1,0-0.3,0-0.4,0
			c-6.8,0.4-8.8,9.4-2.8,12.7c6,3.2,13,4.8,20.4,4.3c18.3-1.3,33-16.1,34.4-34.4c0.5-7.4-1.1-14.4-4.3-20.4
			C267.4,371.2,258.3,373.1,257.9,380z"></path><rect width="216" height="10" x="296" y="390" fill="#1f3f77"></rect><g><rect width="10" height="53.4" x="174.8" y="229.1" fill="#1f3f77" transform="rotate(44.996 179.823 255.818)"></rect></g></svg>