<svg xmlns="http://www.w3.org/2000/svg" xmlns:xlink="http://www.w3.org/1999/xlink" viewBox="0 0 64 64" id="warehouse"><defs><linearGradient id="c" x1="32" x2="32" y1="53" y2="11" gradientUnits="userSpaceOnUse"><stop offset="0" stop-color="#838383"></stop><stop offset="1" stop-color="#a1a1a1"></stop></linearGradient><linearGradient id="d" x1="32" x2="32" y1="6.28" y2="30.5" gradientUnits="userSpaceOnUse"><stop offset="0" stop-color="#cf1d37"></stop><stop offset="1" stop-color="#cf0018"></stop></linearGradient><linearGradient id="a" x1="32" x2="32" y1="53" y2="31" gradientUnits="userSpaceOnUse"><stop offset="0" stop-color="#002237"></stop><stop offset="1" stop-color="#003352"></stop></linearGradient><linearGradient id="b" x1="44" x2="44" y1="37" y2="46" gradientUnits="userSpaceOnUse"><stop offset="0" stop-color="#ce7f20"></stop><stop offset="1" stop-color="#b2500d"></stop></linearGradient><linearGradient id="e" x1="25.5" x2="38.5" y1="25" y2="25" xlink:href="#a"></linearGradient><linearGradient id="f" x1="34" x2="34" y1="44" y2="53" xlink:href="#b"></linearGradient><linearGradient id="g" x1="44" x2="44" y1="44" y2="53" gradientUnits="userSpaceOnUse"><stop offset="0" stop-color="#ffc033"></stop><stop offset="1" stop-color="#ef8e2e"></stop></linearGradient></defs><g data-name="Layer 2"><path fill="url(#c)" d="M56.53,26.15l-24-15a1,1,0,0,0-1.06,0l-24,15A1,1,0,0,0,7,27V52a1,1,0,0,0,1,1H56a1,1,0,0,0,1-1V27A1,1,0,0,0,56.53,26.15Z"></path><path fill="url(#d)" d="M60.53,23.94l-28-17.5a1,1,0,0,0-1.06,0l-28,17.5a1,1,0,0,0-.47.84V29.5a1,1,0,0,0,1.53.85L32,13.18,59.47,30.35A1,1,0,0,0,61,29.5V24.78A1,1,0,0,0,60.53,23.94Z"></path><rect width="36" height="22" x="14" y="31" fill="url(#a)" rx="1"></rect><rect width="12" height="9" x="38" y="37" fill="url(#b)" rx="1"></rect><rect width="13" height="2" x="25.5" y="24" fill="url(#e)"></rect><rect width="12" height="9" x="28" y="44" fill="url(#f)" rx="1"></rect><rect width="12" height="9" x="38" y="44" fill="url(#g)" rx="1"></rect></g></svg>