<svg xmlns="http://www.w3.org/2000/svg" enable-background="new 0 0 64 64" viewBox="0 0 64 64" id="planning"><path fill="#2d2d2d" d="M54.51,40.09c-0.54,0-0.97-0.43-0.97-0.97v-6.15H10.46v6.15c0,0.54-0.43,0.97-0.97,0.97
		c-0.54,0-0.97-0.43-0.97-0.97V32c0-0.54,0.43-0.97,0.97-0.97h45.03c0.54,0,0.97,0.43,0.97,0.97v7.12
		C55.48,39.66,55.05,40.09,54.51,40.09z"></path><path fill="#2d2d2d" d="M31.64,40.09c-0.54,0-0.97-0.43-0.97-0.97V24.88c0-0.54,0.43-0.97,0.97-0.97c0.54,0,0.97,0.43,0.97,0.97v14.24
		C32.61,39.66,32.18,40.09,31.64,40.09z"></path><path fill="red" d="M31.64 57.12c-5.23 0-9.49-4.26-9.49-9.49s4.26-9.49 9.49-9.49 9.49 4.26 9.49 9.49S36.87 57.12 31.64 57.12zM31.64 40.09c-4.16 0-7.55 3.39-7.55 7.55s3.39 7.55 7.55 7.55 7.55-3.39 7.55-7.55S35.8 40.09 31.64 40.09zM9.49 57.12C4.26 57.12 0 52.87 0 47.64s4.26-9.49 9.49-9.49 9.49 4.26 9.49 9.49S14.72 57.12 9.49 57.12zM9.49 40.09c-4.16 0-7.55 3.39-7.55 7.55s3.39 7.55 7.55 7.55 7.55-3.39 7.55-7.55S13.65 40.09 9.49 40.09zM54.51 57.12c-5.23 0-9.49-4.26-9.49-9.49s4.26-9.49 9.49-9.49S64 42.41 64 47.64 59.74 57.12 54.51 57.12zM54.51 40.09c-4.16 0-7.55 3.39-7.55 7.55s3.39 7.55 7.55 7.55c4.16 0 7.55-3.39 7.55-7.55S58.68 40.09 54.51 40.09zM31.64 25.85c-5.23 0-9.49-4.26-9.49-9.49s4.26-9.49 9.49-9.49 9.49 4.26 9.49 9.49S36.87 25.85 31.64 25.85zM31.64 8.82c-4.16 0-7.55 3.39-7.55 7.55s3.39 7.55 7.55 7.55 7.55-3.39 7.55-7.55S35.8 8.82 31.64 8.82z"></path></svg>