<svg xmlns="http://www.w3.org/2000/svg" viewBox="0 0 64 64" id="maintenance"><g data-name="Layer 2"><path fill="#ffbd5a" d="M15,7V33a4,4,0,0,0,4,4H43.1993a4,4,0,0,1,2.3527.7651L54.6473,44.38A4,4,0,0,0,61,41.1449V7a4,4,0,0,0-4-4H19A4,4,0,0,0,15,7Z"></path><path fill="#e4ad5d" d="M19,3a4,4,0,0,0-4,4V33a4,4,0,0,0,4,4H43.1993a3.9993,3.9993,0,0,1,2.346.7609C45.8411,37.2792,46,37,46,37c-7,0-5-11-10-16s-14,3-15-8A12.1051,12.1051,0,0,1,24.3035,3Z"></path><path fill="#e4ad5d" d="M61,41.1449v-.789C57.5993,45.9473,51.4783,37,51.4783,37h-8.279a4,4,0,0,1,2.3526.765L54.6473,44.38A4,4,0,0,0,61,41.1449Z"></path><path fill="#603913" d="M14,7V33a5.0059,5.0059,0,0,0,5,5H43.1992a2.9831,2.9831,0,0,1,1.7647.5737L54.06,45.1885A5,5,0,0,0,62,41.145V7a5.0059,5.0059,0,0,0-5-5H19A5.0059,5.0059,0,0,0,14,7Zm2,0a3.0033,3.0033,0,0,1,3-3H57a3.0033,3.0033,0,0,1,3,3V41.145a3,3,0,0,1-4.7646,2.4263L47.5745,38H53a1,1,0,0,0,0-2H19a3.0033,3.0033,0,0,1-3-3Z"></path><path fill="#603913" d="M53 12H49a1 1 0 010-2h4a1 1 0 010 2zM44.9834 12H29a1 1 0 010-2H44.9834a1 1 0 010 2zM25 12H23a1 1 0 010-2h2a1 1 0 010 2zM53 18H52a1 1 0 010-2h1a1 1 0 010 2zM25 24H23a1 1 0 010-2h2a1 1 0 010 2zM42 30H39a1 1 0 010-2h3a1 1 0 010 2zM48 18H42a1 1 0 010-2h6a1 1 0 010 2zM38 18H23a1 1 0 010-2H38a1 1 0 010 2zM53 24H37a1 1 0 010-2H53a1 1 0 010 2zM53 30H46a1 1 0 010-2h7a1 1 0 010 2z"></path><path fill="#8dc1f3" d="M41.83,40.17A4.0251,4.0251,0,0,0,39,39H37.44a14.9177,14.9177,0,0,0-3.97-6.72l.75-1.36a3.9988,3.9988,0,0,0-7.01-3.85l-.75,1.36a14.4619,14.4619,0,0,0-6.92,0l-.75-1.36A4.0046,4.0046,0,0,0,11.28,29a3.9318,3.9318,0,0,0,.5,1.92l.75,1.36A14.9177,14.9177,0,0,0,8.56,39H7a4,4,0,1,0,0,8H8.56a14.9177,14.9177,0,0,0,3.97,6.72l-.75,1.35a4.0012,4.0012,0,0,0,7.01,3.86l.75-1.36a14.4619,14.4619,0,0,0,6.92,0l.75,1.36a4.0012,4.0012,0,1,0,7.01-3.86l-.75-1.35A14.9177,14.9177,0,0,0,37.44,47H39a4.0022,4.0022,0,0,0,2.83-6.83ZM23,48.99A5.99,5.99,0,1,1,29,43,5.9962,5.9962,0,0,1,23,48.99Z"></path><path fill="#7eaada" d="M43,43a3.9946,3.9946,0,0,0-4-4H37.44a14.9177,14.9177,0,0,0-3.97-6.72l.75-1.36a3.9988,3.9988,0,0,0-7.01-3.85l-.75,1.36a14.4619,14.4619,0,0,0-6.92,0l-.75-1.36a4,4,0,0,0-3.7063-2.0488C14.5033,26.8,14.559,30.6494,17,32c5,2.7663,12-1,15,4s-1,8,0,11-1,7-6,6c-4.7161-.9432-13.8746,2.5629-10.704,7.999A4.01,4.01,0,0,0,18.79,58.93l.75-1.36a14.4619,14.4619,0,0,0,6.92,0l.75,1.36a4.0012,4.0012,0,1,0,7.01-3.86l-.75-1.35A14.9177,14.9177,0,0,0,37.44,47H39A3.9989,3.9989,0,0,0,43,43Z"></path><path fill="#603913" d="M15.28,62a4.9978,4.9978,0,0,1-4.376-7.4131l.3906-.7021A15.9641,15.9641,0,0,1,7.8164,48H7A5,5,0,0,1,7,38h.8164a15.9606,15.9606,0,0,1,3.4805-5.8867l-.3926-.711a4.9766,4.9766,0,0,1,1.9668-6.78,5.0145,5.0145,0,0,1,6.7939,1.9638l.3926.712a15.2175,15.2175,0,0,1,5.8848,0l.3916-.711a5.0013,5.0013,0,0,1,6.8027-1.9609,4.9827,4.9827,0,0,1,1.9571,6.7793l-.3907.708A15.9606,15.9606,0,0,1,38.1836,38H39a5.0081,5.0081,0,0,1,3.5322,1.458l.01.01A5.0022,5.0022,0,0,1,39,48h-.8164a15.9641,15.9641,0,0,1-3.4785,5.8848l.3887.7a5.0009,5.0009,0,0,1-8.7588,4.8291l-.3926-.712a15.2175,15.2175,0,0,1-5.8848,0l-.3916.711A5.0156,5.0156,0,0,1,15.28,62ZM7,40a3,3,0,1,0,0,6H8.56a1,1,0,0,1,.9648.7354,13.9477,13.9477,0,0,0,3.7051,6.27,1,1,0,0,1,.1748,1.2l-.75,1.3506A3.0023,3.0023,0,0,0,15.28,60a3.012,3.012,0,0,0,2.6347-1.5547l.7491-1.3584a1,1,0,0,1,1.1035-.49,13.5524,13.5524,0,0,0,6.4648,0,1,1,0,0,1,1.1035.49l.75,1.3594A3.0115,3.0115,0,0,0,32.167,59.624a2.9881,2.9881,0,0,0,1.18-4.0664l-.751-1.3525a1,1,0,0,1,.1748-1.2,13.9477,13.9477,0,0,0,3.7051-6.27A1,1,0,0,1,37.44,46H39a3,3,0,1,0,0-6H37.44a1,1,0,0,1-.9648-.7354,13.9477,13.9477,0,0,0-3.7051-6.27,1,1,0,0,1-.1767-1.1972l.75-1.36A2.9984,2.9984,0,0,0,30.72,26a3.012,3.012,0,0,0-2.6347,1.5547l-.7491,1.3584a1,1,0,0,1-1.1035.49,13.5524,13.5524,0,0,0-6.4648,0,1,1,0,0,1-1.1035-.49l-.75-1.3594A3.0042,3.0042,0,0,0,12.28,29a2.9132,2.9132,0,0,0,.374,1.4336l.7519,1.3643a1,1,0,0,1-.1767,1.1972,13.9477,13.9477,0,0,0-3.7051,6.27A1,1,0,0,1,8.56,40Zm16,9.99A6.99,6.99,0,1,1,30,43,7.0032,7.0032,0,0,1,23,49.99Zm0-11.98A4.99,4.99,0,1,0,28,43,5.0006,5.0006,0,0,0,23,38.01Z"></path></g></svg>