<svg xmlns="http://www.w3.org/2000/svg" xmlns:xlink="http://www.w3.org/1999/xlink" width="53.801" height="53.262" viewBox="0 0 53.801 53.262"><defs><style>.a{fill:url(#a);}</style><linearGradient id="a" x1="0.5" x2="0.5" y2="1" gradientUnits="objectBoundingBox"><stop offset="0" stop-color="#6055e0"/><stop offset="1" stop-color="#0ed7ce"/></linearGradient></defs><g transform="translate(-1 -1)"><path class="a" d="M42.96,25.677l-.608-1.625c-.544.2-1.1.39-1.641.555l.5,1.661C41.793,26.093,42.381,25.894,42.96,25.677Z" transform="translate(-5.251 -3.048)"/><path class="a" d="M36.736,29.609V27.277c.644-.1,1.29-.23,1.932-.377l-.391-1.691c-.837.194-1.684.347-2.52.457l-.756.1V29.61c0,.233.005.464.017.7l1.734-.089c-.01-.2-.016-.4-.016-.607Z" transform="translate(-4.496 -3.201)"/><path class="a" d="M18.207,13a5.207,5.207,0,1,0,5.207,5.207A5.212,5.212,0,0,0,18.207,13Zm0,8.678a3.471,3.471,0,1,1,3.471-3.471A3.475,3.475,0,0,1,18.207,21.678Z" transform="translate(-1.587 -1.587)"/><path class="a" d="M43.563,18.754l-.414-.225-.414.225A23.192,23.192,0,0,1,31.863,21.54L31,21.545v7.181A18.01,18.01,0,0,0,42.853,45.607l.3.107.3-.107A18.01,18.01,0,0,0,55.3,28.726V21.545l-.863-.005a23.2,23.2,0,0,1-10.871-2.786Zm10,9.972A16.269,16.269,0,0,1,43.149,43.864,16.271,16.271,0,0,1,32.736,28.726V23.255A24.948,24.948,0,0,0,43.149,20.5a24.951,24.951,0,0,0,10.412,2.757Z" transform="translate(-3.967 -2.318)"/><path class="a" d="M40.416,30.793l-3.83,3.83,5.566,5.566L52.924,29.416l-3.83-3.83-6.942,6.942ZM50.47,29.416l-8.318,8.318L39.04,34.623l1.376-1.376,1.736,1.736,6.942-6.942Z" transform="translate(-4.706 -3.251)"/><path class="a" d="M54.8,15.752h-4.19a19.649,19.649,0,0,1-10.953-3.329l-.509-.3-.478.318a19.615,19.615,0,0,1-6.431,2.785v-1.9l-2.287-.538a13.793,13.793,0,0,0-1.2-2.891l1.237-2L25.338,3.247l-2,1.237a13.793,13.793,0,0,0-2.891-1.2L19.91,1H13.329l-.538,2.287A13.793,13.793,0,0,0,9.9,4.485l-2-1.237L3.248,7.9l1.237,2a13.793,13.793,0,0,0-1.2,2.891L1,13.329V19.91l2.287.538a13.793,13.793,0,0,0,1.2,2.891l-1.237,2L7.9,29.992l2-1.237a13.793,13.793,0,0,0,2.891,1.2l.538,2.287H19.91l.538-2.287a13.793,13.793,0,0,0,2.891-1.2l.4.247a21.473,21.473,0,0,0,4.118,10.222l-2.919,10.7,4.285-1.072,3.243,5.405,2.91-8.729a21.126,21.126,0,0,0,3.561,1.422l.245.073.245-.072a21.125,21.125,0,0,0,3.561-1.422l2.91,8.729,3.243-5.405,4.285,1.072-2.919-10.7a21.4,21.4,0,0,0,4.3-12.817ZM23.359,26.726,22.9,27a12.044,12.044,0,0,1-3.387,1.4L19,28.531,18.536,30.5H14.7l-.464-1.972-.517-.127A12.044,12.044,0,0,1,10.335,27l-.454-.276L8.158,27.792l-2.71-2.71,1.066-1.723L6.239,22.9a12.044,12.044,0,0,1-1.4-3.387L4.709,19l-1.973-.465V14.7l1.972-.464.127-.517a12.044,12.044,0,0,1,1.4-3.387l.276-.454L5.447,8.157l2.71-2.71L9.881,6.514l.454-.276a12.044,12.044,0,0,1,3.387-1.4l.517-.127L14.7,2.736h3.832L19,4.708l.517.127a12.044,12.044,0,0,1,3.387,1.4l.454.276,1.723-1.066,2.71,2.71L26.725,9.881l.276.454a12.044,12.044,0,0,1,1.4,3.387l.127.517L30.5,14.7v.852a19.874,19.874,0,0,1-2.752.2h-.764a10.419,10.419,0,1,0-3.427,8.619v2.038c0,.153.016.3.019.455Zm.2-10.974v6.056a8.666,8.666,0,1,1,1.691-6.056Zm8.451,34.382-1.964-3.272-2.657.664,1.821-6.68a21.5,21.5,0,0,0,4.62,3.826Zm18.958-2.608-2.657-.664L46.35,50.133l-1.821-5.463a21.5,21.5,0,0,0,4.62-3.826Zm2.095-21.117a19.8,19.8,0,0,1-13.884,18.81A19.8,19.8,0,0,1,25.3,26.408V17.487h2.455a21.358,21.358,0,0,0,11.428-3.3,21.338,21.338,0,0,0,11.43,3.3h2.455Z"/></g></svg>