<?xml version="1.0" encoding="utf-8"?>
<!-- Generator: Adobe Illustrator 16.0.0, SVG Export Plug-In . SVG Version: 6.00 Build 0)  -->
<!DOCTYPE svg PUBLIC "-//W3C//DTD SVG 1.1//EN" "http://www.w3.org/Graphics/SVG/1.1/DTD/svg11.dtd">
<svg version="1.1" id="Layer_1" xmlns="http://www.w3.org/2000/svg" xmlns:xlink="http://www.w3.org/1999/xlink" x="0px" y="0px"
	 width="26.71px" height="26.711px" viewBox="0 0 26.71 26.711" enable-background="new 0 0 26.71 26.711" xml:space="preserve">
<g transform="translate(0)">
	<linearGradient id="SVGID_1_" gradientUnits="userSpaceOnUse" x1="4.3091" y1="10.3389" x2="4.3091" y2="4.7393">
		<stop  offset="0" style="stop-color:#0ED7CE"/>
		<stop  offset="1" style="stop-color:#6055E0"/>
	</linearGradient>
	<path fill="url(#SVGID_1_)" d="M6.032,9.478H2.586V5.601h1.292V4.739H1.724v5.6h5.17V7.755H6.032V9.478z"/>
	<linearGradient id="SVGID_2_" gradientUnits="userSpaceOnUse" x1="5.3857" y1="8.3628" x2="5.3857" y2="4.4341">
		<stop  offset="0" style="stop-color:#0ED7CE"/>
		<stop  offset="1" style="stop-color:#6055E0"/>
	</linearGradient>
	<path fill="url(#SVGID_2_)" d="M4.309,7.145L3.752,6.588L3.143,7.197l1.166,1.166l3.32-3.32L7.02,4.434L4.309,7.145z"/>
	<linearGradient id="SVGID_3_" gradientUnits="userSpaceOnUse" x1="17.6636" y1="24.9863" x2="17.6636" y2="20.6787">
		<stop  offset="0" style="stop-color:#0ED7CE"/>
		<stop  offset="1" style="stop-color:#6055E0"/>
	</linearGradient>
	<path fill="url(#SVGID_3_)" d="M17.664,20.679c-1.189,0-2.154,0.965-2.154,2.154s0.965,2.153,2.154,2.153s2.154-0.964,2.154-2.153
		l0,0C19.816,21.645,18.853,20.681,17.664,20.679z M17.664,24.125c-0.713,0-1.291-0.578-1.291-1.292s0.578-1.292,1.291-1.292
		c0.714,0,1.293,0.578,1.293,1.292l0,0C18.956,23.547,18.377,24.125,17.664,24.125L17.664,24.125z"/>
	<linearGradient id="SVGID_4_" gradientUnits="userSpaceOnUse" x1="13.356" y1="26.7178" x2="13.356" y2="4.882813e-004">
		<stop  offset="0" style="stop-color:#0ED7CE"/>
		<stop  offset="1" style="stop-color:#6055E0"/>
	</linearGradient>
	<path fill="url(#SVGID_4_)" d="M25.489,2.591L20.783,1.65l-1.949,8.658L9.478,8.435V0h-6.64L0,2.837v9.226h4.748l-1.223,5.625
		c-0.543,0.1-0.979,0.508-1.113,1.045l-0.219,0.873c-0.178,0.715,0.257,1.439,0.972,1.617c0.026,0.007,0.052,0.012,0.079,0.018
		L13.8,23.195c0.196,2.131,2.082,3.701,4.213,3.506s3.701-2.081,3.506-4.213c-0.044-0.485-0.18-0.958-0.398-1.393l2.162-9.519
		l-1.38-2.738l0.841-3.677l2.049,0.41c0.098,0.02,0.199,0.03,0.299,0.03h0.101c0.839,0,1.521-0.681,1.52-1.521
		c0-0.724-0.511-1.347-1.22-1.49L25.489,2.591z M11.46,9.711l1.307,0.261l-0.578,2.021l-1.307-0.261L11.46,9.711z M13.614,10.142
		l1.308,0.261l-0.578,2.021l-1.307-0.261L13.614,10.142z M2.585,1.471v1.114H1.471L2.585,1.471z M0.862,3.447h2.585V0.862h5.17V11.2
		H0.862V3.447z M9.478,12.063V9.314l1.134,0.227L9.8,12.394l5.155,1.031l0.815-2.853l2.877,0.576l-1.776,7.89
		c-0.645,0.136-1.244,0.435-1.74,0.866L4.392,17.758l1.238-5.7L9.478,12.063z M3.016,19.93c0-0.039,0.004-0.078,0.014-0.115
		l0.218-0.873c0.077-0.279,0.355-0.453,0.64-0.399l10.572,2.115c-0.341,0.499-0.559,1.072-0.637,1.672L3.4,20.393
		c-0.224-0.041-0.386-0.236-0.386-0.463H3.016z M17.664,25.85c-1.665,0-3.016-1.352-3.016-3.017s1.351-3.017,3.016-3.017
		c1.666,0,3.017,1.352,3.017,3.017C20.678,24.498,19.33,25.848,17.664,25.85z M19.492,19.415l0.564-2.472l1.081,0.217l-0.679,2.99
		C20.176,19.856,19.85,19.608,19.492,19.415L19.492,19.415z M20.96,12.989l1.074,0.215l-0.707,3.116l-1.08-0.221L20.96,12.989z
		 M22.38,11.689l-0.154,0.676l-1.074-0.215l0.456-1.994L22.38,11.689z M18.68,19.098c-0.297-0.082-0.603-0.127-0.909-0.135
		L20.957,4.8l0.946,0.19L18.68,19.098z M25.191,4.739h-0.1c-0.043,0-0.087-0.004-0.129-0.013l-3.821-0.764l0.293-1.3l3.882,0.776
		c0.355,0.079,0.578,0.431,0.499,0.786c-0.065,0.295-0.325,0.507-0.627,0.514L25.191,4.739z"/>
</g>
</svg>
