<svg xmlns="http://www.w3.org/2000/svg" width="18.132" height="20.096" viewBox="0 0 18.132 20.096"><defs><style>.a{fill:#f3f3f3;}</style></defs><g transform="translate(-0.5 0)"><path class="a" d="M17.945,0H6.6a.688.688,0,0,0-.687.687v7.53l-3.591-4A.584.584,0,0,0,1.5,4.175L.693,4.9a.585.585,0,0,0-.044.825l5.073,5.647a.582.582,0,0,0,.2.142v4.544H4.773a.294.294,0,1,0,0,.589h8.116a.1.1,0,0,1,.1.1v.605a2.742,2.742,0,0,0,1.048,2.156H3.6A2.159,2.159,0,0,1,1.447,17.35v-.605a.1.1,0,0,1,.1-.1H3.491a.294.294,0,1,0,0-.589H1.545a.688.688,0,0,0-.687.687v.605A2.748,2.748,0,0,0,3.6,20.1H15.887a2.748,2.748,0,0,0,2.745-2.745V9.34a.294.294,0,0,0-.589,0V17.35a2.159,2.159,0,0,1-2.157,2.157h-.156a2.159,2.159,0,0,1-2.156-2.156v-.605a.688.688,0,0,0-.687-.687H6.506V11.728l.84.417a.468.468,0,0,0,.647-.582l-.451-1.221c0-.018,0-.036.006-.055A.58.58,0,0,0,7.4,9.866l-.893-.994V.687a.1.1,0,0,1,.1-.1H17.945a.1.1,0,0,1,.1.1V4.525a.294.294,0,0,0,.589,0V.687A.688.688,0,0,0,17.945,0ZM1.891,4.616l.35.389-.8.719-.35-.389ZM1.833,6.162,2.015,6l4.323,4.813-.181.163Zm4.947,5.044.34-.305.215.581Zm0-.787L2.453,5.606l.181-.163,4.323,4.813Zm0,0" transform="translate(0)"/><path class="a" d="M447.767,140.469a.294.294,0,0,0-.294.294v2.25a.294.294,0,1,0,.589,0v-2.25A.294.294,0,0,0,447.767,140.469Zm0,0" transform="translate(-429.429 -134.956)"/><path class="a" d="M189.519,150.605a1.007,1.007,0,1,0,1.007,1.007A1.008,1.008,0,0,0,189.519,150.605Zm0,1.426a.418.418,0,1,1,.419-.418A.419.419,0,0,1,189.519,152.031Zm0,0" transform="translate(-180.632 -144.694)"/><path class="a" d="M255.192,170.968h1.442a.294.294,0,1,0,0-.589h-1.442a.294.294,0,0,0,0,.589Zm0,0" transform="translate(-244.413 -163.692)"/><path class="a" d="M260.221,188.355h-5.028a.294.294,0,1,0,0,.589h5.028a.294.294,0,0,0,0-.589Zm0,0" transform="translate(-244.414 -180.962)"/><path class="a" d="M255.2,149.773h0a.294.294,0,0,0,0-.589h0a.294.294,0,0,0,0,.589Zm0,0" transform="translate(-244.417 -143.329)"/><path class="a" d="M189.519,229.832a1.007,1.007,0,1,0,1.007,1.007A1.008,1.008,0,0,0,189.519,229.832Zm0,1.426a.418.418,0,1,1,.419-.419A.419.419,0,0,1,189.519,231.258Zm0,0" transform="translate(-180.632 -220.811)"/><path class="a" d="M255.192,250.194h1.442a.294.294,0,1,0,0-.589h-1.442a.294.294,0,1,0,0,.589Zm0,0" transform="translate(-244.413 -239.808)"/><path class="a" d="M260.221,267.582h-5.028a.294.294,0,1,0,0,.589h5.028a.294.294,0,1,0,0-.589Zm0,0" transform="translate(-244.414 -257.08)"/><path class="a" d="M255.2,228.995h0a.294.294,0,0,0,0-.589h0a.294.294,0,0,0,0,.589Zm0,0" transform="translate(-244.417 -219.441)"/><path class="a" d="M189.519,309.059a1.007,1.007,0,1,0,1.007,1.007A1.008,1.008,0,0,0,189.519,309.059Zm0,1.426a.418.418,0,1,1,.419-.418A.419.419,0,0,1,189.519,310.485Zm0,0" transform="translate(-180.632 -296.929)"/><path class="a" d="M255.192,329.421h1.442a.294.294,0,0,0,0-.589h-1.442a.294.294,0,0,0,0,.589Zm0,0" transform="translate(-244.413 -315.926)"/><path class="a" d="M255.192,347.4h5.028a.294.294,0,1,0,0-.589h-5.028a.294.294,0,1,0,0,.589Zm0,0" transform="translate(-244.413 -333.197)"/><path class="a" d="M255.2,308.226h0a.294.294,0,0,0,0-.589h0a.294.294,0,0,0,0,.589Zm0,0" transform="translate(-244.417 -295.563)"/><path class="a" d="M200.293,49.287V47.58a.294.294,0,0,0-.294-.294h-7.947a.294.294,0,0,0-.294.294v1.707a.294.294,0,0,0,.294.294H200A.294.294,0,0,0,200.293,49.287Zm-.589-.294h-7.358V47.874H199.7Zm0,0" transform="translate(-183.75 -45.43)"/></g></svg>