<?xml version="1.0" encoding="utf-8"?>
<!-- Generator: Adobe Illustrator 16.0.0, SVG Export Plug-In . SVG Version: 6.00 Build 0)  -->
<!DOCTYPE svg PUBLIC "-//W3C//DTD SVG 1.1//EN" "http://www.w3.org/Graphics/SVG/1.1/DTD/svg11.dtd">
<svg version="1.1" id="Layer_1" xmlns="http://www.w3.org/2000/svg" xmlns:xlink="http://www.w3.org/1999/xlink" x="0px" y="0px"
	 width="18.132px" height="20.096px" viewBox="0 0 18.132 20.096" enable-background="new 0 0 18.132 20.096" xml:space="preserve">
<g transform="translate(-0.5 0)">
	<linearGradient id="SVGID_1_" gradientUnits="userSpaceOnUse" x1="9.5674" y1="20.0999" x2="9.5674" y2="7.324219e-004">
		<stop  offset="0" style="stop-color:#0ED7CE"/>
		<stop  offset="1" style="stop-color:#6055E0"/>
	</linearGradient>
	<path fill="url(#SVGID_1_)" d="M17.945,0H6.6C6.221,0,5.914,0.308,5.913,0.687v7.53l-3.591-4C2.106,3.98,1.739,3.961,1.5,4.175
		L0.693,4.9C0.454,5.115,0.434,5.485,0.649,5.725l5.073,5.647c0.056,0.061,0.124,0.109,0.2,0.142v4.544H4.773
		c-0.163,0-0.294,0.132-0.294,0.295c0,0.162,0.132,0.294,0.294,0.294h8.116c0.056,0,0.1,0.045,0.1,0.101l0,0v0.604
		c0.001,0.842,0.387,1.637,1.048,2.156H3.6c-1.19-0.003-2.152-0.969-2.153-2.158v-0.604c0-0.056,0.045-0.101,0.1-0.101l0,0h1.944
		c0.163,0,0.294-0.132,0.294-0.294c0-0.163-0.132-0.295-0.294-0.295l0,0H1.545c-0.379,0.001-0.687,0.308-0.687,0.688v0.604
		C0.856,18.865,2.083,20.097,3.6,20.1h12.287c1.515-0.002,2.743-1.229,2.745-2.745V9.34c0-0.163-0.133-0.295-0.295-0.295
		s-0.295,0.132-0.295,0.295l0,0v8.01c0,1.191-0.966,2.156-2.156,2.157H15.73c-1.189-0.002-2.154-0.966-2.156-2.156v-0.604
		c0-0.38-0.308-0.687-0.687-0.688H6.506v-4.331l0.84,0.417c0.231,0.115,0.512,0.021,0.627-0.211c0.058-0.115,0.065-0.25,0.02-0.371
		l-0.451-1.221c0-0.018,0-0.036,0.006-0.055C7.557,10.132,7.503,9.981,7.4,9.866L6.507,8.872V0.687c0-0.055,0.045-0.1,0.1-0.1
		h11.338c0.055,0,0.1,0.045,0.1,0.1l0,0v3.838c0,0.163,0.133,0.295,0.295,0.295s0.295-0.132,0.295-0.295V0.687
		C18.633,0.307,18.326-0.001,17.945,0L17.945,0z M1.891,4.616l0.35,0.389l-0.8,0.719l-0.35-0.389L1.891,4.616z M1.833,6.162L2.015,6
		l4.323,4.813l-0.181,0.163L1.833,6.162z M6.78,11.206l0.34-0.306l0.215,0.581L6.78,11.206z M6.78,10.419L2.453,5.606l0.181-0.163
		l4.323,4.813L6.78,10.419z"/>
	<linearGradient id="SVGID_2_" gradientUnits="userSpaceOnUse" x1="18.3384" y1="8.3518" x2="18.3384" y2="5.5129">
		<stop  offset="0" style="stop-color:#0ED7CE"/>
		<stop  offset="1" style="stop-color:#6055E0"/>
	</linearGradient>
	<path fill="url(#SVGID_2_)" d="M18.337,5.513c-0.162,0-0.293,0.132-0.293,0.294l0,0v2.25c0,0.163,0.131,0.295,0.294,0.295
		s0.294-0.132,0.294-0.295l0,0v-2.25c0-0.162-0.131-0.294-0.293-0.294C18.339,5.513,18.338,5.513,18.337,5.513z"/>
	<linearGradient id="SVGID_3_" gradientUnits="userSpaceOnUse" x1="8.8867" y1="7.925" x2="8.8867" y2="5.9114">
		<stop  offset="0" style="stop-color:#0ED7CE"/>
		<stop  offset="1" style="stop-color:#6055E0"/>
	</linearGradient>
	<path fill="url(#SVGID_3_)" d="M8.887,5.911c-0.556,0-1.007,0.45-1.007,1.007c0,0.556,0.451,1.007,1.007,1.007
		s1.007-0.451,1.007-1.007C9.894,6.363,9.443,5.911,8.887,5.911z M8.887,7.337C8.656,7.336,8.469,7.149,8.47,6.918
		c0-0.231,0.188-0.418,0.419-0.417c0.23,0,0.417,0.188,0.417,0.418C9.306,7.15,9.118,7.337,8.887,7.337z"/>
	<linearGradient id="SVGID_4_" gradientUnits="userSpaceOnUse" x1="11.4995" y1="7.2756" x2="11.4995" y2="6.6868">
		<stop  offset="0" style="stop-color:#0ED7CE"/>
		<stop  offset="1" style="stop-color:#6055E0"/>
	</linearGradient>
	<path fill="url(#SVGID_4_)" d="M10.779,7.276h1.442c0.163,0,0.294-0.132,0.294-0.294c0-0.163-0.131-0.295-0.294-0.295h-1.442
		c-0.162,0-0.295,0.132-0.295,0.295C10.484,7.144,10.617,7.276,10.779,7.276z"/>
	<linearGradient id="SVGID_5_" gradientUnits="userSpaceOnUse" x1="13.2925" y1="7.9817" x2="13.2925" y2="7.3928">
		<stop  offset="0" style="stop-color:#0ED7CE"/>
		<stop  offset="1" style="stop-color:#6055E0"/>
	</linearGradient>
	<path fill="url(#SVGID_5_)" d="M15.807,7.393h-5.028c-0.162,0-0.295,0.132-0.295,0.295c0,0.162,0.133,0.294,0.295,0.294h5.028
		c0.163,0,0.294-0.132,0.294-0.294C16.101,7.525,15.97,7.393,15.807,7.393z"/>
	<linearGradient id="SVGID_6_" gradientUnits="userSpaceOnUse" x1="10.7827" y1="6.4436" x2="10.7827" y2="5.8547">
		<stop  offset="0" style="stop-color:#0ED7CE"/>
		<stop  offset="1" style="stop-color:#6055E0"/>
	</linearGradient>
	<path fill="url(#SVGID_6_)" d="M10.783,6.444L10.783,6.444c0.163,0,0.295-0.132,0.295-0.294c0-0.163-0.132-0.295-0.295-0.295l0,0
		c-0.162,0-0.295,0.132-0.295,0.295C10.488,6.312,10.621,6.444,10.783,6.444z"/>
	<linearGradient id="SVGID_7_" gradientUnits="userSpaceOnUse" x1="8.8867" y1="11.0354" x2="8.8867" y2="9.0212">
		<stop  offset="0" style="stop-color:#0ED7CE"/>
		<stop  offset="1" style="stop-color:#6055E0"/>
	</linearGradient>
	<path fill="url(#SVGID_7_)" d="M8.887,9.021c-0.556,0-1.007,0.451-1.007,1.007c0,0.557,0.451,1.008,1.007,1.008
		s1.007-0.451,1.007-1.008C9.894,9.472,9.443,9.022,8.887,9.021z M8.887,10.447c-0.231,0-0.418-0.188-0.417-0.419
		c0-0.23,0.188-0.417,0.419-0.417c0.23,0.001,0.417,0.188,0.417,0.417C9.306,10.259,9.118,10.447,8.887,10.447L8.887,10.447z"/>
	<linearGradient id="SVGID_8_" gradientUnits="userSpaceOnUse" x1="11.4995" y1="10.386" x2="11.4995" y2="9.7971">
		<stop  offset="0" style="stop-color:#0ED7CE"/>
		<stop  offset="1" style="stop-color:#6055E0"/>
	</linearGradient>
	<path fill="url(#SVGID_8_)" d="M10.779,10.386h1.442c0.163,0,0.294-0.132,0.294-0.295c0-0.162-0.131-0.294-0.294-0.294h-1.442
		c-0.162,0-0.295,0.132-0.295,0.294C10.484,10.254,10.617,10.386,10.779,10.386z"/>
	<linearGradient id="SVGID_9_" gradientUnits="userSpaceOnUse" x1="13.2925" y1="11.0911" x2="13.2925" y2="10.5027">
		<stop  offset="0" style="stop-color:#0ED7CE"/>
		<stop  offset="1" style="stop-color:#6055E0"/>
	</linearGradient>
	<path fill="url(#SVGID_9_)" d="M15.807,10.502h-5.028c-0.162,0-0.295,0.132-0.295,0.294c0,0.163,0.133,0.295,0.295,0.295h5.028
		c0.163,0,0.294-0.132,0.294-0.295C16.101,10.634,15.97,10.502,15.807,10.502z"/>
	<linearGradient id="SVGID_10_" gradientUnits="userSpaceOnUse" x1="10.7827" y1="9.554" x2="10.7827" y2="8.9651">
		<stop  offset="0" style="stop-color:#0ED7CE"/>
		<stop  offset="1" style="stop-color:#6055E0"/>
	</linearGradient>
	<path fill="url(#SVGID_10_)" d="M10.783,9.554L10.783,9.554c0.163,0,0.295-0.132,0.295-0.294c0-0.163-0.132-0.295-0.295-0.295l0,0
		c-0.162,0-0.295,0.132-0.295,0.295C10.488,9.422,10.621,9.554,10.783,9.554z"/>
	<linearGradient id="SVGID_11_" gradientUnits="userSpaceOnUse" x1="8.8867" y1="14.1438" x2="8.8867" y2="12.1301">
		<stop  offset="0" style="stop-color:#0ED7CE"/>
		<stop  offset="1" style="stop-color:#6055E0"/>
	</linearGradient>
	<path fill="url(#SVGID_11_)" d="M8.887,12.13c-0.556,0-1.007,0.451-1.007,1.007c0,0.557,0.451,1.007,1.007,1.007
		s1.007-0.45,1.007-1.007l0,0C9.894,12.581,9.443,12.13,8.887,12.13z M8.887,13.556c-0.231,0-0.418-0.188-0.417-0.419
		c0-0.23,0.188-0.417,0.419-0.417c0.23,0.001,0.417,0.188,0.417,0.418C9.306,13.369,9.118,13.556,8.887,13.556z"/>
	<linearGradient id="SVGID_12_" gradientUnits="userSpaceOnUse" x1="11.4995" y1="13.4954" x2="11.4995" y2="12.9055">
		<stop  offset="0" style="stop-color:#0ED7CE"/>
		<stop  offset="1" style="stop-color:#6055E0"/>
	</linearGradient>
	<path fill="url(#SVGID_12_)" d="M10.779,13.495h1.442c0.163,0,0.294-0.132,0.294-0.295s-0.131-0.295-0.294-0.295h-1.442
		c-0.162,0-0.295,0.132-0.295,0.295S10.617,13.495,10.779,13.495z"/>
	<linearGradient id="SVGID_13_" gradientUnits="userSpaceOnUse" x1="13.2925" y1="14.2034" x2="13.2925" y2="13.6135">
		<stop  offset="0" style="stop-color:#0ED7CE"/>
		<stop  offset="1" style="stop-color:#6055E0"/>
	</linearGradient>
	<path fill="url(#SVGID_13_)" d="M10.779,14.203h5.028c0.163,0,0.294-0.132,0.294-0.295s-0.131-0.295-0.294-0.295h-5.028
		c-0.162,0-0.295,0.132-0.295,0.295S10.617,14.203,10.779,14.203z"/>
	<linearGradient id="SVGID_14_" gradientUnits="userSpaceOnUse" x1="10.7827" y1="12.6633" x2="10.7827" y2="12.0745">
		<stop  offset="0" style="stop-color:#0ED7CE"/>
		<stop  offset="1" style="stop-color:#6055E0"/>
	</linearGradient>
	<path fill="url(#SVGID_14_)" d="M10.783,12.663L10.783,12.663c0.163,0,0.295-0.132,0.295-0.295c0-0.162-0.132-0.294-0.295-0.294
		l0,0l0,0c-0.162,0-0.295,0.132-0.295,0.294C10.488,12.531,10.621,12.663,10.783,12.663z"/>
	<linearGradient id="SVGID_15_" gradientUnits="userSpaceOnUse" x1="12.2749" y1="4.1506" x2="12.2749" y2="1.8557">
		<stop  offset="0" style="stop-color:#0ED7CE"/>
		<stop  offset="1" style="stop-color:#6055E0"/>
	</linearGradient>
	<path fill="url(#SVGID_15_)" d="M16.542,3.857V2.15c0-0.162-0.131-0.294-0.293-0.294l0,0H8.302c-0.162,0-0.294,0.132-0.294,0.294
		l0,0v1.707c0,0.163,0.132,0.294,0.294,0.294l0,0h7.948C16.412,4.151,16.542,4.019,16.542,3.857z M15.955,3.563H8.596V2.444h7.354
		L15.955,3.563z"/>
</g>
</svg>
