<svg xmlns="http://www.w3.org/2000/svg" xmlns:xlink="http://www.w3.org/1999/xlink" version="1.1" width="1000" height="1000" viewBox="0 0 1000 1000" xml:space="preserve">
<desc>Created with Fabric.js 3.5.0</desc>
<defs>
</defs>
<rect x="0" y="0" width="100%" height="100%" fill="#ffffff"/>
<g transform="matrix(-1.7756 0 0 1.7756 500.0081 500.0081)" id="8118">
<g style="" vector-effect="non-scaling-stroke">
		<g transform="matrix(1 0 0 1 -222 -42.5)" id="forklift">
<rect style="stroke: none; stroke-width: 1; stroke-dasharray: none; stroke-linecap: butt; stroke-dashoffset: 0; stroke-linejoin: miter; stroke-miterlimit: 4; is-custom-font: none; font-file-url: none; fill: rgb(196,193,171); fill-rule: nonzero; opacity: 1;" x="-5" y="-70.5" rx="0" ry="0" width="10" height="141"/>
</g>
		<g transform="matrix(1 0 0 1 -222 -99.5)" id="forklift">
<rect style="stroke: none; stroke-width: 1; stroke-dasharray: none; stroke-linecap: butt; stroke-dashoffset: 0; stroke-linejoin: miter; stroke-miterlimit: 4; is-custom-font: none; font-file-url: none; fill: rgb(116,126,108); fill-rule: nonzero; opacity: 1;" x="-5" y="-13.5" rx="0" ry="0" width="10" height="27"/>
</g>
		<g transform="matrix(1 0 0 1 -19.1 -31.4)" id="forklift">
<path style="stroke: none; stroke-width: 1; stroke-dasharray: none; stroke-linecap: butt; stroke-dashoffset: 0; stroke-linejoin: miter; stroke-miterlimit: 4; is-custom-font: none; font-file-url: none; fill: rgb(196,193,171); fill-rule: nonzero; opacity: 1;" transform=" translate(-236.9, -224.6)" d="M 280 313 h -10 v -43.1 l -76.2 -128.6 l 8.6 -5.1 L 279.3 266 c 0.5 0.8 0.7 1.7 0.7 2.5 V 313 z" stroke-linecap="round"/>
</g>
		<g transform="matrix(1 0 0 1 -47.9 -102.9)" id="forklift">
<polygon style="stroke: none; stroke-width: 1; stroke-dasharray: none; stroke-linecap: butt; stroke-dashoffset: 0; stroke-linejoin: miter; stroke-miterlimit: 4; is-custom-font: none; font-file-url: none; fill: rgb(116,126,108); fill-rule: nonzero; opacity: 1;" points="-5.7,-16.9 -14.3,-11.8 2.7,16.9 14.3,16.9 "/>
</g>
		<g transform="matrix(0.7071 0.7071 -0.7071 0.7071 -59.0455 16.9251)" id="forklift">
<rect style="stroke: none; stroke-width: 1; stroke-dasharray: none; stroke-linecap: butt; stroke-dashoffset: 0; stroke-linejoin: miter; stroke-miterlimit: 4; is-custom-font: none; font-file-url: none; fill: rgb(31,63,119); fill-rule: nonzero; opacity: 1;" x="-24.15" y="-5" rx="0" ry="0" width="48.3" height="10"/>
</g>
		<g transform="matrix(0.7071 0.7071 -0.7071 0.7071 -71.5749 4.3914)" id="forklift">
<rect style="stroke: none; stroke-width: 1; stroke-dasharray: none; stroke-linecap: butt; stroke-dashoffset: 0; stroke-linejoin: miter; stroke-miterlimit: 4; is-custom-font: none; font-file-url: none; fill: rgb(10,39,81); fill-rule: nonzero; opacity: 1;" x="-6.5" y="-5" rx="0" ry="0" width="13" height="10"/>
</g>
		<g transform="matrix(1 0 0 1 -156.4 -2.85)" id="forklift">
<path style="stroke: none; stroke-width: 1; stroke-dasharray: none; stroke-linecap: butt; stroke-dashoffset: 0; stroke-linejoin: miter; stroke-miterlimit: 4; is-custom-font: none; font-file-url: none; fill: rgb(31,63,119); fill-rule: nonzero; opacity: 1;" transform=" translate(-99.6, -253.15)" d="M 79.3 202.3 L 79.3 202.3 l 0 101.7 h 40.6 v -61.1 C 119.9 220.5 101.7 202.3 79.3 202.3 z" stroke-linecap="round"/>
</g>
		<g transform="matrix(1 0 0 1 -105.5 76)" id="forklift">
<polygon style="stroke: none; stroke-width: 1; stroke-dasharray: none; stroke-linecap: butt; stroke-dashoffset: 0; stroke-linejoin: miter; stroke-miterlimit: 4; is-custom-font: none; font-file-url: none; fill: rgb(219,51,40); fill-rule: nonzero; opacity: 1;" points="-55.4,-28 -71.2,-63 -145.5,-63 -145.5,-28 -145.5,62.8 -145.5,63 145.5,63 145.5,-28 "/>
</g>
		<g transform="matrix(1 0 0 1 -105.5 93.5)" id="forklift">
<path style="stroke: none; stroke-width: 1; stroke-dasharray: none; stroke-linecap: butt; stroke-dashoffset: 0; stroke-linejoin: miter; stroke-miterlimit: 4; is-custom-font: none; font-file-url: none; fill: rgb(181,16,11); fill-rule: nonzero; opacity: 1;" transform=" translate(-150.5, -349.5)" d="M 252 304 L 252 304 c 0 25.4 -20.6 46 -46 46 H 5 v 44.8 v 0.2 h 291 v -91 H 252 z" stroke-linecap="round"/>
</g>
		<g transform="matrix(1 0 0 1 -131.25 -113.1)" id="forklift">
<path style="stroke: none; stroke-width: 1; stroke-dasharray: none; stroke-linecap: butt; stroke-dashoffset: 0; stroke-linejoin: miter; stroke-miterlimit: 4; is-custom-font: none; font-file-url: none; fill: rgb(219,51,40); fill-rule: nonzero; opacity: 1;" transform=" translate(-124.75, -142.9)" d="M 222.9 157.7 H 26.6 c -8.2 0 -14.8 -6.6 -14.8 -14.8 v 0 c 0 -8.2 6.6 -14.8 14.8 -14.8 h 196.3 c 8.2 0 14.8 6.6 14.8 14.8 v 0 C 237.7 151 231.1 157.7 222.9 157.7 z" stroke-linecap="round"/>
</g>
		<g transform="matrix(1 0 0 1 55 -18.5)" id="forklift">
<rect style="stroke: none; stroke-width: 1; stroke-dasharray: none; stroke-linecap: butt; stroke-dashoffset: 0; stroke-linejoin: miter; stroke-miterlimit: 4; is-custom-font: none; font-file-url: none; fill: rgb(31,63,119); fill-rule: nonzero; opacity: 1;" x="-15" y="-157.5" rx="0" ry="0" width="30" height="315"/>
</g>
		<g transform="matrix(1 0 0 1 146.5 62.5)" id="forklift">
<rect style="stroke: none; stroke-width: 1; stroke-dasharray: none; stroke-linecap: butt; stroke-dashoffset: 0; stroke-linejoin: miter; stroke-miterlimit: 4; is-custom-font: none; font-file-url: none; fill: rgb(216,72,97); fill-rule: nonzero; opacity: 1;" x="-76.5" y="-76.5" rx="0" ry="0" width="153" height="153"/>
</g>
		<g transform="matrix(1 0 0 1 158.65 62.5)" id="forklift">
<rect style="stroke: none; stroke-width: 1; stroke-dasharray: none; stroke-linecap: butt; stroke-dashoffset: 0; stroke-linejoin: miter; stroke-miterlimit: 4; is-custom-font: none; font-file-url: none; fill: rgb(243,119,135); fill-rule: nonzero; opacity: 1;" x="-63.95" y="-76.5" rx="0" ry="0" width="127.9" height="153"/>
</g>
		<g transform="matrix(1 0 0 1 146.45 15.85)" id="forklift">
<rect style="stroke: none; stroke-width: 1; stroke-dasharray: none; stroke-linecap: butt; stroke-dashoffset: 0; stroke-linejoin: miter; stroke-miterlimit: 4; is-custom-font: none; font-file-url: none; fill: rgb(196,193,171); fill-rule: nonzero; opacity: 1;" x="-19.15" y="-29.85" rx="0" ry="0" width="38.3" height="59.7"/>
</g>
		<g transform="matrix(1 0 0 1 125.5 -69.5)" id="forklift">
<rect style="stroke: none; stroke-width: 1; stroke-dasharray: none; stroke-linecap: butt; stroke-dashoffset: 0; stroke-linejoin: miter; stroke-miterlimit: 4; is-custom-font: none; font-file-url: none; fill: rgb(49,121,175); fill-rule: nonzero; opacity: 1;" x="-55.5" y="-55.5" rx="0" ry="0" width="111" height="111"/>
</g>
		<g transform="matrix(1 0 0 1 137.85 -69.5)" id="forklift">
<rect style="stroke: none; stroke-width: 1; stroke-dasharray: none; stroke-linecap: butt; stroke-dashoffset: 0; stroke-linejoin: miter; stroke-miterlimit: 4; is-custom-font: none; font-file-url: none; fill: rgb(104,161,214); fill-rule: nonzero; opacity: 1;" x="-43.15" y="-55.5" rx="0" ry="0" width="86.3" height="111"/>
</g>
		<g transform="matrix(1 0 0 1 125.5 -103.35)" id="forklift">
<rect style="stroke: none; stroke-width: 1; stroke-dasharray: none; stroke-linecap: butt; stroke-dashoffset: 0; stroke-linejoin: miter; stroke-miterlimit: 4; is-custom-font: none; font-file-url: none; fill: rgb(196,193,171); fill-rule: nonzero; opacity: 1;" x="-13.9" y="-21.65" rx="0" ry="0" width="27.8" height="43.3"/>
</g>
		<g transform="matrix(1 0 0 1 -28 24)" id="forklift">
<path style="stroke: none; stroke-width: 1; stroke-dasharray: none; stroke-linecap: butt; stroke-dashoffset: 0; stroke-linejoin: miter; stroke-miterlimit: 4; is-custom-font: none; font-file-url: none; fill: rgb(196,193,171); fill-rule: nonzero; opacity: 1;" transform=" translate(-228, -280)" d="M 204 256 L 204 256 l 0 48 h 48 v 0 C 252 277.5 230.5 256 204 256 z" stroke-linecap="round"/>
</g>
		<g transform="matrix(1 0 0 1 -238.3 63.3)" id="forklift">
<rect style="stroke: none; stroke-width: 1; stroke-dasharray: none; stroke-linecap: butt; stroke-dashoffset: 0; stroke-linejoin: miter; stroke-miterlimit: 4; is-custom-font: none; font-file-url: none; fill: rgb(116,126,108); fill-rule: nonzero; opacity: 1;" x="-12.7" y="-12.7" rx="0" ry="0" width="25.4" height="25.4"/>
</g>
		<g transform="matrix(1 0 0 1 -238.3 66.25)" id="forklift">
<rect style="stroke: none; stroke-width: 1; stroke-dasharray: none; stroke-linecap: butt; stroke-dashoffset: 0; stroke-linejoin: miter; stroke-miterlimit: 4; is-custom-font: none; font-file-url: none; fill: rgb(196,193,171); fill-rule: nonzero; opacity: 1;" x="-12.7" y="-9.75" rx="0" ry="0" width="25.4" height="19.5"/>
</g>
		<g transform="matrix(1 0 0 1 -181.3 138.8)" id="forklift">
<circle style="stroke: none; stroke-width: 1; stroke-dasharray: none; stroke-linecap: butt; stroke-dashoffset: 0; stroke-linejoin: miter; stroke-miterlimit: 4; is-custom-font: none; font-file-url: none; fill: rgb(31,63,119); fill-rule: nonzero; opacity: 1;" cx="0" cy="0" r="37.3"/>
</g>
		<g transform="matrix(1 0 0 1 -173.138 146.7868)" id="forklift">
<path style="stroke: none; stroke-width: 1; stroke-dasharray: none; stroke-linecap: butt; stroke-dashoffset: 0; stroke-linejoin: miter; stroke-miterlimit: 4; is-custom-font: none; font-file-url: none; fill: rgb(10,39,81); fill-rule: nonzero; opacity: 1;" transform=" translate(-82.862, -402.7868)" d="M 94.9 380 c 0 0.1 0 0.3 0 0.4 c -1.3 18.4 -16.2 33.2 -34.5 34.5 c -0.1 0 -0.3 0 -0.4 0 c -6.8 0.4 -8.8 9.4 -2.8 12.7 c 6 3.2 13 4.8 20.4 4.3 c 18.3 -1.3 33 -16.1 34.4 -34.4 c 0.5 -7.4 -1.1 -14.4 -4.3 -20.4 C 104.4 371.2 95.3 373.1 94.9 380 z" stroke-linecap="round"/>
</g>
		<g transform="matrix(1 0 0 1 -181.3 138.8)" id="forklift">
<circle style="stroke: none; stroke-width: 1; stroke-dasharray: none; stroke-linecap: butt; stroke-dashoffset: 0; stroke-linejoin: miter; stroke-miterlimit: 4; is-custom-font: none; font-file-url: none; fill: rgb(10,39,81); fill-rule: nonzero; opacity: 1;" cx="0" cy="0" r="14.1"/>
</g>
		<g transform="matrix(1 0 0 1 -18.3 138.8)" id="forklift">
<circle style="stroke: none; stroke-width: 1; stroke-dasharray: none; stroke-linecap: butt; stroke-dashoffset: 0; stroke-linejoin: miter; stroke-miterlimit: 4; is-custom-font: none; font-file-url: none; fill: rgb(31,63,119); fill-rule: nonzero; opacity: 1;" cx="0" cy="0" r="37.3"/>
</g>
		<g transform="matrix(1 0 0 1 -18.3 138.8)" id="forklift">
<circle style="stroke: none; stroke-width: 1; stroke-dasharray: none; stroke-linecap: butt; stroke-dashoffset: 0; stroke-linejoin: miter; stroke-miterlimit: 4; is-custom-font: none; font-file-url: none; fill: rgb(10,39,81); fill-rule: nonzero; opacity: 1;" cx="0" cy="0" r="14.1"/>
</g>
		<g transform="matrix(1 0 0 1 -10.138 146.7868)" id="forklift">
<path style="stroke: none; stroke-width: 1; stroke-dasharray: none; stroke-linecap: butt; stroke-dashoffset: 0; stroke-linejoin: miter; stroke-miterlimit: 4; is-custom-font: none; font-file-url: none; fill: rgb(10,39,81); fill-rule: nonzero; opacity: 1;" transform=" translate(-245.862, -402.7868)" d="M 257.9 380 c 0 0.1 0 0.3 0 0.4 c -1.3 18.4 -16.2 33.2 -34.5 34.5 c -0.1 0 -0.3 0 -0.4 0 c -6.8 0.4 -8.8 9.4 -2.8 12.7 c 6 3.2 13 4.8 20.4 4.3 c 18.3 -1.3 33 -16.1 34.4 -34.4 c 0.5 -7.4 -1.1 -14.4 -4.3 -20.4 C 267.4 371.2 258.3 373.1 257.9 380 z" stroke-linecap="round"/>
</g>
		<g transform="matrix(1 0 0 1 148 139)" id="forklift">
<rect style="stroke: none; stroke-width: 1; stroke-dasharray: none; stroke-linecap: butt; stroke-dashoffset: 0; stroke-linejoin: miter; stroke-miterlimit: 4; is-custom-font: none; font-file-url: none; fill: rgb(31,63,119); fill-rule: nonzero; opacity: 1;" x="-108" y="-5" rx="0" ry="0" width="216" height="10"/>
</g>
		<g transform="matrix(0.7072 0.7071 -0.7071 0.7072 -76.1805 -0.211)" id="forklift">
<rect style="stroke: none; stroke-width: 1; stroke-dasharray: none; stroke-linecap: butt; stroke-dashoffset: 0; stroke-linejoin: miter; stroke-miterlimit: 4; is-custom-font: none; font-file-url: none; fill: rgb(31,63,119); fill-rule: nonzero; opacity: 1;" x="-5" y="-26.7" rx="0" ry="0" width="10" height="53.4"/>
</g>
</g>
</g>
</svg>