<svg xmlns="http://www.w3.org/2000/svg" xmlns:xlink="http://www.w3.org/1999/xlink" width="66" height="46.2" viewBox="0 0 66 46.2"><defs><style>.a{fill:url(#a);}</style><linearGradient id="a" x1="0.5" x2="0.5" y2="1" gradientUnits="objectBoundingBox"><stop offset="0" stop-color="#6055e0"/><stop offset="1" stop-color="#0ed7ce"/></linearGradient></defs><g transform="translate(-16 -31.151)"><path class="a" d="M184,256h2.2v2.2H184Z" transform="translate(-144.9 -211.649)"/><path class="a" d="M216,256h2.2v2.2H216Z" transform="translate(-172.5 -211.649)"/><path class="a" d="M248,256h4.4v2.2H248Z" transform="translate(-200.1 -211.649)"/><path class="a" d="M184,192h2.2v2.2H184Z" transform="translate(-144.9 -156.449)"/><path class="a" d="M216,192h2.2v2.2H216Z" transform="translate(-172.5 -156.449)"/><path class="a" d="M248,192h4.4v2.2H248Z" transform="translate(-200.1 -156.449)"/><path class="a" d="M80.9,190.8H73.2v-5.5a1.1,1.1,0,0,0-1.1-1.1H52.111a3.316,3.316,0,0,0-2.011-2.011V179.8h11a1.1,1.1,0,0,0,1.1-1.1V161.1a1.1,1.1,0,0,0-1.1-1.1H35.8a1.1,1.1,0,0,0-1.1,1.1v17.6a1.1,1.1,0,0,0,1.1,1.1H47.9v2.389a3.316,3.316,0,0,0-2.011,2.011H25.9a1.1,1.1,0,0,0-1.1,1.1v5.5H17.1a1.1,1.1,0,0,0-1.1,1.1v11a3.3,3.3,0,0,0,3.3,3.3H32.5a3.3,3.3,0,0,0,3.3-3.3v-11a1.1,1.1,0,0,0-1.1-1.1H27v-4.4H45.889a3.316,3.316,0,0,0,2.011,2.011V190.8H40.2a1.1,1.1,0,0,0-1.1,1.1v11a3.3,3.3,0,0,0,3.3,3.3H55.6a3.3,3.3,0,0,0,3.3-3.3v-11a1.1,1.1,0,0,0-1.1-1.1H50.1v-2.389a3.316,3.316,0,0,0,2.011-2.011H71v4.4H63.3a1.1,1.1,0,0,0-1.1,1.1v11a3.3,3.3,0,0,0,3.3,3.3H78.7a3.3,3.3,0,0,0,3.3-3.3v-11a1.1,1.1,0,0,0-1.1-1.1ZM60,177.6H57.8V171H60Zm0-8.8H57.8v-6.6H60Zm-4.4-6.6v6.6H36.9v-6.6ZM36.9,171H55.6v6.6H36.9ZM18.2,202.9V193h1.744l4.078,4.078a1.1,1.1,0,0,0,.778.322h4.4v5.5a3.284,3.284,0,0,0,.189,1.1H19.3a1.1,1.1,0,0,1-1.1-1.1Zm15.4,0a1.1,1.1,0,1,1-2.2,0v-6.6a1.1,1.1,0,0,0-1.1-1.1H25.256l-2.2-2.2H33.6Zm7.7,0V193h1.744l4.078,4.078a1.1,1.1,0,0,0,.778.322h4.4v5.5a3.284,3.284,0,0,0,.189,1.1H42.4a1.1,1.1,0,0,1-1.1-1.1Zm15.4,0a1.1,1.1,0,1,1-2.2,0v-6.6a1.1,1.1,0,0,0-1.1-1.1H48.356l-2.2-2.2H56.7ZM49,186.4a1.1,1.1,0,1,1,1.1-1.1A1.1,1.1,0,0,1,49,186.4Zm15.4,16.5V193h1.744l4.078,4.078A1.1,1.1,0,0,0,71,197.4h4.4v5.5a3.284,3.284,0,0,0,.189,1.1H65.5a1.1,1.1,0,0,1-1.1-1.1Zm15.4,0a1.1,1.1,0,1,1-2.2,0v-6.6a1.1,1.1,0,0,0-1.1-1.1H71.456l-2.2-2.2H79.8Z" transform="translate(0 -128.849)"/></g></svg>