<svg xmlns="http://www.w3.org/2000/svg" width="683" height="683" viewBox="0 0 683 683" version="1.1"><path d="M 5 140.709 C 4.175 141.013, 2.713 141.947, 1.750 142.785 C 0.151 144.179, 0 147.098, 0 176.655 C 0 207.667, 0.082 209.082, 2 211 C 4.169 213.169, 9.830 213.696, 12.961 212.021 C 16.388 210.187, 17 205.464, 17 180.851 L 17 157 42.545 157 L 68.091 157 70.545 154.545 C 73.986 151.105, 73.807 146.653, 70.077 142.923 L 67.154 140 36.827 140.079 C 20.147 140.122, 5.825 140.406, 5 140.709 M 612.964 142.883 C 609.193 146.653, 608.999 151.090, 612.455 154.545 L 614.909 157 640.455 157 L 666 157 666 180.851 C 666 205.464, 666.612 210.187, 670.039 212.021 C 673.170 213.696, 678.831 213.169, 681 211 C 682.918 209.082, 683 207.667, 683 176.655 C 683 145.050, 682.952 144.266, 680.896 142.405 C 678.937 140.631, 676.637 140.480, 647.360 140.209 L 615.927 139.919 612.964 142.883 M 37.455 178.455 L 35 180.909 35 249.348 C 35 310.277, 35.170 317.851, 36.552 318.382 C 37.442 318.723, 37.843 318.555, 37.493 317.989 C 37.157 317.445, 37.359 317, 37.941 317 C 38.523 317, 39 317.382, 39 317.849 C 39 318.316, 40.688 318.616, 42.750 318.516 C 44.813 318.416, 46.831 318.821, 47.235 319.417 C 47.674 320.064, 47.976 319.753, 47.985 318.643 C 47.995 317.392, 48.489 316.984, 49.500 317.393 C 50.325 317.727, 51.749 318.301, 52.664 318.670 C 53.849 319.147, 54.102 318.974, 53.543 318.070 C 52.934 317.084, 53.201 317.037, 54.738 317.860 C 56.572 318.842, 60.010 318.673, 64.250 317.393 C 65.386 317.050, 66 317.404, 66 318.401 C 66 319.353, 66.568 319.719, 67.494 319.364 C 68.316 319.048, 68.740 318.388, 68.435 317.895 C 68.131 317.403, 68.359 317, 68.941 317 C 69.523 317, 70 317.505, 70 318.122 C 70 318.929, 70.397 318.916, 71.411 318.074 C 72.476 317.190, 72.997 317.186, 73.536 318.058 C 74.071 318.924, 74.427 318.927, 74.958 318.068 C 75.463 317.250, 76.429 317.213, 78.333 317.936 C 79.800 318.494, 81.001 318.624, 81.003 318.225 C 81.005 317.826, 82.775 317.479, 84.936 317.454 C 87.177 317.427, 88.614 317.816, 88.279 318.358 C 87.955 318.881, 88.130 319.038, 88.666 318.707 C 90.433 317.614, 95 317.115, 95 318.014 C 95 318.499, 96.359 318.422, 98.020 317.843 L 101.041 316.790 100.770 248.808 L 100.500 180.826 97.694 178.413 L 94.888 176 67.399 176 L 39.909 176 37.455 178.455 M 119.913 177.282 C 116.040 180.255, 116 181.004, 116 249.827 C 116 309.630, 116.167 316.850, 117.563 317.386 C 118.423 317.716, 118.848 318.438, 118.506 318.990 C 118.102 319.645, 118.836 319.633, 120.615 318.956 C 122.117 318.385, 123.942 318.148, 124.672 318.428 C 125.456 318.728, 126.006 318.233, 126.015 317.219 C 126.028 315.806, 126.192 315.754, 126.935 316.930 C 127.433 317.716, 128.553 318.464, 129.425 318.592 C 130.296 318.720, 130.756 318.414, 130.446 317.912 C 130.136 317.410, 130.584 317, 131.441 317 C 132.838 317, 133 309.882, 133 248.573 L 133 180.145 130.365 178.073 C 127.452 175.781, 122.369 175.397, 119.913 177.282 M 159.229 176.669 C 158.530 176.951, 157.292 178.468, 156.479 180.041 C 155.215 182.485, 155.010 192.604, 155.070 249.700 C 155.109 286.440, 155.527 317.400, 156 318.500 C 156.473 319.600, 156.891 319.886, 156.930 319.137 C 156.978 318.205, 157.934 317.910, 159.947 318.206 C 161.568 318.443, 162.682 318.295, 162.423 317.875 C 162.164 317.456, 164.213 317.260, 166.976 317.440 L 172 317.767 172 249.338 L 172 180.909 169.545 178.455 C 167.191 176.100, 162.612 175.308, 159.229 176.669 M 196.455 178.455 L 194 180.909 194 248.848 C 194 312.592, 194.108 316.833, 195.750 317.552 C 196.713 317.973, 197.838 318.246, 198.250 318.159 C 198.662 318.071, 199 318.450, 199 319 C 199 319.550, 199.477 320, 200.059 320 C 200.641 320, 200.810 319.502, 200.434 318.893 C 199.973 318.148, 200.445 318.006, 201.875 318.460 C 203.044 318.831, 204 318.729, 204 318.234 C 204 317.739, 204.675 317.333, 205.500 317.333 C 206.325 317.333, 207 317.669, 207 318.078 C 207 318.488, 207.787 318.707, 208.750 318.566 C 210.394 318.325, 210.516 314.161, 210.757 249.616 L 211.014 180.923 208.552 178.461 C 205.206 175.115, 199.797 175.112, 196.455 178.455 M 234.924 178.580 L 232.500 181.160 232.318 250.330 C 232.218 288.374, 232.346 319.003, 232.603 318.395 C 233.189 317.009, 238 317.843, 238 319.331 C 238 319.935, 238.737 319.692, 239.637 318.791 C 240.841 317.587, 241.890 317.388, 243.602 318.039 C 245.035 318.584, 246.161 318.548, 246.534 317.945 C 246.866 317.408, 247.557 317.226, 248.069 317.543 C 248.640 317.896, 249 291.454, 249 249.132 L 249 180.145 246.365 178.073 C 242.674 175.170, 237.931 175.380, 234.924 178.580 M 275.229 176.669 C 274.530 176.951, 273.292 178.468, 272.479 180.041 C 271.216 182.482, 271 192.819, 271 250.700 L 271 318.500 276.500 318.500 C 279.525 318.500, 282 318.107, 282 317.628 C 282 317.148, 282.675 317.315, 283.500 318 C 284.697 318.993, 285 318.993, 285 318 C 285 317.007, 285.303 317.007, 286.500 318 C 287.831 319.105, 288 311.446, 288 250.077 L 288 180.909 285.545 178.455 C 283.191 176.100, 278.612 175.308, 275.229 176.669 M 311.455 178.455 L 309 180.909 309 248.873 C 309 286.253, 309.272 317.546, 309.605 318.412 C 309.937 319.279, 310.620 319.735, 311.121 319.425 C 311.622 319.115, 311.777 318.448, 311.464 317.942 C 310.808 316.880, 313.894 317.842, 315.750 319.278 C 316.598 319.934, 317 319.846, 317 319.006 C 317 318.259, 317.795 317.975, 318.999 318.289 C 320.098 318.577, 321.268 318.375, 321.598 317.841 C 321.947 317.277, 322.999 317.594, 324.105 318.595 C 325.154 319.545, 326.310 320.024, 326.673 319.661 C 327.036 319.297, 326.808 319, 326.167 319 C 325.525 319, 325 318.619, 325 318.154 C 325 317.689, 326.238 317.420, 327.750 317.555 C 329.262 317.691, 330.500 317.882, 330.500 317.981 C 330.500 318.079, 333.270 318.236, 336.655 318.330 C 340.040 318.423, 342.601 318.163, 342.346 317.750 C 341.592 316.530, 343.487 316.895, 344.947 318.250 C 346.024 319.250, 346.152 319.250, 345.588 318.250 C 345.200 317.563, 345.359 317, 345.941 317 C 346.523 317, 347 317.419, 347 317.932 C 347 318.917, 351.582 318.752, 352.604 317.729 C 352.935 317.398, 354.230 317.517, 355.482 317.993 C 356.734 318.469, 358.600 318.723, 359.629 318.558 C 360.658 318.392, 362.057 318.700, 362.738 319.241 C 363.602 319.927, 364.164 319.737, 364.595 318.613 C 364.936 317.726, 365.642 317, 366.166 317 C 366.690 317, 366.887 317.373, 366.605 317.829 C 366.182 318.515, 369.942 318.632, 370.750 317.958 C 370.887 317.844, 371.563 317.694, 372.250 317.625 C 373.234 317.527, 373.555 302.958, 373.757 249.211 L 374.014 180.923 371.552 178.461 L 369.091 176 341.500 176 L 313.909 176 311.455 178.455 M 397.455 178.455 L 395 180.909 395 249.516 L 395 318.123 398.636 317.546 C 401.804 317.042, 402.110 317.163, 401.013 318.484 C 399.322 320.522, 401.382 320.475, 403.429 318.429 C 404.293 317.564, 405 317.299, 405 317.840 C 405 318.939, 406.848 318.851, 408.750 317.663 C 409.438 317.233, 410.450 317.160, 411 317.500 C 411.663 317.910, 412 295.327, 412 250.509 C 412 178.954, 411.963 178.351, 407.455 176.621 C 403.976 175.286, 399.870 176.039, 397.455 178.455 M 436.913 177.282 C 433.039 180.256, 433 180.986, 433 250.297 L 433 317.725 435.500 317.451 C 436.875 317.300, 438 317.572, 438 318.057 C 438 318.541, 438.681 318.676, 439.513 318.357 C 440.345 318.037, 441.695 318.332, 442.513 319.011 C 443.331 319.689, 444 319.815, 444 319.289 C 444 318.763, 444.675 318.333, 445.500 318.333 C 446.325 318.333, 447 318.708, 447 319.167 C 447 319.625, 447.477 320, 448.059 320 C 448.641 320, 448.840 319.550, 448.500 319 C 448.160 318.450, 448.359 318, 448.941 318 C 449.676 318, 450 297.031, 450 249.455 L 450 180.909 447.545 178.455 C 444.848 175.757, 439.647 175.183, 436.913 177.282 M 474.455 178.455 L 472 180.909 472 249.955 C 472 295.318, 472.343 319, 473 319 C 473.550 319, 474 318.546, 474 317.992 C 474 317.392, 474.864 317.493, 476.131 318.242 C 477.652 319.140, 478.378 319.181, 478.669 318.386 C 479.010 317.452, 481.467 317.348, 485.660 318.088 C 489.018 318.682, 489 319.061, 489 249.455 L 489 180.909 486.545 178.455 C 484.851 176.760, 482.979 176, 480.500 176 C 478.021 176, 476.149 176.760, 474.455 178.455 M 513.455 178.455 L 511 180.909 511 249.774 L 511 318.640 515.890 318.447 C 518.580 318.340, 521.249 317.964, 521.821 317.610 C 522.394 317.257, 523.133 317.407, 523.466 317.944 C 523.822 318.520, 524.876 318.231, 526.035 317.238 C 527.952 315.597, 528 313.928, 528 249.228 C 528 179.045, 527.956 178.348, 523.455 176.621 C 519.976 175.286, 515.870 176.039, 513.455 178.455 M 552.635 178.073 L 550 180.145 550.015 248.823 C 550.026 296.344, 550.363 317.962, 551.110 319 C 552.017 320.261, 552.097 320.217, 551.617 318.727 C 551.140 317.247, 551.359 317.122, 552.942 317.969 C 554.313 318.703, 554.968 318.640, 555.305 317.742 C 555.625 316.888, 556.265 317.125, 557.353 318.500 C 558.553 320.016, 558.948 320.137, 558.984 319 C 559.025 317.667, 559.138 317.667, 560 319 C 560.533 319.825, 560.976 319.988, 560.985 319.361 C 560.993 318.735, 561.563 318.243, 562.250 318.269 C 567.371 318.459, 567 323.755, 567 250.434 C 567 180.981, 566.961 180.257, 563.087 177.282 C 560.631 175.397, 555.548 175.781, 552.635 178.073 M 584.455 178.455 L 582 180.909 582 249.455 C 582 294.402, 582.344 318.043, 583 318.125 C 583.550 318.194, 584.563 318.321, 585.250 318.408 C 585.938 318.496, 586.831 318.102, 587.235 317.533 C 587.693 316.888, 587.975 317.015, 587.985 317.872 C 587.998 319.036, 588.258 319.036, 589.692 317.872 C 591.077 316.749, 591.237 316.745, 590.571 317.850 C 589.913 318.943, 590.161 318.984, 591.879 318.065 C 593.473 317.212, 594 317.218, 594 318.087 C 594 318.918, 594.431 318.888, 595.523 317.981 C 596.812 316.911, 596.953 317.008, 596.441 318.609 C 595.908 320.275, 595.995 320.317, 597.168 318.957 C 598.482 317.434, 600.009 317.365, 608.706 318.435 C 611.019 318.719, 613.183 318.513, 613.515 317.976 C 613.847 317.439, 614.568 317, 615.118 317 C 615.668 317, 615.900 317.354, 615.632 317.786 C 615.365 318.218, 616.014 318.571, 617.073 318.571 C 618.133 318.571, 619 318.325, 619 318.024 C 619 317.724, 620.575 317.451, 622.500 317.418 C 624.425 317.385, 626 317.615, 626.001 317.929 C 626.001 318.243, 627.126 318.565, 628.501 318.644 C 629.875 318.724, 631 318.386, 631 317.894 C 631 317.402, 631.477 317, 632.059 317 C 632.641 317, 632.840 317.450, 632.500 318 C 632.160 318.550, 632.610 319, 633.500 319 C 634.390 319, 634.873 318.603, 634.573 318.117 C 633.932 317.081, 639.114 317.335, 640.879 318.425 C 641.544 318.836, 642.829 318.571, 643.736 317.836 C 644.882 316.907, 645.158 316.877, 644.640 317.739 C 644.135 318.580, 644.394 318.786, 645.448 318.382 C 646.830 317.851, 647 310.240, 647 248.966 L 647 180.145 644.365 178.073 C 641.845 176.090, 640.536 176, 614.320 176 L 586.909 176 584.455 178.455" stroke="none" fill="#18c8d0" fill-rule="evenodd"/><path d="M 126.015 317.219 C 126.006 318.233, 125.456 318.728, 124.672 318.428 C 123.942 318.148, 122.147 318.374, 120.682 318.931 C 118.794 319.649, 118.089 319.624, 118.259 318.847 C 118.392 318.243, 117.938 317.544, 117.250 317.292 C 115.496 316.649, 115.411 499.025, 117.163 502.316 C 119.847 507.354, 125.791 508.525, 130.375 504.920 L 133.020 502.839 132.990 409.920 C 132.963 326.960, 132.795 317, 131.421 317 C 130.574 317, 130.136 317.410, 130.446 317.912 C 130.756 318.414, 130.296 318.720, 129.425 318.592 C 128.553 318.464, 127.433 317.716, 126.935 316.930 C 126.192 315.754, 126.028 315.806, 126.015 317.219 M 525.814 317.329 C 524.765 318.378, 523.888 318.628, 523.495 317.991 C 523.147 317.428, 522.373 317.269, 521.776 317.638 C 521.179 318.007, 518.623 318.357, 516.095 318.415 L 511.500 318.521 511.245 410.301 L 510.990 502.080 513.449 504.540 C 518.066 509.157, 525.986 507.035, 527.499 500.775 C 527.802 499.524, 527.926 457.357, 527.775 407.071 C 527.517 321.313, 527.395 315.747, 525.814 317.329 M 36.270 317.656 C 35.310 318.044, 35.034 338.315, 35.010 410.112 L 34.980 502.071 37.445 504.535 L 39.909 507 67.399 507 L 94.888 507 97.694 504.587 L 100.500 502.174 100.765 409.587 C 100.911 358.664, 100.828 317, 100.580 317 C 100.333 317, 98.976 317.439, 97.565 317.975 C 96.075 318.542, 95 318.570, 95 318.041 C 95 317.121, 90.459 317.598, 88.666 318.707 C 88.130 319.038, 87.955 318.881, 88.279 318.358 C 88.614 317.816, 87.177 317.427, 84.936 317.454 C 82.775 317.479, 81.005 317.826, 81.003 318.225 C 81.001 318.624, 79.800 318.494, 78.333 317.936 C 76.429 317.213, 75.463 317.250, 74.958 318.068 C 74.427 318.927, 74.071 318.924, 73.536 318.058 C 72.997 317.186, 72.476 317.190, 71.411 318.074 C 70.397 318.916, 70 318.929, 70 318.122 C 70 317.505, 69.523 317, 68.941 317 C 68.359 317, 68.131 317.403, 68.435 317.895 C 68.740 318.388, 68.316 319.048, 67.494 319.364 C 66.568 319.719, 66 319.353, 66 318.401 C 66 317.404, 65.386 317.050, 64.250 317.393 C 60.010 318.673, 56.572 318.842, 54.738 317.860 C 53.201 317.037, 52.934 317.084, 53.543 318.070 C 54.318 319.323, 54.117 319.287, 49.250 317.297 C 48.518 316.998, 47.994 317.555, 47.985 318.643 C 47.976 319.753, 47.674 320.064, 47.235 319.417 C 46.831 318.821, 44.813 318.416, 42.750 318.516 C 40.688 318.616, 39 318.316, 39 317.849 C 39 316.930, 38.202 316.874, 36.270 317.656 M 155.070 408.300 C 154.996 505.806, 154.941 504.612, 159.545 506.379 C 163.024 507.714, 167.130 506.961, 169.545 504.545 L 172 502.091 172 410.045 C 172 359.420, 171.662 317.943, 171.250 317.872 C 168.008 317.321, 162.105 317.360, 162.457 317.931 C 162.698 318.320, 161.568 318.443, 159.947 318.206 C 157.934 317.910, 156.978 318.205, 156.930 319.137 C 156.891 319.886, 156.473 319.600, 156 318.500 C 155.512 317.364, 155.110 356.154, 155.070 408.300 M 195 318 C 196 318.646, 196.083 318.974, 195.250 318.985 C 194.259 318.997, 194 337.984, 194 410.545 L 194 502.091 196.455 504.545 C 199.794 507.885, 205.206 507.885, 208.545 504.545 L 211 502.091 211 410.103 C 211 318.653, 210.988 318.117, 209 318.500 C 207.900 318.712, 207 318.536, 207 318.109 C 207 317.682, 206.325 317.333, 205.500 317.333 C 204.675 317.333, 204 317.739, 204 318.234 C 204 318.729, 203.044 318.831, 201.875 318.460 C 200.445 318.006, 199.973 318.148, 200.434 318.893 C 200.810 319.502, 200.641 320, 200.059 320 C 199.477 320, 199 319.523, 199 318.941 C 199 318.359, 198.581 318.141, 198.069 318.457 C 197.557 318.774, 196.856 318.575, 196.510 318.016 C 196.165 317.457, 195.346 317.007, 194.691 317.015 C 193.975 317.025, 194.099 317.418, 195 318 M 232.455 319.386 C 232.171 320.549, 232.066 362.076, 232.220 411.670 L 232.500 501.839 234.924 504.420 C 237.931 507.620, 242.674 507.831, 246.365 504.927 L 249 502.855 249 410.486 C 249 354.557, 248.633 317.891, 248.069 317.543 C 247.557 317.226, 246.866 317.408, 246.534 317.945 C 246.161 318.548, 245.035 318.584, 243.602 318.039 C 241.890 317.388, 240.841 317.587, 239.637 318.791 C 238.737 319.692, 238 319.935, 238 319.331 C 238 318.727, 236.868 318.017, 235.485 317.752 C 233.537 317.380, 232.854 317.748, 232.455 319.386 M 282 317.778 C 282 318.359, 280.379 318.642, 278.250 318.433 C 276.188 318.231, 273.712 318.306, 272.750 318.600 C 271.100 319.104, 271 324.314, 271 409.617 C 271 505.681, 270.950 504.616, 275.545 506.379 C 279.024 507.714, 283.130 506.961, 285.545 504.545 L 288 502.091 288 410.668 C 288 330.623, 287.813 319.090, 286.500 318 C 285.303 317.007, 285 317.007, 285 318 C 285 318.993, 284.697 318.993, 283.500 318 C 282.622 317.272, 282 317.179, 282 317.778 M 311.130 317.786 C 311.422 319.740, 310.865 320.338, 310 319 C 309.370 318.026, 309.025 349.838, 309.015 409.795 L 309 502.091 311.455 504.545 L 313.909 507 341.500 507 L 369.091 507 371.545 504.545 L 374 502.091 374 409.634 C 374 322.119, 373.906 317.195, 372.250 317.512 C 371.288 317.696, 370.500 317.919, 370.500 318.007 C 370.500 318.095, 369.508 318.277, 368.296 318.413 C 367.084 318.548, 366.323 318.286, 366.605 317.829 C 366.887 317.373, 366.690 317, 366.166 317 C 365.642 317, 364.936 317.726, 364.595 318.613 C 364.164 319.737, 363.602 319.927, 362.738 319.241 C 362.057 318.700, 360.658 318.392, 359.629 318.558 C 358.600 318.723, 356.734 318.469, 355.482 317.993 C 354.230 317.517, 352.935 317.398, 352.604 317.729 C 351.582 318.752, 347 318.917, 347 317.932 C 347 317.419, 346.523 317, 345.941 317 C 345.359 317, 345.200 317.563, 345.588 318.250 C 346.152 319.250, 346.024 319.250, 344.947 318.250 C 343.487 316.895, 341.592 316.530, 342.346 317.750 C 342.601 318.163, 340.040 318.423, 336.655 318.330 C 333.270 318.236, 330.500 318.079, 330.500 317.981 C 330.500 317.882, 329.262 317.691, 327.750 317.555 C 326.238 317.420, 325 317.689, 325 318.154 C 325 318.619, 325.525 319, 326.167 319 C 326.808 319, 327.036 319.297, 326.673 319.661 C 326.310 320.024, 325.154 319.545, 324.105 318.595 C 322.999 317.594, 321.947 317.277, 321.598 317.841 C 321.268 318.375, 320.098 318.577, 318.999 318.289 C 317.795 317.975, 317 318.259, 317 319.006 C 317 319.846, 316.598 319.934, 315.750 319.278 C 313.967 317.898, 311.005 316.941, 311.130 317.786 M 396.750 317.788 C 395.099 318.126, 395 323.330, 395 410.119 L 395 502.091 397.455 504.545 C 399.870 506.961, 403.976 507.714, 407.455 506.379 C 412.076 504.606, 412.022 505.763, 411.990 409.077 C 411.970 350.804, 411.607 317.875, 410.979 317.487 C 410.441 317.154, 409.438 317.233, 408.750 317.663 C 406.848 318.851, 405 318.939, 405 317.840 C 405 317.299, 404.293 317.564, 403.429 318.429 C 401.415 320.442, 399.298 320.551, 400.953 318.556 C 402.194 317.061, 401.194 316.878, 396.750 317.788 M 433.597 317.736 C 433.269 318.065, 433 359.238, 433 409.232 C 433 476.422, 433.303 500.701, 434.163 502.316 C 436.977 507.598, 443.419 508.672, 447.545 504.545 L 450 502.091 450 410.045 C 450 345.929, 449.679 318, 448.941 318 C 448.359 318, 448.160 318.450, 448.500 319 C 448.840 319.550, 448.641 320, 448.059 320 C 447.477 320, 447 319.625, 447 319.167 C 447 318.708, 446.325 318.333, 445.500 318.333 C 444.675 318.333, 444 318.763, 444 319.289 C 444 319.815, 443.331 319.689, 442.513 319.011 C 441.695 318.332, 440.345 318.037, 439.513 318.357 C 438.681 318.676, 438 318.597, 438 318.181 C 438 317.262, 434.432 316.901, 433.597 317.736 M 473.233 318.595 C 472.274 319.622, 472 340.164, 472 411.003 L 472 502.091 474.455 504.545 C 476.149 506.240, 478.021 507, 480.500 507 C 482.979 507, 484.851 506.240, 486.545 504.545 L 489 502.091 489 410.170 L 489 318.250 486.750 318.125 C 485.512 318.057, 483.375 317.875, 482 317.721 C 480.625 317.567, 479.176 317.905, 478.781 318.471 C 478.292 319.170, 477.485 319.143, 476.264 318.387 C 474.904 317.545, 474.167 317.596, 473.233 318.595 M 550.631 317.702 C 550.284 318.049, 550 359.851, 550 410.594 L 550 502.855 552.635 504.927 C 555.548 507.219, 560.631 507.603, 563.087 505.718 C 567.008 502.708, 567 502.893, 567 409.106 L 567 318.081 564.002 318.290 C 562.353 318.406, 560.996 318.950, 560.987 319.500 C 560.977 320.050, 560.533 319.825, 560 319 C 559.138 317.667, 559.025 317.667, 558.984 319 C 558.948 320.137, 558.553 320.016, 557.353 318.500 C 556.265 317.125, 555.625 316.888, 555.305 317.742 C 554.979 318.610, 554.300 318.696, 553.051 318.027 C 552.067 317.501, 550.979 317.355, 550.631 317.702 M 587.079 317.684 C 587.032 318.390, 585.992 318.685, 584.500 318.414 L 582 317.961 582 410.026 L 582 502.091 584.455 504.545 L 586.909 507 614.320 507 C 640.536 507, 641.845 506.910, 644.365 504.927 L 647 502.855 647 410.534 C 647 333.022, 646.779 318.129, 645.622 317.685 C 644.864 317.394, 643.778 317.622, 643.209 318.191 C 642.640 318.760, 641.611 318.878, 640.923 318.452 C 639.126 317.342, 633.924 317.067, 634.573 318.117 C 634.873 318.603, 634.390 319, 633.500 319 C 632.610 319, 632.160 318.550, 632.500 318 C 632.840 317.450, 632.641 317, 632.059 317 C 631.477 317, 631 317.402, 631 317.894 C 631 318.386, 629.875 318.724, 628.501 318.644 C 627.126 318.565, 626.001 318.243, 626.001 317.929 C 626 317.615, 624.425 317.385, 622.500 317.418 C 620.575 317.451, 619 317.724, 619 318.024 C 619 318.325, 618.133 318.571, 617.073 318.571 C 616.014 318.571, 615.365 318.218, 615.632 317.786 C 615.900 317.354, 615.668 317, 615.118 317 C 614.568 317, 613.847 317.439, 613.515 317.976 C 613.183 318.513, 611.019 318.719, 608.706 318.435 C 600.009 317.365, 598.482 317.434, 597.168 318.957 C 595.995 320.317, 595.908 320.275, 596.441 318.609 C 596.953 317.008, 596.812 316.911, 595.523 317.981 C 594.685 318.676, 594 318.815, 594 318.290 C 594 317.214, 591.066 317.223, 589.318 318.304 C 588.687 318.693, 587.943 318.447, 587.664 317.756 C 587.307 316.870, 587.135 316.848, 587.079 317.684 M 2.635 471.073 L 0 473.145 0 505.918 C 0 537.957, 0.047 538.733, 2.104 540.595 C 4.063 542.369, 6.363 542.520, 35.640 542.791 L 67.073 543.081 70.036 540.117 C 73.807 536.347, 74.001 531.910, 70.545 528.455 L 68.091 526 42.607 526 L 17.123 526 16.811 499.912 L 16.500 473.824 13.694 471.412 C 10.251 468.452, 6.127 468.325, 2.635 471.073 M 669.306 471.412 L 666.500 473.824 666.189 499.912 L 665.877 526 640.393 526 L 614.909 526 612.455 528.455 C 609.276 531.633, 609.260 536.028, 612.413 539.694 L 614.827 542.500 646.808 542.500 C 676.855 542.500, 678.917 542.385, 680.895 540.595 C 682.953 538.732, 683 537.965, 683 505.918 L 683 473.145 680.365 471.073 C 676.873 468.325, 672.749 468.452, 669.306 471.412" stroke="none" fill="#4188d9" fill-rule="evenodd"/></svg>