<?xml version="1.0" encoding="utf-8"?>
<!-- Generator: Adobe Illustrator 16.0.0, SVG Export Plug-In . SVG Version: 6.00 Build 0)  -->
<!DOCTYPE svg PUBLIC "-//W3C//DTD SVG 1.1//EN" "http://www.w3.org/Graphics/SVG/1.1/DTD/svg11.dtd">
<svg version="1.1" id="Layer_1" xmlns="http://www.w3.org/2000/svg" xmlns:xlink="http://www.w3.org/1999/xlink" x="0px" y="0px"
	 width="143.625px" height="83.027px" viewBox="0 0 143.625 83.027" enable-background="new 0 0 143.625 83.027"
	 xml:space="preserve">
<g id="Group_307" transform="translate(-378.714 -240.484)">
	<g id="warehouse" transform="translate(378.714 240.484)">
		<g id="Group_287" transform="translate(0 0)">
			<g id="Group_286">
				<path id="Path_3784" fill="#FFFFFF" d="M82.345,23.715L42.215,0.19c-0.421-0.247-0.941-0.254-1.369-0.018L0.715,22.313
					C0.273,22.556,0,23.02,0,23.524v58.12c0,0.764,0.618,1.384,1.382,1.384c0.001,0,0.001,0,0.002,0H8.3
					c0.764,0.001,1.384-0.618,1.384-1.382c0,0,0-0.001,0-0.002V33.211h63.658v48.433c-0.002,0.764,0.617,1.383,1.38,1.384
					c0.001,0,0.003,0,0.004,0h6.919c0.764,0.002,1.383-0.616,1.384-1.38c0-0.001,0-0.002,0-0.004V24.908
					C83.03,24.417,82.769,23.963,82.345,23.715z M80.261,80.26H76.11V31.827c0-0.765-0.618-1.384-1.382-1.385
					c-0.001,0-0.001,0-0.002,0H8.3c-0.764,0-1.384,0.62-1.384,1.385l0,0V80.26H2.768V24.34L41.494,2.974l38.767,22.725v54.56V80.26z
					"/>
			</g>
		</g>
		<g id="Group_289" transform="translate(51.201 63.655)">
			<g id="Group_288">
				<path id="Path_3785" fill="#FFFFFF" d="M17.99,0.001H1.384C0.621-0.001,0.001,0.617,0,1.38c0,0.001,0,0.002,0,0.004V17.99
					c-0.001,0.764,0.617,1.383,1.38,1.384c0.001,0,0.002,0,0.004,0H17.99c0.763,0.002,1.383-0.616,1.384-1.38
					c0-0.001,0-0.002,0-0.004V1.384c0.001-0.764-0.617-1.383-1.38-1.384C17.993,0.001,17.991,0.001,17.99,0.001z M16.606,16.606
					H2.766V2.769h13.84V16.606z"/>
			</g>
		</g>
		<g id="Group_291" transform="translate(56.736 65.038)">
			<g id="Group_290">
				<path id="Path_3786" fill="#FFFFFF" d="M5.534,0v4.15H2.766V0h-2.768v5.536c-0.001,0.763,0.617,1.383,1.38,1.384
					c0.001,0,0.003,0,0.004,0h5.535C7.68,6.921,8.3,6.303,8.301,5.54c0-0.002,0-0.003,0-0.004V0.001L5.534,0z"/>
			</g>
		</g>
		<g id="Group_293" transform="translate(34.595 63.655)">
			<g id="Group_292">
				<path id="Path_3787" fill="#FFFFFF" d="M17.99,0.001H1.384C0.62,0,0.001,0.619,0,1.382c0,0,0,0.001,0,0.002V17.99
					c-0.001,0.764,0.618,1.384,1.382,1.384c0,0,0.001,0,0.002,0H17.99c0.763,0.002,1.383-0.616,1.384-1.38c0-0.001,0-0.002,0-0.004
					V1.384c0.001-0.764-0.617-1.383-1.38-1.384C17.993,0.001,17.991,0.001,17.99,0.001z M16.606,16.606H2.766V2.769h13.84V16.606z"
					/>
			</g>
		</g>
		<g id="Group_295" transform="translate(40.13 65.038)">
			<g id="Group_294">
				<path id="Path_3788" fill="#FFFFFF" d="M5.534,0v4.15H2.766V0h-2.768v5.536c0,0.764,0.618,1.383,1.382,1.384
					c0.001,0,0.001,0,0.002,0h5.535C7.68,6.921,8.3,6.303,8.301,5.54c0-0.002,0-0.003,0-0.004V0.001L5.534,0z"/>
			</g>
		</g>
		<g id="Group_297" transform="translate(51.201 47.049)">
			<g id="Group_296">
				<path id="Path_3789" fill="#FFFFFF" d="M17.99,0H1.384C0.621-0.001,0.001,0.616,0,1.38c0,0.001,0,0.003,0,0.004V17.99
					c-0.001,0.763,0.617,1.383,1.38,1.384c0.001,0,0.002,0,0.004,0H17.99c0.763,0.001,1.383-0.617,1.384-1.38
					c0-0.002,0-0.003,0-0.004V1.384c0.001-0.763-0.617-1.383-1.38-1.384C17.993,0,17.991,0,17.99,0z M16.606,16.606H2.766V2.769
					h13.84V16.606z"/>
			</g>
		</g>
		<g id="Group_299" transform="translate(56.736 48.433)">
			<g id="Group_298">
				<path id="Path_3790" fill="#FFFFFF" d="M5.534,0v4.151H2.766V0h-2.768v5.536C-0.003,6.3,0.615,6.919,1.378,6.92
					c0.001,0,0.003,0,0.004,0h5.535C7.68,6.921,8.3,6.304,8.301,5.54c0-0.001,0-0.003,0-0.004V0.001L5.534,0z"/>
			</g>
		</g>
		<g id="Group_301" transform="translate(8.303 41.514)">
			<g id="Group_300">
				<rect id="Rectangle_156" x="0" y="0" fill="#FFFFFF" width="66.423" height="2.769"/>
			</g>
		</g>
		<g id="Group_303" transform="translate(8.303 35.978)">
			<g id="Group_302">
				<rect id="Rectangle_157" x="0" y="0" fill="#FFFFFF" width="66.423" height="2.769"/>
			</g>
		</g>
		<g id="Group_305" transform="translate(33.212 19.373)">
			<g id="Group_304">
				<path id="Path_3791" fill="#FFFFFF" d="M15.222,0H1.384C0.62,0,0,0.619,0,1.384l0,0v5.535c0,0.764,0.62,1.384,1.384,1.384l0,0
					h13.838c0.764,0.001,1.383-0.618,1.384-1.382c0-0.001,0-0.002,0-0.002V1.384C16.606,0.62,15.988,0,15.224,0
					C15.224,0,15.223,0,15.222,0z M13.838,5.536H2.767V2.768h11.071V5.536z"/>
			</g>
		</g>
	</g>
	<path id="Path_3793" fill="#FFFFFF" d="M482.916,296.843v5.46c-1.615,0-3.134,0.062-4.64-0.048
		c-0.319-0.022-0.824-0.644-0.851-1.017c-0.101-1.406-0.041-2.825-0.041-4.4L482.916,296.843z"/>
	<path id="Path_3792" fill="#FFFFFF" d="M522.339,300.517c-2.024,1.646-4.026,3.322-6.082,4.931
		c-2.021,1.58-4.094,3.091-6.271,4.726l-3.363-4.491l3.891-2.917c-0.025-0.115-0.053-0.232-0.079-0.348h-21.65v-5.734h21.638
		l0.137-0.367l-3.928-3.034c1.115-1.486,2.154-2.872,3.278-4.372c0.479,0.293,0.9,0.508,1.275,0.788
		c2.981,2.229,5.971,4.454,8.922,6.727c0.781,0.665,1.526,1.372,2.233,2.116V300.517z"/>
</g>
</svg>
