<?xml version="1.0" encoding="utf-8"?>
<!-- Generator: Adobe Illustrator 16.0.0, SVG Export Plug-In . SVG Version: 6.00 Build 0)  -->
<!DOCTYPE svg PUBLIC "-//W3C//DTD SVG 1.1//EN" "http://www.w3.org/Graphics/SVG/1.1/DTD/svg11.dtd">
<svg version="1.1" id="Layer_1" xmlns="http://www.w3.org/2000/svg" xmlns:xlink="http://www.w3.org/1999/xlink" x="0px" y="0px"
	 width="34.652px" height="24.436px" viewBox="0 0 34.652 24.436" enable-background="new 0 0 34.652 24.436" xml:space="preserve">
<g transform="translate(0 0.001)">
	<linearGradient id="SVGID_1_" gradientUnits="userSpaceOnUse" x1="15.2488" y1="24.4348" x2="15.2488" y2="-2.670288e-004">
		<stop  offset="0" style="stop-color:#0ED7CE"/>
		<stop  offset="1" style="stop-color:#6055E0"/>
	</linearGradient>
	<path fill="url(#SVGID_1_)" d="M30.126,4.26l-1.539-0.268V2.357C28.586,2.11,28.386,1.91,28.139,1.91H27.49l-0.232-1.426
		c-0.042-0.242-0.271-0.407-0.514-0.369L16.139,1.847C16.1,1.828,5.666,0.006,5.666,0.006C5.423-0.037,5.191,0.125,5.149,0.368
		C5.148,0.369,5.148,0.369,5.148,0.37L4.88,1.909H0.447C0.2,1.909,0,2.11,0,2.357v19.575c0,0.248,0.2,0.448,0.448,0.448h4.32
		l0.256,1.569c0.042,0.242,0.271,0.407,0.515,0.369l10.6-1.729l0.046-0.01c0.048,0.029,10.437,1.849,10.437,1.849
		c0.025,0.005,0.051,0.007,0.077,0.007c0.217,0,0.402-0.157,0.439-0.371l0.293-1.684h0.711c0.248,0,0.448-0.2,0.448-0.448v-1.376
		l1.455-0.238c0.242-0.041,0.407-0.271,0.37-0.514l-1.229-7.52l1.304-7.507C30.532,4.534,30.369,4.303,30.126,4.26z M26.583,1.909
		h-5.271l5.134-0.838L26.583,1.909z M5.953,0.964l5.431,0.945H5.789L5.953,0.964z M5.676,22.379h6.183l-6.021,0.982L5.676,22.379z
		 M26.33,23.469l-6.266-1.09h6.455L26.33,23.469z M27.691,21.484H0.895V2.8h26.8L27.691,21.484z M28.591,19.649v-4.69
		c0.042-0.03,0.079-0.067,0.109-0.11l0.761,4.658L28.591,19.649z M28.591,10.496V4.9l0.944,0.164L28.591,10.496z"/>
	<linearGradient id="SVGID_2_" gradientUnits="userSpaceOnUse" x1="14.2957" y1="20.9475" x2="14.2957" y2="3.3376">
		<stop  offset="0" style="stop-color:#0ED7CE"/>
		<stop  offset="1" style="stop-color:#6055E0"/>
	</linearGradient>
	<path fill="url(#SVGID_2_)" d="M1.884,20.947h24.823c0.247,0,0.447-0.2,0.447-0.447V3.789c0-0.247-0.2-0.447-0.447-0.447h-3.761
		c-0.248,0-0.449,0.201-0.449,0.45c0,0.248,0.201,0.45,0.449,0.45h3.313v15.81H2.328V4.237h18.44c0.249,0,0.45-0.201,0.45-0.449
		c0-0.249-0.201-0.45-0.45-0.45H1.884C1.637,3.336,1.437,3.536,1.436,3.783c0,0,0,0,0,0.001V20.5
		C1.436,20.747,1.636,20.947,1.884,20.947L1.884,20.947z"/>
	<linearGradient id="SVGID_3_" gradientUnits="userSpaceOnUse" x1="11.6667" y1="19.0364" x2="11.6667" y2="5.2517">
		<stop  offset="0" style="stop-color:#0ED7CE"/>
		<stop  offset="1" style="stop-color:#6055E0"/>
	</linearGradient>
	<path fill="url(#SVGID_3_)" d="M4.267,5.251C4.02,5.25,3.82,5.45,3.819,5.697c0,0,0,0,0,0.001v12.891
		c0,0.247,0.2,0.447,0.447,0.447h0.001h14.8c0.247,0,0.448-0.2,0.448-0.447V5.698c0-0.247-0.201-0.447-0.448-0.447H4.267z
		 M11.458,8.636C10.35,8.852,9.55,9.822,9.548,10.95c0,0.247,0.2,0.447,0.448,0.447h1.462v1.492H4.714v-1.492h3.372
		c0.247,0,0.448-0.2,0.448-0.447V6.15h2.924V8.636z M4.714,9.009h2.924v1.492H4.714V9.009z M7.638,6.146v1.971H4.714V6.146H7.638z
		 M15.695,18.146v-0.944c0.448,0.146,0.8,0.496,0.944,0.944H15.695z M18.619,18.146h-1.058c-0.216-1.107-1.185-1.908-2.313-1.91
		c-0.248,0-0.448,0.201-0.448,0.448v1.462H4.714v-4.36h6.744v1.462c0,0.248,0.201,0.45,0.45,0.45c0.248,0,0.449-0.202,0.449-0.45
		v-4.3c0-0.247-0.2-0.447-0.447-0.447h-1.396c0.195-0.604,0.757-1.015,1.393-1.016c0.247,0,0.447-0.2,0.447-0.447V6.146h6.267
		L18.619,18.146z"/>
	<linearGradient id="SVGID_4_" gradientUnits="userSpaceOnUse" x1="15.7249" y1="12.3528" x2="15.7249" y2="8.593">
		<stop  offset="0" style="stop-color:#0ED7CE"/>
		<stop  offset="1" style="stop-color:#6055E0"/>
	</linearGradient>
	<path fill="url(#SVGID_4_)" d="M15.725,8.593c-1.038,0-1.88,0.842-1.88,1.88s0.842,1.88,1.88,1.88s1.88-0.842,1.88-1.88
		C17.604,9.435,16.763,8.594,15.725,8.593z M15.725,11.458c-0.544,0-0.984-0.441-0.984-0.985s0.44-0.984,0.984-0.984
		s0.985,0.44,0.985,0.984C16.709,11.017,16.269,11.457,15.725,11.458L15.725,11.458z"/>
	<linearGradient id="SVGID_5_" gradientUnits="userSpaceOnUse" x1="15.7249" y1="13.7903" x2="15.7249" y2="12.8899">
		<stop  offset="0" style="stop-color:#0ED7CE"/>
		<stop  offset="1" style="stop-color:#6055E0"/>
	</linearGradient>
	<path fill="url(#SVGID_5_)" d="M16.68,12.89h-1.91c-0.248,0-0.45,0.201-0.45,0.45c0,0.248,0.202,0.45,0.45,0.45h1.91
		c0.249,0,0.45-0.202,0.45-0.45C17.13,13.091,16.929,12.89,16.68,12.89z"/>
	<linearGradient id="SVGID_6_" gradientUnits="userSpaceOnUse" x1="15.7249" y1="8.0559" x2="15.7249" y2="7.1565">
		<stop  offset="0" style="stop-color:#0ED7CE"/>
		<stop  offset="1" style="stop-color:#6055E0"/>
	</linearGradient>
	<path fill="url(#SVGID_6_)" d="M14.77,8.056h1.91c0.249,0,0.45-0.201,0.45-0.45c0-0.248-0.201-0.449-0.45-0.449h-1.91
		c-0.248,0-0.45,0.201-0.45,0.449C14.32,7.855,14.522,8.056,14.77,8.056z"/>
	<linearGradient id="SVGID_7_" gradientUnits="userSpaceOnUse" x1="6.1775" y1="7.5793" x2="6.1775" y2="6.6789">
		<stop  offset="0" style="stop-color:#0ED7CE"/>
		<stop  offset="1" style="stop-color:#6055E0"/>
	</linearGradient>
	<path fill="url(#SVGID_7_)" d="M5.7,7.579h0.955c0.248,0,0.449-0.202,0.449-0.45c0-0.249-0.201-0.45-0.449-0.45H5.7
		c-0.249,0-0.45,0.201-0.45,0.45C5.25,7.377,5.451,7.579,5.7,7.579z"/>
	<linearGradient id="SVGID_8_" gradientUnits="userSpaceOnUse" x1="23.3655" y1="19.0334" x2="23.3655" y2="14.8">
		<stop  offset="0" style="stop-color:#0ED7CE"/>
		<stop  offset="1" style="stop-color:#6055E0"/>
	</linearGradient>
	<path fill="url(#SVGID_8_)" d="M23.365,14.8c-0.18,0-0.341,0.106-0.411,0.271l-1.433,3.343c-0.094,0.23,0.018,0.493,0.248,0.587
		c0.098,0.04,0.205,0.044,0.306,0.013l1.291-0.43l1.29,0.43c0.239,0.074,0.492-0.06,0.565-0.298c0.031-0.1,0.026-0.206-0.012-0.302
		l-1.437-3.343C23.703,14.907,23.543,14.801,23.365,14.8z M23.506,17.688c-0.092-0.03-0.191-0.03-0.283,0l-0.487,0.162l0.628-1.466
		l0.629,1.466L23.506,17.688z"/>
	<linearGradient id="SVGID_9_" gradientUnits="userSpaceOnUse" x1="23.1252" y1="14.2629" x2="23.1252" y2="10.5056">
		<stop  offset="0" style="stop-color:#0ED7CE"/>
		<stop  offset="1" style="stop-color:#6055E0"/>
	</linearGradient>
	<path fill="url(#SVGID_9_)" d="M21.932,14.263c0.248,0,0.448-0.2,0.448-0.448v-1.628l1.6,1.915c0.159,0.19,0.441,0.216,0.631,0.058
		c0.103-0.086,0.161-0.212,0.161-0.345v-2.859c0-0.249-0.201-0.45-0.449-0.45c-0.249,0-0.45,0.201-0.45,0.45l0,0v1.628l-1.601-1.915
		c-0.163-0.188-0.447-0.209-0.636-0.046c-0.097,0.083-0.153,0.204-0.156,0.332v2.864C21.483,14.067,21.685,14.265,21.932,14.263
		L21.932,14.263z"/>
	<linearGradient id="SVGID_10_" gradientUnits="userSpaceOnUse" x1="31.9592" y1="7.969" x2="31.9592" y2="4.5569">
		<stop  offset="0" style="stop-color:#0ED7CE"/>
		<stop  offset="1" style="stop-color:#6055E0"/>
	</linearGradient>
	<path fill="url(#SVGID_10_)" d="M34.653,6.419c-0.324,0.264-0.646,0.533-0.976,0.791s-0.657,0.5-1.007,0.759l-0.54-0.721
		l0.625-0.468l-0.013-0.057h-3.476V5.803h3.474l0.021-0.059l-0.63-0.487l0.526-0.7c0.076,0.047,0.145,0.082,0.199,0.126
		c0.479,0.358,0.958,0.715,1.433,1.08c0.125,0.107,0.244,0.221,0.357,0.34L34.653,6.419z"/>
	<linearGradient id="SVGID_11_" gradientUnits="userSpaceOnUse" x1="31.9592" y1="18.6819" x2="31.9592" y2="15.2698">
		<stop  offset="0" style="stop-color:#0ED7CE"/>
		<stop  offset="1" style="stop-color:#6055E0"/>
	</linearGradient>
	<path fill="url(#SVGID_11_)" d="M29.267,17.132c0.325,0.264,0.646,0.533,0.977,0.791c0.329,0.258,0.656,0.5,1.007,0.759l0.54-0.721
		l-0.625-0.468l0.013-0.057h3.475v-0.921H31.18l-0.021-0.059l0.63-0.487l-0.526-0.7c-0.077,0.047-0.145,0.082-0.2,0.126
		c-0.479,0.358-0.958,0.715-1.432,1.08c-0.125,0.107-0.245,0.221-0.358,0.34L29.267,17.132z"/>
</g>
</svg>
