<svg xmlns="http://www.w3.org/2000/svg" width="21.829" height="21.829" viewBox="0 0 21.829 21.829"><defs><style>.a{fill:#f3f3f3;}</style></defs><g transform="translate(0 0)"><g transform="translate(5.468 4.917)"><path class="a" d="M139.525,120.054a1.255,1.255,0,0,0-1.253-1.253h-2.3a3.783,3.783,0,0,0,1-1.988,1.382,1.382,0,0,0-.333-1.069,1.2,1.2,0,0,0-.9-.411h-.012a1.249,1.249,0,0,0-1.253,1.243,1.6,1.6,0,0,1-.454.623,3.56,3.56,0,0,1-1.357.794,1.662,1.662,0,0,0-.7.457,4.517,4.517,0,0,1-.471.434.7.7,0,0,0-.329-.082h-2.187a.707.707,0,0,0-.706.706v5.833a.707.707,0,0,0,.706.706h2.187a.707.707,0,0,0,.618-.365h5.582a1.071,1.071,0,0,0,.922-1.615,1.07,1.07,0,0,0,.365-1.458,1.07,1.07,0,0,0,.327-1.517A1.253,1.253,0,0,0,139.525,120.054Zm-1.253.57h-.182a.342.342,0,0,0,0,.684.387.387,0,1,1,0,.775h-.365a.342.342,0,0,0,0,.684.387.387,0,0,1,0,.775h-.365a.342.342,0,1,0,0,.684.387.387,0,0,1,0,.775h-5.493v-3.3a.342.342,0,1,0-.684,0v3.646a.023.023,0,0,1-.023.023h-2.187a.023.023,0,0,1-.023-.023v-5.833a.023.023,0,0,1,.023-.023h2.187a.023.023,0,0,1,.023.023v.729a.342.342,0,1,0,.684,0v-.729c0-.017,0-.033,0-.049a5.191,5.191,0,0,0,.595-.541.988.988,0,0,1,.411-.275,4.222,4.222,0,0,0,1.658-.989,1.782,1.782,0,0,0,.625-1.072.559.559,0,0,1,.167-.4.573.573,0,0,1,.408-.165.521.521,0,0,1,.391.182.707.707,0,0,1,.164.54,3.616,3.616,0,0,1-1.384,2.139.342.342,0,0,0,.215.607h3.155a.57.57,0,0,1,0,1.139Z" transform="translate(-128.267 -115.333)"/></g><g transform="translate(6.925 13.486)"><path class="a" d="M162.774,316.306a.344.344,0,1,0,.344.344A.345.345,0,0,0,162.774,316.306Z" transform="translate(-162.43 -316.306)"/></g><g transform="translate(0 0)"><path class="a" d="M21.219,10.915l.587-1.554a.342.342,0,0,0-.053-.335l-1.039-1.3.078-1.659a.342.342,0,0,0-.154-.3l-1.388-.912-.438-1.6a.342.342,0,0,0-.239-.239l-1.6-.438-.912-1.388a.342.342,0,0,0-.3-.154L14.1,1.114,12.8.075a.342.342,0,0,0-.335-.053L10.914.61,9.36.022a.342.342,0,0,0-.335.053L7.73,1.114,6.07,1.036a.341.341,0,0,0-.3.154L4.857,2.578l-1.6.438a.342.342,0,0,0-.239.239l-.438,1.6-1.388.912a.342.342,0,0,0-.154.3L1.113,7.73.075,9.026a.342.342,0,0,0-.053.335l.587,1.554L.022,12.468a.342.342,0,0,0,.053.335l1.039,1.3-.078,1.659a.342.342,0,0,0,.154.3l1.388.912.438,1.6a.342.342,0,0,0,.239.239l1.6.438.912,1.388a.343.343,0,0,0,.3.154l1.659-.078,1.3,1.039a.342.342,0,0,0,.335.053l1.554-.587,1.554.587a.342.342,0,0,0,.335-.053l1.3-1.039,1.659.078a.342.342,0,0,0,.3-.154l.912-1.388,1.6-.438a.342.342,0,0,0,.239-.239l.438-1.6,1.388-.912a.342.342,0,0,0,.154-.3L20.715,14.1l1.039-1.3a.342.342,0,0,0,.053-.335Zm-.685.121.564,1.492-1,1.245a.342.342,0,0,0-.075.23L20.1,15.6l-1.333.876a.342.342,0,0,0-.142.2L18.2,18.206l-1.539.421a.342.342,0,0,0-.2.142L15.6,20.1,14,20.026a.342.342,0,0,0-.23.075l-1.245,1-1.492-.564a.342.342,0,0,0-.242,0L9.3,21.1l-1.245-1a.342.342,0,0,0-.23-.075L6.233,20.1l-.876-1.333a.342.342,0,0,0-.2-.142l-1.539-.421L3.2,16.667a.342.342,0,0,0-.142-.2L1.727,15.6,1.8,14a.342.342,0,0,0-.075-.23l-1-1.245.564-1.492a.342.342,0,0,0,0-.242L.73,9.3l1-1.245a.342.342,0,0,0,.075-.23L1.727,6.234,3.06,5.358a.342.342,0,0,0,.142-.2l.421-1.539L5.162,3.2a.342.342,0,0,0,.2-.142l.876-1.333L7.826,1.8a.342.342,0,0,0,.23-.075L9.3.731l1.492.564a.342.342,0,0,0,.242,0L12.527.731l1.245,1A.342.342,0,0,0,14,1.8L15.6,1.728l.876,1.333a.342.342,0,0,0,.2.142l1.539.421.421,1.539a.342.342,0,0,0,.142.2l1.333.876-.075,1.593a.342.342,0,0,0,.075.23l1,1.245-.564,1.492A.342.342,0,0,0,20.534,11.035Z" transform="translate(0 0)"/></g><g transform="translate(16.227 4.387)"><path class="a" d="M381.732,103.516c-.085-.093-.173-.185-.262-.274s-.181-.177-.274-.262a.342.342,0,0,0-.462.5c.085.078.17.16.253.242s.164.167.242.253a.342.342,0,0,0,.5-.462Z" transform="translate(-380.623 -102.89)"/></g><g transform="translate(2.176 2.184)"><path class="a" d="M64.457,52.573A8.728,8.728,0,0,0,53.09,65.55a.342.342,0,0,0,.523-.44A8.045,8.045,0,0,1,64.09,53.149a.342.342,0,0,0,.367-.576Z" transform="translate(-51.047 -51.212)"/></g><g transform="translate(5.17 6.069)"><path class="a" d="M134.365,142.49a.342.342,0,1,0-.576.367,8.045,8.045,0,0,1-11.961,10.477.342.342,0,1,0-.44.523A8.693,8.693,0,0,0,127,155.9q.178,0,.358-.007a8.729,8.729,0,0,0,7.01-13.4Z" transform="translate(-121.266 -142.332)"/></g></g></svg>