<svg xmlns="http://www.w3.org/2000/svg" width="683" height="683" viewBox="0 0 683 683" version="1.1"><path d="M 481.279 446.412 C 477.308 447.070, 473.708 447.984, 473.279 448.445 C 472.851 448.905, 473.644 449.008, 475.042 448.674 C 476.440 448.340, 480.152 447.765, 483.292 447.396 C 486.431 447.027, 489 446.337, 489 445.862 C 489 445.388, 488.887 445.048, 488.750 445.108 C 488.613 445.167, 485.251 445.754, 481.279 446.412" stroke="none" fill="#f1d9f1" fill-rule="evenodd"/><path d="M 5 140.709 C 4.175 141.013, 2.713 141.947, 1.750 142.785 C 0.151 144.179, 0 147.098, 0 176.655 C 0 207.667, 0.082 209.082, 2 211 C 4.169 213.169, 9.830 213.696, 12.961 212.021 C 16.388 210.187, 17 205.464, 17 180.851 L 17 157 42.545 157 L 68.091 157 70.545 154.545 C 73.986 151.105, 73.807 146.653, 70.077 142.923 L 67.154 140 36.827 140.079 C 20.147 140.122, 5.825 140.406, 5 140.709 M 612.964 142.883 C 609.193 146.653, 608.999 151.090, 612.455 154.545 L 614.909 157 640.455 157 L 666 157 666 180.851 C 666 205.464, 666.612 210.187, 670.039 212.021 C 673.170 213.696, 678.831 213.169, 681 211 C 682.918 209.082, 683 207.667, 683 176.655 C 683 145.050, 682.952 144.266, 680.896 142.405 C 678.937 140.631, 676.637 140.480, 647.360 140.209 L 615.927 139.919 612.964 142.883 M 37.455 178.455 L 35 180.909 35 341.500 L 35 502.091 37.455 504.545 L 39.909 507 67.399 507 L 94.888 507 97.694 504.587 L 100.500 502.173 100.500 341.500 L 100.500 180.827 97.694 178.413 L 94.888 176 67.399 176 L 39.909 176 37.455 178.455 M 119.913 177.282 C 119.041 177.952, 117.803 179.483, 117.163 180.684 C 115.488 183.830, 115.488 499.170, 117.163 502.316 C 119.844 507.349, 125.791 508.526, 130.365 504.927 L 133 502.855 133 341.500 L 133 180.145 130.365 178.073 C 127.452 175.781, 122.369 175.397, 119.913 177.282 M 159.229 176.669 C 158.530 176.951, 157.292 178.468, 156.479 180.041 C 154.256 184.339, 154.241 498.631, 156.463 502.928 C 158.975 507.785, 165.499 508.592, 169.545 504.545 L 172 502.091 172 341.500 L 172 180.909 169.545 178.455 C 167.191 176.100, 162.612 175.308, 159.229 176.669 M 196.455 178.455 L 194 180.909 194 341.500 L 194 502.091 196.455 504.545 C 199.794 507.885, 205.206 507.885, 208.545 504.545 L 211 502.091 211 341.500 L 211 180.909 208.545 178.455 C 206.851 176.760, 204.979 176, 202.500 176 C 200.021 176, 198.149 176.760, 196.455 178.455 M 234.924 178.581 L 232.500 181.161 232.500 341.500 L 232.500 501.839 234.924 504.419 C 237.931 507.620, 242.674 507.831, 246.365 504.927 L 249 502.855 249 341.500 L 249 180.145 246.365 178.073 C 242.674 175.169, 237.931 175.380, 234.924 178.581 M 275.229 176.669 C 274.530 176.951, 273.292 178.468, 272.479 180.041 C 270.256 184.339, 270.241 498.631, 272.463 502.928 C 274.975 507.785, 281.499 508.592, 285.545 504.545 L 288 502.091 288 341.500 L 288 180.909 285.545 178.455 C 283.191 176.100, 278.612 175.308, 275.229 176.669 M 311.455 178.455 L 309 180.909 309 341.500 L 309 502.091 311.455 504.545 L 313.909 507 341.500 507 L 369.091 507 371.545 504.545 L 374 502.091 374 341.500 L 374 180.909 371.545 178.455 L 369.091 176 341.500 176 L 313.909 176 311.455 178.455 M 397.455 178.455 L 395 180.909 395 341.500 L 395 502.091 397.455 504.545 C 401.501 508.592, 408.025 507.785, 410.537 502.928 C 412.745 498.658, 412.745 184.342, 410.537 180.072 C 408.025 175.215, 401.501 174.408, 397.455 178.455 M 436.913 177.282 C 436.041 177.952, 434.803 179.483, 434.163 180.684 C 432.488 183.830, 432.488 499.170, 434.163 502.316 C 436.977 507.598, 443.419 508.672, 447.545 504.545 L 450 502.091 450 341.500 L 450 180.909 447.545 178.455 C 444.848 175.757, 439.647 175.183, 436.913 177.282 M 474.455 178.455 L 472 180.909 472 341.500 L 472 502.091 474.455 504.545 C 477.794 507.885, 483.206 507.885, 486.545 504.545 L 489 502.091 489 474.408 L 489 446.725 483.292 447.396 C 480.152 447.765, 476.440 448.340, 475.042 448.674 C 473.644 449.008, 472.851 448.905, 473.279 448.445 C 473.708 447.984, 477.308 447.119, 481.279 446.522 L 488.500 445.436 488.757 380.032 C 488.961 328.370, 488.750 314.459, 487.757 313.829 C 486.757 313.194, 486.756 313.027, 487.750 313.015 C 488.737 313.003, 489 299.116, 489 246.955 L 489 180.909 486.545 178.455 C 484.851 176.760, 482.979 176, 480.500 176 C 478.021 176, 476.149 176.760, 474.455 178.455 M 513.455 178.455 L 511 180.909 511 341.500 L 511 502.091 513.455 504.545 C 517.501 508.592, 524.025 507.785, 526.537 502.928 C 528.745 498.658, 528.745 184.342, 526.537 180.072 C 524.025 175.215, 517.501 174.408, 513.455 178.455 M 552.635 178.073 L 550 180.145 550 341.500 L 550 502.855 552.635 504.927 C 557.209 508.526, 563.156 507.349, 565.837 502.316 C 567.512 499.170, 567.512 183.830, 565.837 180.684 C 563.156 175.651, 557.209 174.474, 552.635 178.073 M 584.455 178.455 L 582 180.909 582 341.500 L 582 502.091 584.455 504.545 L 586.909 507 614.320 507 C 640.536 507, 641.845 506.910, 644.365 504.927 L 647 502.855 647 341.500 L 647 180.145 644.365 178.073 C 641.845 176.090, 640.536 176, 614.320 176 L 586.909 176 584.455 178.455 M 2.635 471.073 L 0 473.145 0 505.918 C 0 537.957, 0.047 538.733, 2.104 540.595 C 4.063 542.369, 6.363 542.520, 35.640 542.791 L 67.073 543.081 70.036 540.117 C 73.807 536.347, 74.001 531.910, 70.545 528.455 L 68.091 526 42.607 526 L 17.123 526 16.811 499.912 L 16.500 473.824 13.694 471.412 C 10.251 468.452, 6.127 468.325, 2.635 471.073 M 669.306 471.412 L 666.500 473.824 666.189 499.912 L 665.877 526 640.393 526 L 614.909 526 612.455 528.455 C 609.276 531.633, 609.260 536.028, 612.413 539.694 L 614.827 542.500 646.808 542.500 C 676.855 542.500, 678.917 542.385, 680.895 540.595 C 682.953 538.732, 683 537.965, 683 505.918 L 683 473.145 680.365 471.073 C 676.873 468.325, 672.749 468.452, 669.306 471.412" stroke="none" fill="#fcfcfc" fill-rule="evenodd"/></svg>