<?xml version="1.0" encoding="utf-8"?>
<!-- Generator: Adobe Illustrator 16.0.0, SVG Export Plug-In . SVG Version: 6.00 Build 0)  -->
<!DOCTYPE svg PUBLIC "-//W3C//DTD SVG 1.1//EN" "http://www.w3.org/Graphics/SVG/1.1/DTD/svg11.dtd">
<svg version="1.1" id="Layer_1" xmlns="http://www.w3.org/2000/svg" xmlns:xlink="http://www.w3.org/1999/xlink" x="0px" y="0px"
	 width="21.829px" height="21.829px" viewBox="0 0 21.829 21.829" enable-background="new 0 0 21.829 21.829" xml:space="preserve">
<g transform="translate(0 0)">
	<g transform="translate(5.468 4.917)">
		<linearGradient id="SVGID_1_" gradientUnits="userSpaceOnUse" x1="5.6306" y1="10.7143" x2="5.6306" y2="4.806519e-004">
			<stop  offset="0" style="stop-color:#0ED7CE"/>
			<stop  offset="1" style="stop-color:#6055E0"/>
		</linearGradient>
		<path fill="url(#SVGID_1_)" d="M11.258,4.721c-0.001-0.692-0.562-1.252-1.253-1.253H7.704c0.525-0.547,0.874-1.24,1-1.988
			c0.045-0.387-0.076-0.775-0.332-1.069C8.146,0.151,7.818,0.001,7.472,0H7.46C6.771-0.002,6.21,0.554,6.206,1.243
			C6.109,1.484,5.952,1.698,5.753,1.866C5.365,2.229,4.902,2.5,4.396,2.66c-0.268,0.09-0.509,0.248-0.7,0.457
			c-0.146,0.155-0.304,0.3-0.471,0.434C3.124,3.497,3.011,3.469,2.896,3.469H0.709C0.319,3.47,0.004,3.785,0.003,4.175v5.833
			c0,0.391,0.316,0.706,0.706,0.707h2.187c0.257,0,0.494-0.141,0.618-0.365h5.582c0.591,0,1.071-0.48,1.07-1.072
			c0-0.19-0.052-0.379-0.148-0.543c0.5-0.305,0.663-0.953,0.365-1.458c0.505-0.308,0.665-0.966,0.356-1.47
			c-0.01-0.016-0.02-0.031-0.029-0.047C11.054,5.525,11.259,5.136,11.258,4.721z M10.005,5.291H9.824
			c-0.189,0-0.342,0.154-0.342,0.343c0,0.188,0.152,0.341,0.342,0.341c0.213,0,0.387,0.173,0.387,0.387
			c0,0.214-0.174,0.387-0.387,0.387H9.458C9.269,6.75,9.116,6.904,9.116,7.093c0.001,0.188,0.153,0.34,0.342,0.341
			c0.214,0,0.387,0.173,0.387,0.388c0,0.214-0.173,0.387-0.387,0.387H9.093c-0.189,0-0.342,0.152-0.343,0.342
			s0.152,0.342,0.341,0.343c0.001,0,0.002,0,0.002,0c0.214,0,0.387,0.173,0.387,0.388c0,0.214-0.173,0.387-0.387,0.387H3.6V6.368
			c0-0.189-0.153-0.342-0.342-0.342S2.916,6.179,2.916,6.368v3.646c0,0.013-0.01,0.022-0.023,0.022H0.706
			c-0.013,0-0.023-0.01-0.023-0.022V4.181c0-0.013,0.01-0.023,0.023-0.023h2.187c0.013,0,0.023,0.01,0.023,0.023V4.91
			c0,0.188,0.153,0.342,0.342,0.342S3.6,5.099,3.6,4.91V4.181c0-0.017,0-0.033,0-0.049c0.212-0.165,0.411-0.345,0.595-0.541
			c0.111-0.125,0.253-0.22,0.411-0.275C5.228,3.119,5.795,2.78,6.264,2.327c0.33-0.271,0.552-0.651,0.625-1.072
			c-0.001-0.15,0.06-0.294,0.167-0.4C7.165,0.748,7.312,0.688,7.464,0.69c0.15,0.001,0.293,0.068,0.391,0.182
			c0.127,0.149,0.188,0.345,0.164,0.54C7.832,2.27,7.341,3.029,6.635,3.551C6.489,3.67,6.466,3.886,6.586,4.032
			C6.651,4.111,6.747,4.158,6.85,4.158h3.155c0.314,0.013,0.559,0.279,0.545,0.593c-0.012,0.296-0.249,0.533-0.545,0.545V5.291z"/>
	</g>
	<g transform="translate(6.925 13.486)">
		<linearGradient id="SVGID_2_" gradientUnits="userSpaceOnUse" x1="0.3436" y1="0.6883" x2="0.3436" y2="-1.602173e-004">
			<stop  offset="0" style="stop-color:#0ED7CE"/>
			<stop  offset="1" style="stop-color:#6055E0"/>
		</linearGradient>
		<path fill="url(#SVGID_2_)" d="M0.344,0C0.154,0,0,0.154,0,0.345c0,0.189,0.154,0.344,0.344,0.344s0.344-0.154,0.344-0.344l0,0
			C0.687,0.154,0.534,0.001,0.344,0z"/>
	</g>
	<g transform="translate(0 0)">
		<linearGradient id="SVGID_3_" gradientUnits="userSpaceOnUse" x1="10.915" y1="21.8296" x2="10.915" y2="4.882813e-004">
			<stop  offset="0" style="stop-color:#0ED7CE"/>
			<stop  offset="1" style="stop-color:#6055E0"/>
		</linearGradient>
		<path fill="url(#SVGID_3_)" d="M21.219,10.915l0.587-1.554c0.042-0.113,0.022-0.24-0.054-0.335l-1.039-1.3l0.078-1.659
			c0.006-0.12-0.053-0.234-0.153-0.3L19.25,4.855l-0.438-1.6c-0.032-0.116-0.122-0.207-0.239-0.239l-1.6-0.438L16.061,1.19
			c-0.066-0.101-0.18-0.159-0.3-0.154L14.1,1.114l-1.301-1.039C12.706,0,12.579-0.021,12.465,0.022L10.914,0.61L9.36,0.022
			C9.247-0.021,9.12,0,9.025,0.075L7.73,1.114L6.07,1.036C5.95,1.031,5.836,1.089,5.77,1.19L4.857,2.578l-1.6,0.438
			C3.141,3.048,3.05,3.139,3.018,3.255l-0.438,1.6L1.192,5.767c-0.101,0.066-0.159,0.18-0.154,0.3L1.113,7.73L0.075,9.026
			C0,9.121-0.021,9.248,0.022,9.361l0.587,1.554l-0.587,1.552C-0.021,12.581,0,12.708,0.075,12.803l1.039,1.3l-0.078,1.659
			c-0.005,0.12,0.053,0.234,0.154,0.3l1.388,0.912l0.438,1.601c0.032,0.115,0.123,0.207,0.239,0.238l1.6,0.438l0.912,1.389
			c0.066,0.1,0.18,0.158,0.3,0.154l1.659-0.078l1.3,1.039c0.095,0.075,0.222,0.096,0.335,0.053l1.554-0.587l1.554,0.587
			c0.113,0.043,0.24,0.022,0.335-0.053l1.3-1.039l1.659,0.078c0.12,0.004,0.233-0.055,0.3-0.154l0.912-1.389l1.6-0.438
			c0.117-0.031,0.207-0.123,0.239-0.238l0.438-1.601l1.388-0.912c0.101-0.065,0.159-0.18,0.153-0.3L20.715,14.1l1.039-1.301
			c0.075-0.094,0.096-0.221,0.053-0.334L21.219,10.915z M20.534,11.036l0.564,1.492l-1,1.245c-0.053,0.065-0.079,0.147-0.075,0.229
			L20.1,15.6l-1.333,0.876c-0.07,0.047-0.121,0.118-0.142,0.2L18.2,18.206l-1.539,0.422c-0.082,0.021-0.152,0.071-0.199,0.142
			L15.6,20.1L14,20.026c-0.084-0.004-0.166,0.023-0.23,0.075l-1.245,1l-1.492-0.563c-0.078-0.03-0.164-0.03-0.242,0L9.3,21.1
			l-1.245-1c-0.065-0.053-0.147-0.079-0.23-0.075L6.233,20.1l-0.876-1.333c-0.047-0.07-0.118-0.121-0.2-0.142l-1.539-0.422
			L3.2,16.667c-0.021-0.082-0.072-0.152-0.142-0.199L1.727,15.6L1.8,14c0.004-0.084-0.022-0.166-0.075-0.23l-1-1.245l0.564-1.492
			c0.029-0.078,0.029-0.164,0-0.242L0.73,9.3l1-1.245c0.052-0.065,0.079-0.147,0.075-0.23L1.727,6.234L3.06,5.358
			c0.07-0.047,0.121-0.118,0.142-0.2l0.421-1.539L5.162,3.2c0.082-0.021,0.153-0.072,0.2-0.142l0.876-1.333L7.826,1.8
			c0.083,0.004,0.165-0.022,0.23-0.075L9.3,0.731l1.492,0.564c0.078,0.03,0.164,0.03,0.242,0l1.493-0.564l1.245,1
			C13.837,1.781,13.918,1.805,14,1.8l1.6-0.072l0.876,1.333c0.047,0.07,0.118,0.121,0.2,0.142l1.539,0.421l0.421,1.539
			c0.021,0.082,0.071,0.153,0.142,0.2l1.333,0.876l-0.075,1.593c-0.004,0.083,0.023,0.165,0.075,0.23l1,1.245l-0.563,1.492
			C20.514,10.874,20.51,10.957,20.534,11.036L20.534,11.036z"/>
	</g>
	<g transform="translate(16.227 4.387)">
		<linearGradient id="SVGID_4_" gradientUnits="userSpaceOnUse" x1="0.5997" y1="1.1716" x2="0.5997" y2="0.0202">
			<stop  offset="0" style="stop-color:#0ED7CE"/>
			<stop  offset="1" style="stop-color:#6055E0"/>
		</linearGradient>
		<path fill="url(#SVGID_4_)" d="M1.109,0.626C1.023,0.533,0.936,0.441,0.848,0.352C0.758,0.263,0.666,0.175,0.572,0.09
			c-0.15-0.114-0.364-0.084-0.479,0.066c-0.099,0.13-0.092,0.312,0.018,0.434c0.084,0.078,0.17,0.16,0.252,0.242
			c0.084,0.082,0.164,0.167,0.242,0.253c0.142,0.125,0.357,0.113,0.483-0.028c0.108-0.122,0.116-0.304,0.017-0.434L1.109,0.626z"/>
	</g>
	<g transform="translate(2.176 2.184)">
		<linearGradient id="SVGID_5_" gradientUnits="userSpaceOnUse" x1="6.7766" y1="14.4503" x2="6.7766" y2="-0.0014">
			<stop  offset="0" style="stop-color:#0ED7CE"/>
			<stop  offset="1" style="stop-color:#6055E0"/>
		</linearGradient>
		<path fill="url(#SVGID_5_)" d="M13.41,1.361C9.342-1.225,3.948-0.022,1.363,4.046c-2.042,3.212-1.766,7.376,0.68,10.292
			c0.127,0.14,0.344,0.15,0.483,0.022c0.132-0.12,0.149-0.321,0.04-0.462C-0.289,10.494,0.156,5.42,3.56,2.564
			c2.687-2.253,6.523-2.507,9.483-0.627c0.164,0.093,0.373,0.034,0.465-0.13C13.594,1.655,13.551,1.462,13.41,1.361z"/>
	</g>
	<g transform="translate(5.17 6.069)">
		<linearGradient id="SVGID_6_" gradientUnits="userSpaceOnUse" x1="7.225" y1="13.5682" x2="7.225" y2="-0.0158">
			<stop  offset="0" style="stop-color:#0ED7CE"/>
			<stop  offset="1" style="stop-color:#6055E0"/>
		</linearGradient>
		<path fill="url(#SVGID_6_)" d="M13.099,0.158c-0.093-0.165-0.302-0.223-0.466-0.13s-0.223,0.301-0.131,0.466
			c0.007,0.011,0.014,0.021,0.021,0.031c2.382,3.751,1.272,8.723-2.478,11.104c-2.961,1.881-6.797,1.627-9.483-0.627
			c-0.14-0.127-0.356-0.117-0.483,0.022c-0.127,0.14-0.117,0.356,0.022,0.483c0.006,0.006,0.013,0.012,0.021,0.018
			c1.571,1.322,3.559,2.046,5.612,2.043c0.119,0,0.238-0.002,0.358-0.008c4.816-0.197,8.561-4.264,8.361-9.081
			c-0.063-1.533-0.529-3.023-1.352-4.319L13.099,0.158z"/>
	</g>
</g>
</svg>
