<svg xmlns="http://www.w3.org/2000/svg" width="26.71" height="26.711" viewBox="0 0 26.71 26.711"><defs><style>.a{fill:#f3f3f3;}</style></defs><g transform="translate(0)"><path class="a" d="M36.308,92.739H32.862V88.862h1.292V88H32v5.6h5.17V91.016h-.862Zm0,0" transform="translate(-30.276 -83.261)"/><path class="a" d="M59.51,85.055l-.557-.557-.609.609,1.166,1.166,3.32-3.32-.609-.609Zm0,0" transform="translate(-55.201 -77.91)"/><path class="a" d="M290.154,384a2.154,2.154,0,1,0,2.154,2.154A2.157,2.157,0,0,0,290.154,384Zm0,3.446a1.292,1.292,0,1,1,1.292-1.292A1.294,1.294,0,0,1,290.154,387.447Zm0,0" transform="translate(-272.49 -363.321)"/><path class="a" d="M25.489,2.591l-4.707-.941-1.948,8.658L9.478,8.435V0H2.838L0,2.837v9.226H4.748L3.525,17.688a1.408,1.408,0,0,0-1.113,1.044l-.219.874a1.334,1.334,0,0,0,1.051,1.634L13.8,23.195a3.876,3.876,0,1,0,7.32-2.1l2.163-9.518-1.38-2.738.84-3.677,2.049.41a1.514,1.514,0,0,0,.3.03h.1a1.52,1.52,0,0,0,.3-3.01ZM11.46,9.711l1.307.261-.578,2.021-1.307-.261Zm2.154.431,1.307.261-.578,2.021-1.307-.261ZM2.585,1.471V2.585H1.471ZM.862,3.447H3.447V.862h5.17V11.2H.862Zm8.616,8.616V9.314l1.134.227L9.8,12.394l5.155,1.031.815-2.853,2.877.576L16.87,19.038a3.869,3.869,0,0,0-1.74.867L4.392,17.758l1.238-5.7ZM3.016,19.929a.466.466,0,0,1,.014-.114l.218-.873a.558.558,0,0,1,.64-.4l10.573,2.115a3.846,3.846,0,0,0-.638,1.672L3.4,20.393a.472.472,0,0,1-.386-.464Zm14.648,5.92a3.016,3.016,0,1,1,3.016-3.016A3.019,3.019,0,0,1,17.664,25.849Zm1.827-6.434.565-2.471,1.081.216-.679,2.99a3.919,3.919,0,0,0-.966-.735Zm1.469-6.426,1.075.215-.708,3.116L20.247,16.1Zm1.42-1.3-.154.676-1.074-.215.456-1.994Zm-3.7,7.408a3.854,3.854,0,0,0-.909-.134L20.956,4.8l.947.19ZM25.191,4.739h-.1a.648.648,0,0,1-.129-.013l-3.821-.764.293-1.3,3.882.776a.658.658,0,0,1-.128,1.3Zm0,0"/></g></svg>