<svg id="Capa_1" enable-background="new 0 0 511.793 511.793" height="512" viewBox="0 0 511.793 511.793" width="512" xmlns="http://www.w3.org/2000/svg"><g id="XMLID_434_"><g id="XMLID_444_"><path d="m33.33 132.854h76.159v248.543h-76.159z" fill="#00607f"/></g><g id="XMLID_443_"><path d="m295.314 132.854h60.015v248.543h-60.015z" fill="#00465f"/></g><g id="XMLID_442_"><path id="XMLID_3625_" d="m159.076 132.854h30v248.543h-30z" fill="#00607f"/></g><g id="XMLID_441_"><path id="XMLID_3624_" d="m221.474 132.854h30v248.543h-30z" fill="#00607f"/></g><g id="XMLID_440_"><path id="XMLID_3623_" d="m402.33 132.854h30v248.543h-30z" fill="#00465f"/></g><g id="XMLID_439_"><path id="XMLID_3622_" d="m461.33 132.854h30v248.543h-30z" fill="#00465f"/></g><g id="XMLID_438_"><path id="XMLID_3621_" d="m30 90.897h-30v-70.5h71.659v30h-41.659z" fill="#ff5ca8"/></g><g id="XMLID_437_"><path id="XMLID_3620_" d="m511.793 90.897h-30v-40.5h-41.659v-30h71.659z" fill="#ff1786"/></g><g id="XMLID_436_"><path id="XMLID_3611_" d="m71.659 491.397h-71.659v-70.5h30v40.5h41.659z" fill="#ff5ca8"/></g><g id="XMLID_435_"><path id="XMLID_3610_" d="m511.793 491.397h-71.659v-30h41.659v-40.5h30z" fill="#ff1786"/></g></g></svg>