<svg xmlns="http://www.w3.org/2000/svg" viewBox="0 0 52 52" id="packages"><path fill="#F1C40F" d="m5.818 19.655 12.978-7.542 27.47 15.86-.084 14.485L33.204 50 5.734 34.14l.083-14.401z"></path><path fill="#ECF0F1" d="m18.796 12.113 27.47 15.86-.084 14.485L33.204 50 5.734 34.14l.084-14.485z"></path><path fill="#D6B218" d="m46.266 27.973-.084 14.485L33.204 50l.084-14.485z"></path><path fill="#E5BD13" d="M33.288 35.515 33.204 50 5.734 34.14l.084-14.485z"></path><path fill="#D6B218" d="m7.504 22.943-.539-.311-.076 9.836.543-.273z"></path><path fill="#F1C40F" d="m7.432 32.195-.543.273 25.168 14.531.005-.584z"></path><path fill="#C6A51A" d="m7.504 22.943-.072 9.252 24.63 14.22.071-9.252z"></path><path fill="#ECF0F1" d="m22.647 32.757-.041 5.269 8.062 4.654.04-5.269z"></path><path fill="#E5BD13" d="m44.441 31.318.539-.311.076 9.836-.543-.273z"></path><path fill="#F1C40F" d="m44.513 40.57.543.273-10.566 6.099-.004-.584z"></path><path fill="#C6A51A" d="m44.441 31.318.072 9.252-10.027 5.788-.071-9.252z"></path><path fill="#F1C40F" d="m46.266 27.973-12.978 7.542-27.47-15.86 12.978-7.542z"></path><path fill="#EAAA42" d="M18.797 13.446v.616l9.527 5.502.532-.309z"></path><path fill="#D6B218" d="m8.119 19.652.531.307 10.147-5.897v-.616z"></path><path fill="#E5BD13" d="m28.324 19.564-9.527-5.502L8.65 19.959l9.526 5.502z"></path><path fill="#C6A51A" d="M30.359 20.118v.616l12.195 7.039.532-.309z"></path><path fill="#D6B218" d="m19.68 26.324.532.307 10.147-5.897v-.616z"></path><path fill="#E5BD13" d="m42.554 27.773-12.195-7.039-10.147 5.897 12.195 7.039z"></path><path fill="#3F434F" d="m36.3 40.614.427.814-.264.152-.584.335zM36.463 41.58l.004 1.609-.319.185-.005-1.609zM38.049 42.419l.001.345-2.205 1.273-.001-.345zM42.078 37.374l.003 1.146c.002.362-.208.783-.485.996l.003 1.033c.194-.09.341-.081.342.027l-.86.496c0-.108.146-.286.34-.42l-.002-1.034c-.127.05-.237.039-.322-.015-.101-.075-.168-.216-.168-.417l-.003-1.146 1.152-.666zM37.74 40.843l.005 1.609-.32.184-.004-1.609zM37.58 39.876l.425.814-.265.153-.582.333z"></path><path fill="#3F434F" d="M39.735 42.175c-.06-.033-.095-.101-.095-.187l-.01-3.442a.522.522 0 0 1 .238-.412l2.99-1.726c.072-.042.145-.047.204-.014.059.034.093.103.093.19l.01 3.442c0 .15-.104.335-.232.409l-2.99 1.726a.25.25 0 0 1-.123.036.163.163 0 0 1-.085-.022zm3.187-5.658-2.99 1.726a.405.405 0 0 0-.176.303l.01 3.442c0 .038.012.066.03.077.02.009.05.007.083-.013l2.99-1.726a.394.394 0 0 0 .17-.3l-.01-3.442c0-.04-.011-.07-.03-.08a.048.048 0 0 0-.021-.006.114.114 0 0 0-.056.019zm-7.64 8.227c-.06-.034-.092-.102-.092-.186l-.01-3.442a.518.518 0 0 1 .237-.412l2.99-1.727c.073-.042.145-.048.205-.013.06.034.092.103.092.189l.01 3.443a.513.513 0 0 1-.232.41l-2.99 1.725a.241.241 0 0 1-.122.035.175.175 0 0 1-.089-.022zm3.19-5.658-2.99 1.727a.403.403 0 0 0-.176.303l.01 3.442c0 .037.01.065.03.077.019.009.05.006.083-.013l2.989-1.726a.395.395 0 0 0 .171-.3l-.01-3.443c0-.04-.012-.068-.03-.08a.052.052 0 0 0-.023-.004.12.12 0 0 0-.054.017z"></path><g fill="#B0B3BD"><path d="m23.28 37.76-.001.17 6.672 3.852v-.17zM23.281 37.251l-.001.17 6.672 3.852.001-.17zM23.282 36.742v.17l6.672 3.852v-.17zM23.284 36.233l-.001.17 6.672 3.851.001-.169zM23.285 35.724v.17l6.672 3.851v-.169zM23.287 35.215l-.001.17 6.672 3.851v-.169zM23.288 34.706v.169l6.671 3.852.001-.169zM23.29 34.197l-.001.169 6.672 3.852v-.169zM23.291 33.688v.169l6.671 3.852.001-.169z"></path></g><path fill="#ECF0F1" d="m8.003 28.976-.022 2.879 4.406 2.544.022-2.88z"></path><g fill="#B0B3BD"><path d="m8.349 31.71-.001.093 3.647 2.105v-.093zM8.35 31.432l-.001.093 3.647 2.105v-.093zM8.35 31.154v.092l3.646 2.106.001-.093zM8.351 30.875v.093l3.646 2.105v-.092zM8.352 30.597v.093l3.646 2.105v-.093zM8.353 30.319l-.001.093 3.647 2.105v-.093zM8.353 30.041v.092L12 32.239v-.093zM8.354 29.762v.093L12 31.96l.001-.092zM8.355 29.484v.093l3.646 2.105v-.092z"></path></g><path fill="#D6B218" d="m38.848 8.836-.058 15.28-12.293 7.144.058-15.28z"></path><path fill="#E5BD13" d="m26.555 15.98-.058 15.28-11.841-6.836.058-15.28z"></path><path fill="#D6B218" d="m15.889 11.435-.375-.217-.054 6.852.379-.19z"></path><path fill="#F1C40F" d="m15.839 17.88-.379.19 10.238 5.91.003-.407z"></path><path fill="#C6A51A" d="m15.889 11.435-.05 6.445 9.862 5.693.049-6.445z"></path><path fill="#D6B218" d="m15.889 19.646-.375-.216-.054 3.846.379-.19z"></path><path fill="#F1C40F" d="m15.839 23.086-.379.19 10.238 5.91.003-.407z"></path><path fill="#C6A51A" d="m15.889 19.646-.05 3.44 9.862 5.693.049-3.439z"></path><path fill="#E5BD13" d="m37.577 11.166.375-.216.053 6.852-.378-.191z"></path><path fill="#F1C40F" d="m37.627 17.611.378.191-10.613 6.139-.003-.407z"></path><path fill="#C6A51A" d="m37.577 11.166.05 6.445-10.238 5.923-.049-6.445z"></path><path fill="#E5BD13" d="m37.577 19.378.375-.217.053 3.846-.378-.19z"></path><path fill="#F1C40F" d="m37.627 22.817.378.19v.001l-10.613 6.139-.003-.407z"></path><path fill="#C6A51A" d="m37.577 19.378.05 3.439-10.238 5.923-.049-3.439z"></path><path fill="#F1C40F" d="M38.848 8.836 26.555 15.98 14.714 9.144 27.007 2z"></path><path fill="#C6A51A" d="M27.008 2.928v.43l3.919 2.262.37-.216z"></path><path fill="#D6B218" d="m16.317 9.142.371.214 10.32-5.998v-.43z"></path><path fill="#E5BD13" d="m30.927 5.62-3.919-2.262-10.32 5.998 3.917 2.261z"></path><path fill="#C6A51A" d="M32.344 6.006v.429l3.918 2.262.371-.215z"></path><path fill="#D6B218" d="m21.653 12.219.37.214 10.321-5.998v-.429z"></path><path fill="#E5BD13" d="m36.262 8.697-3.918-2.262-10.321 5.998 3.918 2.262z"></path><path fill="#3F434F" d="m33.308 14.347.242.461-.15.087-.331.19zM33.4 14.895l.003.913-.182.105-.002-.913zM34.301 15.371v.196l-1.251.722-.001-.195zM36.588 12.507l.002.651a.769.769 0 0 1-.276.565l.001.587c.111-.051.194-.047.195.015l-.488.281c0-.06.082-.162.193-.238l-.002-.587c-.072.029-.134.022-.183-.009-.057-.042-.094-.122-.095-.236l-.002-.65.655-.379zM34.125 14.476l.003.913-.181.105-.003-.913z"></path><path fill="#3F434F" d="m34.034 13.927.241.463-.15.086-.33.19z"></path><path fill="#3F434F" d="M35.258 15.232c-.034-.018-.054-.057-.054-.106l-.006-1.953a.297.297 0 0 1 .135-.234l1.697-.98c.041-.024.083-.027.116-.008.033.02.053.059.053.108l.006 1.954c0 .085-.06.19-.132.232l-1.697.98a.142.142 0 0 1-.07.02.093.093 0 0 1-.048-.013zm1.809-3.211-1.698.98a.23.23 0 0 0-.1.172l.006 1.953c0 .022.007.038.018.044.01.005.027.004.046-.007l1.698-.98a.224.224 0 0 0 .096-.17l-.006-1.954c0-.022-.006-.04-.017-.046a.027.027 0 0 0-.012-.003.065.065 0 0 0-.031.01zm-4.337 4.67c-.034-.02-.052-.058-.052-.106l-.006-1.954a.294.294 0 0 1 .135-.234l1.697-.98c.041-.024.082-.027.116-.007s.053.059.053.107l.005 1.955c0 .087-.057.189-.132.232l-1.697.98a.137.137 0 0 1-.07.02.1.1 0 0 1-.05-.013zm1.81-3.212-1.697.98a.229.229 0 0 0-.1.172l.006 1.954c0 .021.006.037.017.044.011.005.029.003.047-.007l1.697-.98a.224.224 0 0 0 .097-.17l-.006-1.955c0-.022-.006-.039-.017-.045a.03.03 0 0 0-.013-.003.068.068 0 0 0-.03.01z"></path></svg>