<svg xmlns="http://www.w3.org/2000/svg" width="32" height="32" id="delivery"><path fill="#576d7e" style="line-height:normal;text-indent:0;text-align:start;text-decoration-line:none;text-decoration-style:solid;text-decoration-color:#000;text-transform:none;block-progression:tb;isolation:auto;mix-blend-mode:normal" d="m-981.184 1420.17-3.6 3.75.704.676 3.601-3.75-.705-.676z" color="#000" font-family="sans-serif" font-weight="400" overflow="visible" transform="translate(999.531 -1406.633)"></path><path fill="#576d7e" style="line-height:normal;text-indent:0;text-align:start;text-decoration-line:none;text-decoration-style:solid;text-decoration-color:#000;text-transform:none;block-progression:tb;isolation:auto;mix-blend-mode:normal" d="M-981.736 1419.416a.488.488 0 0 0-.34.836l1.5 1.5a.488.488 0 1 0 .69-.69l-1.5-1.5a.488.488 0 0 0-.35-.146z" color="#000" font-family="sans-serif" font-weight="400" overflow="visible" transform="translate(999.531 -1406.633)"></path><path fill="#fcd062" fill-rule="evenodd" d="m13.525 22.5 1.8-6.975 1.95.975-.3.975-.225 1.05-.225.975h.975s.975 0 .975.975h3V19.5c0-.975.525-.975 1.05-.975H26.5c.975 0 2.025.975 2.025 1.95v3h-15z"></path><path fill="#34485c" style="line-height:normal;text-indent:0;text-align:start;text-decoration-line:none;text-decoration-style:solid;text-decoration-color:#000;text-transform:none;block-progression:tb;isolation:auto;mix-blend-mode:normal" d="M-986.977 1422.121v.975h1.946v-.975h-1.946z" color="#000" font-family="sans-serif" font-weight="400" overflow="visible" transform="translate(999.531 -1406.633)"></path><path fill="#576d7e" d="M22.975 17.475h1.05V19.5h-1.05v-2.025z"></path><path fill="#34485c" style="line-height:normal;text-indent:0;text-align:start;text-decoration-line:none;text-decoration-style:solid;text-decoration-color:#000;text-transform:none;block-progression:tb;isolation:auto;mix-blend-mode:normal" d="M-979.932 1412.145c-.464 0-1.067.153-1.672.51-.604.355-1.197.943-1.423 1.804l-.526 1.947-.523 1.95-.526 1.95-.525 1.95-.525 1.951-.528 1.961-.797 3.768.954.2.79-3.74.522-1.937.525-1.95.526-1.95.525-1.95.524-1.949.525-1.951h.002c.149-.564.529-.95.975-1.213.445-.263.966-.373 1.177-.373h4.126c.677 0 1.402.32 1.94.81.54.49.872 1.13.872 1.702v10.05h.975v-10.05c0-.929-.491-1.789-1.19-2.424-.698-.635-1.625-1.065-2.598-1.065h-4.125z" color="#000" font-family="sans-serif" font-weight="400" overflow="visible" transform="translate(999.531 -1406.633)"></path><path fill="#fcd062" fill-rule="evenodd" d="M16 20.475h5.475V19.5c0-.975.525-.975 1.05-.975H26.5c.975 0 2.025.975 2.025 1.95v3H16z"></path><path fill="#576d7e" style="line-height:normal;text-indent:0;text-align:start;text-decoration-line:none;text-decoration-style:solid;text-decoration-color:#000;text-transform:none;block-progression:tb;isolation:auto;mix-blend-mode:normal" d="M-974.54 1420.164a.488.488 0 0 0-.48.494v2.512h-2.511a.488.488 0 1 0 0 .974h3.488v-3.486a.488.488 0 0 0-.496-.494z" color="#000" font-family="sans-serif" font-weight="400" overflow="visible" transform="translate(999.531 -1406.633)"></path><path fill="#fcd062" fill-rule="evenodd" d="M3.025 24H10z"></path><path fill="#34485c" style="line-height:normal;text-indent:0;text-align:start;text-decoration-line:none;text-decoration-style:solid;text-decoration-color:#000;text-transform:none;block-progression:tb;isolation:auto;mix-blend-mode:normal" d="M-983.38 1430.145v.976h9.9v-.977h-9.9z" color="#000" font-family="sans-serif" font-weight="400" overflow="visible" transform="translate(999.531 -1406.633)"></path><path fill="#576d7e" d="M29.5 24.75c0 1.275-.975 2.25-2.25 2.25S25 26.025 25 24.75s.975-2.25 2.25-2.25 2.25.975 2.25 2.25z"></path><path fill="#34485c" d="M28 24.75c0 .45-.3.75-.75.75s-.75-.301-.75-.75c0-.45.3-.75.75-.75s.75.301.75.75z"></path><path fill="#34485c" style="line-height:normal;text-indent:0;text-align:start;text-decoration-line:none;text-decoration-style:solid;text-decoration-color:#000;text-transform:none;block-progression:tb;isolation:auto;mix-blend-mode:normal" d="M-987.02 1411.133v21h.977v-21h-.977zm-10.011 19.988v.975h7.5v-.975h-7.5z" color="#000" font-family="sans-serif" font-weight="400" overflow="visible" transform="translate(999.531 -1406.633)"></path><path fill="#34485c" style="line-height:normal;text-indent:0;text-align:start;text-decoration-line:none;text-decoration-style:solid;text-decoration-color:#000;text-transform:none;block-progression:tb;isolation:auto;mix-blend-mode:normal" d="M-990.02 1424.107v7.989h.977v-7.989h-.977z" color="#000" font-family="sans-serif" font-weight="400" overflow="visible" transform="translate(999.531 -1406.633)"></path><path fill="#34485c" style="line-height:normal;text-indent:0;text-align:start;text-decoration-line:none;text-decoration-style:solid;text-decoration-color:#000;text-transform:none;block-progression:tb;isolation:auto;mix-blend-mode:normal" d="M-989.531 1425.121v.975h3v-.975h-3zm0 2.024v.976h3.525v-.977h-3.525z" color="#000" font-family="sans-serif" font-weight="400" overflow="visible" transform="translate(999.531 -1406.633)"></path><path fill="#576d7e" d="M19.45 24c0 1.65-1.35 3-3 3s-3-1.35-3-3 1.35-3 3-3 3 1.35 3 3z"></path><path fill="#34485c" d="M17.5 24c0 .525-.45.975-1.05.975a.992.992 0 0 1-.975-.975c0-.525.45-.975.975-.975.6 0 1.05.45 1.05.975z"></path><path fill="#fcd062" d="M3.475 19.5H8.5v5.025H3.475z"></path><path fill="#e9eded" d="M5.05 19.5h1.875v1.95l-.45-.375-.45.375-.525-.375-.45.375z"></path></svg>