<svg xmlns="http://www.w3.org/2000/svg" fill-rule="evenodd" stroke-linejoin="round" stroke-miterlimit="2" clip-rule="evenodd" viewBox="0 0 512 512" id="attendance-list"><path d="M1915.6,594.866L1872.24,594.866C1869.48,594.866 1867.24,597.104 1867.24,599.866L1867.24,616.731L1785.82,616.731C1783.06,616.731 1780.82,618.97 1780.82,621.731L1780.82,1058C1780.82,1060.76 1783.06,1063 1785.82,1063L2098.18,1063C2100.94,1063 2103.18,1060.76 2103.18,1058L2103.18,621.731C2103.18,618.97 2100.94,616.731 2098.18,616.731L2016.76,616.731L2016.76,599.866C2016.76,597.104 2014.52,594.866 2011.76,594.866L1968.4,594.866C1966.06,582.424 1955.12,573 1942,573C1928.88,573 1917.94,582.424 1915.6,594.866ZM2016.76,626.731L2016.76,638.39C2016.76,641.152 2014.52,643.39 2011.76,643.39L1872.24,643.39C1869.48,643.39 1867.24,641.152 1867.24,638.39L1867.24,626.731L1790.82,626.731C1790.82,626.731 1790.82,1053 1790.82,1053C1790.82,1053 2093.18,1053 2093.18,1053C2093.18,1053 2093.18,626.731 2093.18,626.731L2016.76,626.731ZM2066,939.866C2066,937.104 2063.76,934.866 2061,934.866L2021,934.866C2018.24,934.866 2016,937.104 2016,939.866L2016,979.866C2016,982.627 2018.24,984.866 2021,984.866L2061,984.866C2063.76,984.866 2066,982.627 2066,979.866L2066,939.866ZM2056,944.866L2056,974.865C2056,974.866 2026,974.866 2026,974.866C2026,974.866 2026,944.866 2026,944.866C2026,944.866 2056,944.866 2056,944.866ZM1823,964.866L1942,964.866C1944.76,964.866 1947,962.625 1947,959.866C1947,957.106 1944.76,954.866 1942,954.866L1823,954.866C1820.24,954.866 1818,957.106 1818,959.866C1818,962.625 1820.24,964.866 1823,964.866ZM2066,859.866C2066,857.104 2063.76,854.866 2061,854.866L2021,854.866C2018.24,854.866 2016,857.104 2016,859.866L2016,899.866C2016,902.627 2018.24,904.866 2021,904.866L2061,904.866C2063.76,904.866 2066,902.627 2066,899.866L2066,859.866ZM2056,864.866L2056,894.865C2056,894.866 2026,894.866 2026,894.866C2026,894.866 2026,864.866 2026,864.866C2026,864.866 2056,864.866 2056,864.866ZM1823,884.866L1942,884.866C1944.76,884.866 1947,882.625 1947,879.866C1947,877.106 1944.76,874.866 1942,874.866L1823,874.866C1820.24,874.866 1818,877.106 1818,879.866C1818,882.625 1820.24,884.866 1823,884.866ZM2066,779.866C2066,777.104 2063.76,774.866 2061,774.866L2021,774.866C2018.24,774.866 2016,777.104 2016,779.866L2016,819.866C2016,822.627 2018.24,824.866 2021,824.866L2061,824.866C2063.76,824.866 2066,822.627 2066,819.866L2066,779.866ZM2056,784.866L2056,814.865C2056,814.866 2026,814.866 2026,814.866C2026,814.866 2026,784.866 2026,784.866C2026,784.866 2056,784.866 2056,784.866ZM1823,804.866L1942,804.866C1944.76,804.866 1947,802.625 1947,799.866C1947,797.106 1944.76,794.866 1942,794.866L1823,794.866C1820.24,794.866 1818,797.106 1818,799.866C1818,802.625 1820.24,804.866 1823,804.866ZM2066,699.866C2066,697.104 2063.76,694.866 2061,694.866L2021,694.866C2018.24,694.866 2016,697.104 2016,699.866L2016,739.866C2016,742.627 2018.24,744.866 2021,744.866L2061,744.866C2063.76,744.866 2066,742.627 2066,739.866L2066,699.866ZM2056,704.866L2056,734.865C2056,734.866 2026,734.866 2026,734.866C2026,734.866 2026,704.866 2026,704.866C2026,704.866 2056,704.866 2056,704.866ZM1823,724.866L1942,724.866C1944.76,724.866 1947,722.625 1947,719.866C1947,717.106 1944.76,714.866 1942,714.866L1823,714.866C1820.24,714.866 1818,717.106 1818,719.866C1818,722.625 1820.24,724.866 1823,724.866ZM1877.24,621.732L1877.24,604.866L2006.76,604.866L2006.76,633.39C2006.76,633.39 1877.24,633.39 1877.24,633.39L1877.24,621.732ZM1958.11,594.866C1955.98,587.995 1949.57,583 1942,583C1934.43,583 1928.02,587.995 1925.89,594.866L1958.11,594.866Z" transform="translate(-1686 -562)"></path></svg>