<svg xmlns="http://www.w3.org/2000/svg" enable-background="new 0 0 64 64" viewBox="0 0 64 64" id="delivery"><path fill="#f4b2b0" d="M4.422,34.422l16.164,16.164c0.552,0.686,0.555,1.944,0,2.828l-8,8
		C12.211,61.789,11.702,62,11.172,62H4c-1.105,0-2-0.895-2-3.043V35.425C2,34.161,3.528,33.528,4.422,34.422z"></path><rect width="26" height="15" x="25" y="2" fill="#f4b2b0"></rect><g><path fill="#b3404a" d="M61.214,31.527c-1.131-0.677-2.5-0.706-3.698-0.059L56,32.371V17c0-0.553-0.448-1-1-1h-3V2
		c0-0.553-0.448-1-1-1H25c-0.552,0-1,0.447-1,1v14h-3c-0.552,0-1,0.447-1,1v11.157c-1.086,0.158-2.161,0.429-3.202,0.846
		c-0.062,0.025-0.123,0.057-0.179,0.094c-1.534,1.012-3.061,2.023-4.587,3.036c-1.508,1-3.017,2-4.533,3L6.864,35.45l-1.735-1.735
		C4.434,33.021,3.4,32.813,2.493,33.19C1.586,33.566,1,34.443,1,35.425v23.532C1,61.938,2.55,63,4,63h7.171
		c0.801,0,1.555-0.312,2.122-0.879l8-8c0.053-0.053,0.1-0.111,0.14-0.175c0.785-1.25,0.756-2.964-0.068-3.987
		c-0.022-0.028-0.046-0.055-0.072-0.08l-2.875-2.875l2.993-2.96h25.172c3.118-0.011,6.12-0.876,8.679-2.501l6.026-3.794
		C62.36,37.075,63,35.921,63,34.661C63,33.366,62.333,32.194,61.214,31.527z M26,3h24v13H26V3z M33,18h10v4H33V18z M22,18h9v5
		c0,0.553,0.448,1,1,1h12c0.552,0,1-0.447,1-1v-5h9v15.549c-2.483,1.418-5.318,2.05-8.121,1.816C45.95,35.087,46,34.8,46,34.5
		c0-1.93-1.57-3.5-3.5-3.5H32.193l-4.991-1.997c-1.677-0.671-3.439-1.006-5.202-1.006V18z M19.789,52.797l-7.91,7.91
		C11.69,60.896,11.438,61,11.171,61H4c-0.902,0-1-1.429-1-2.043V35.425c0-0.243,0.162-0.347,0.258-0.387
		c0.042-0.018,0.102-0.035,0.17-0.035c0.088,0,0.189,0.029,0.286,0.126l16.117,16.116C20.051,51.563,20.074,52.268,19.789,52.797z
		 M60.223,36.056l-6.03,3.797c-2.244,1.424-4.877,2.183-7.614,2.191H21c-0.263,0-0.516,0.104-0.703,0.289l-3.293,3.257l-8.649-8.649
		l0.093-0.046c0.036-0.018,0.07-0.038,0.103-0.06c1.534-1.012,3.061-2.023,4.587-3.036c1.496-0.991,2.993-1.983,4.496-2.976
		c2.851-1.113,5.98-1.101,8.825,0.037l5.17,2.068C31.747,32.976,31.873,33,32,33h10.5c0.827,0,1.5,0.673,1.5,1.5S43.327,36,42.5,36
		L32,35.999v2L42.5,38c0.819,0,1.564-0.295,2.161-0.768c3.628,0.548,7.371-0.177,10.571-2.075l3.27-1.948
		c0.535-0.287,1.166-0.275,1.687,0.036C60.705,33.552,61,34.068,61,34.661C61,35.229,60.71,35.75,60.223,36.056z"></path></g></svg>