<svg xmlns="http://www.w3.org/2000/svg" enable-background="new 0 0 64 64" viewBox="0 0 64 64" id="exchange-box"><path fill="#34495c" d="M27.8 25.6H5.07c-.79 0-1.43-.64-1.43-1.43V1.43C3.64.64 4.28 0 5.07 0H27.8c.79 0 1.43.64 1.43 1.43v22.73C29.23 24.95 28.59 25.6 27.8 25.6zM6.5 22.73h19.86V2.87H6.5V22.73zM58.93 64H36.2c-.79 0-1.43-.64-1.43-1.43V39.84c0-.79.64-1.43 1.43-1.43h22.73c.79 0 1.43.64 1.43 1.43v22.73C60.36 63.36 59.72 64 58.93 64zM37.63 61.13H57.5V41.27H37.63V61.13z"></path><path fill="#00aeef" d="M29.5,58.39c-8.15,0-14.77-6.63-14.77-14.78V30.28c0-0.79,0.64-1.43,1.43-1.43s1.43,0.64,1.43,1.43v13.34
				c0,6.57,5.34,11.91,11.91,11.91c0.79,0,1.43,0.64,1.43,1.43C30.94,57.75,30.3,58.39,29.5,58.39z"></path><path fill="#00aeef" d="M26.51,42.14c-0.37,0-0.74-0.14-1.02-0.42l-9.34-9.41l-8.85,8.85c-0.56,0.56-1.47,0.56-2.03,0
				s-0.56-1.47,0-2.03l9.87-9.87c0.27-0.27,0.63-0.42,1.01-0.42c0,0,0,0,0,0c0.38,0,0.75,0.15,1.01,0.42L27.53,39.7
				c0.56,0.56,0.55,1.47-0.01,2.03C27.24,42.01,26.88,42.14,26.51,42.14z"></path><g><path fill="#00aeef" d="M47.69,35.66c-0.79,0-1.43-0.64-1.43-1.43V20.89c0-6.57-5.34-11.91-11.91-11.91c-0.79,0-1.43-0.64-1.43-1.43
				c0-0.79,0.64-1.43,1.43-1.43c8.15,0,14.77,6.63,14.77,14.78v13.34C49.12,35.02,48.48,35.66,47.69,35.66z"></path><path fill="#00aeef" d="M47.69,35.66C47.69,35.66,47.69,35.66,47.69,35.66c-0.38,0-0.75-0.15-1.02-0.42L36.32,24.8
				c-0.56-0.56-0.55-1.47,0.01-2.03c0.56-0.56,1.47-0.55,2.03,0.01l9.33,9.42l8.85-8.85c0.56-0.56,1.47-0.56,2.03,0
				s0.56,1.47,0,2.03l-9.87,9.87C48.43,35.51,48.07,35.66,47.69,35.66z"></path></g></svg>