<svg xmlns="http://www.w3.org/2000/svg" data-name="Layer 3" viewBox="0 0 64 64" id="tax-invoice"><path fill="#c0cee8" d="M55,55V5h0a3,3,0,0,0-3-3H8l3,8V59a3,3,0,0,0,3,3h0Z"></path><path fill="#d6dfef" d="M52,2H15.13V45.13A6.87,6.87,0,0,0,22,52H55V5A3,3,0,0,0,52,2Z"></path><path fill="#93add1" d="M11 5A3 3 0 008 2H8A3 3 0 005 5v8h6zM14 62a3 3 0 003-3V55H59v4a3 3 0 01-3 3z"></path><polygon fill="#fff" points="23 14 25 14 25 7 28 7 28 5 20 5 20 7 23 7 23 14"></polygon><path fill="#fff" d="M28 14h2V11h4v3h2V10a1 1 0 00-.2-.6l-3-4a1.037 1.037 0 00-1.6 0l-3 4a1 1 0 00-.2.6zm4-6.333L33 9H31zM39 12.414l1.5-1.5 1.5 1.5V14h2V12a1 1 0 00-.293-.707L41.914 9.5l1.793-1.793A1 1 0 0044 7V5H42V6.586l-1.5 1.5L39 6.586V5H37V7a1 1 0 00.293.707L39.086 9.5l-1.793 1.793A1 1 0 0037 12v2h2z"></path><rect width="34" height="2" x="16" y="16" fill="#0068dd"></rect><rect width="6" height="30" x="15" y="21" fill="#0068dd"></rect><rect width="30" height="30" x="21" y="21" fill="#fff"></rect><path fill="#004a9e" d="M51,20H15a1,1,0,0,0-1,1V51a1,1,0,0,0,1,1H51a1,1,0,0,0,1-1V21A1,1,0,0,0,51,20Zm-1,6H22V22H50ZM20,34v4H16V34Zm-4-2V28h4v4Zm4,8v4H16V40Zm2,0H50v4H22Zm0-2V34H50v4Zm0-6V28H50v4ZM20,22v4H16V22ZM16,46h4v4H16Zm6,4V46H50v4Z"></path><path d="M52,1H8A4,4,0,0,0,4,5v8a1,1,0,0,0,1,1h5V59a4,4,0,0,0,4,4H56a4,4,0,0,0,4-4V55a1,1,0,0,0-1-1H56V5A4,4,0,0,0,52,1ZM10,12H6V5a2,2,0,0,1,4,0Zm6,43v4a2,2,0,0,1-4,0V5a3.959,3.959,0,0,0-.556-2H52a2,2,0,0,1,2,2V54H17A1,1,0,0,0,16,55Zm42,1v3a2,2,0,0,1-2,2H17.463A3.97,3.97,0,0,0,18,59V56Z"></path><polygon points="23 14 25 14 25 7 28 7 28 5 20 5 20 7 23 7 23 14"></polygon><path d="M28 14h2V11h4v3h2V10a1 1 0 00-.2-.6l-3-4a1.037 1.037 0 00-1.6 0l-3 4a1 1 0 00-.2.6zm4-6.333L33 9H31zM39 12.414l1.5-1.5 1.5 1.5V14h2V12a1 1 0 00-.293-.707L41.914 9.5l1.793-1.793A1 1 0 0044 7V5H42V6.586l-1.5 1.5L39 6.586V5H37V7a1 1 0 00.293.707L39.086 9.5l-1.793 1.793A1 1 0 0037 12v2h2z"></path><rect width="34" height="2" x="16" y="16"></rect><path d="M51,20H15a1,1,0,0,0-1,1V51a1,1,0,0,0,1,1H51a1,1,0,0,0,1-1V21A1,1,0,0,0,51,20ZM20,50H16V46h4Zm0-6H16V40h4Zm0-6H16V34h4Zm0-6H16V28h4Zm0-6H16V22h4ZM50,50H22V46H50Zm0-6H22V40H50Zm0-6H22V34H50Zm0-6H22V28H50Zm0-6H22V22H50Z"></path></svg>