<svg xmlns="http://www.w3.org/2000/svg" viewBox="0 0 64 64" id="invoice"><g data-name="colour icon"><rect width="37.39" height="53.89" x="10.25" y="2" fill="#e1eded"></rect><polygon fill="#acb8b8" points="53.75 8.11 53.75 62 16.36 62 16.36 55.89 47.64 55.89 47.64 8.11 53.75 8.11"></polygon><polygon fill="#fed219" points="18.63 7.62 19.37 9.91 21.77 9.91 19.83 11.32 20.57 13.61 18.63 12.2 16.68 13.61 17.43 11.32 15.48 9.91 17.88 9.91 18.63 7.62"></polygon><path fill="#484848" d="M26.72 11.12H25.5a.5.5 0 01-.5-.5.5.5 0 01.5-.5h1.22a.5.5 0 01.5.5A.5.5 0 0126.72 11.12zM42.41 11.12h-13a.5.5 0 01-.5-.5.5.5 0 01.5-.5h13a.5.5 0 01.5.5A.5.5 0 0142.41 11.12z"></path><polygon fill="#fed219" points="18.63 19.84 19.37 22.13 21.77 22.13 19.83 23.54 20.57 25.83 18.63 24.41 16.68 25.83 17.43 23.54 15.48 22.13 17.88 22.13 18.63 19.84"></polygon><path fill="#484848" d="M26.72 23.33H25.5a.5.5 0 01-.5-.5.5.5 0 01.5-.5h1.22a.5.5 0 01.5.5A.5.5 0 0126.72 23.33zM42.41 23.33h-13a.5.5 0 01-.5-.5.5.5 0 01.5-.5h13a.5.5 0 01.5.5A.5.5 0 0142.41 23.33z"></path><polygon fill="#fed219" points="18.63 32.06 19.37 34.35 21.77 34.35 19.83 35.76 20.57 38.05 18.63 36.63 16.68 38.05 17.43 35.76 15.48 34.35 17.88 34.35 18.63 32.06"></polygon><path fill="#484848" d="M26.72 35.56H25.5a.5.5 0 01-.5-.5.5.5 0 01.5-.5h1.22a.5.5 0 01.5.5A.5.5 0 0126.72 35.56zM42.41 35.56h-13a.5.5 0 01-.5-.5.5.5 0 01.5-.5h13a.5.5 0 01.5.5A.5.5 0 0142.41 35.56z"></path><polygon fill="#fed219" points="18.63 44.28 19.37 46.57 21.77 46.57 19.83 47.98 20.57 50.27 18.63 48.85 16.68 50.27 17.43 47.98 15.48 46.57 17.88 46.57 18.63 44.28"></polygon><path fill="#484848" d="M26.72 47.77H25.5a.5.5 0 01-.5-.5.5.5 0 01.5-.5h1.22a.5.5 0 01.5.5A.5.5 0 0126.72 47.77zM42.41 47.77h-13a.5.5 0 01-.5-.5.5.5 0 01.5-.5h13a.5.5 0 01.5.5A.5.5 0 0142.41 47.77z"></path></g></svg>