<svg xmlns="http://www.w3.org/2000/svg" data-name="Layer 1" viewBox="0 0 128 128" id="checklist"><path fill="#395062" d="M98.89692,16.70914H82.56185v7.47832H96.25008v93.09493H31.75842V24.18746H45.43815V16.70914H29.11149a4.84484,4.84484,0,0,0-4.84,4.83175v98.38842a4.852,4.852,0,0,0,4.84,4.83989H98.89692a4.84482,4.84482,0,0,0,4.83161-4.83989V21.54089A4.83762,4.83762,0,0,0,98.89692,16.70914Z"></path><path fill="#1487c5" d="M50.98408 29.0192H77.02442a2.59265 2.59265 0 0 0 2.59642-2.59664V14.12914a2.58587 2.58587 0 0 0-2.15955-2.5545H74.201a4.99836 4.99836 0 0 0 .10088-1.00813V8.75137A5.22015 5.22015 0 0 0 69.319 3.54215a.19867.19867 0 0 0-.06719-.00885 45.668 45.668 0 0 0-10.49515 0 .22153.22153 0 0 0-.07565.00885 5.21868 5.21868 0 0 0-4.97445 5.20926 16.04946 16.04946 0 0 0 .09242 2.82323H50.5387a2.58587 2.58587 0 0 0-2.15955 2.5545V26.42256A2.59985 2.59985 0 0 0 50.98408 29.0192zM58.681 8.75137a.244.244 0 0 1 .24367-.24362l.29413-.01664a40.43989 40.43989 0 0 1 9.56244 0l.29408.01664a.25507.25507 0 0 1 .24367.17634c.00841.0255 0 2.89055 0 2.89055H58.681zM35.26373 44.06578a6.59474 6.59474 0 1 0 6.59474-6.59483A6.59511 6.59511 0 0 0 35.26373 44.06578zm10.89586-3.48155a.57261.57261 0 0 1 .05453.73831l-4.31706 5.92026-.03.04108a1.05772 1.05772 0 0 1-1.47869.23123 1.085 1.085 0 0 1-.24823-.25425l-2.64538-3.84132a.57571.57571 0 0 1 .84932-.76309L40.95338 44.899l4.39673-4.32148A.57258.57258 0 0 1 46.15959 40.58423zM41.85847 64.14416A6.595 6.595 0 1 0 48.45321 70.739 6.595 6.595 0 0 0 41.85847 64.14416zm4.35565 3.85159L41.89707 73.916l-.03.04108a1.0574 1.0574 0 0 1-1.47869.23123 1.085 1.085 0 0 1-.24823-.25425l-2.64538-3.84132a.57571.57571 0 0 1 .84932-.76309l2.60926 2.24254 4.39673-4.32148a.57236.57236 0 0 1 .864.745z"></path><circle cx="41.859" cy="97.412" r="6.596" fill="#1487c5"></circle><rect width="42.717" height="4.201" x="50.019" y="37.764" fill="#395062"></rect><rect width="28.081" height="4.201" x="50.019" y="46.46" fill="#395062"></rect><rect width="42.717" height="4.201" x="50.019" y="64.427" fill="#395062"></rect><rect width="28.081" height="4.201" x="50.019" y="73.122" fill="#395062"></rect><rect width="42.717" height="4.201" x="50.019" y="91.09" fill="#395062"></rect><rect width="28.081" height="4.201" x="50.019" y="99.785" fill="#395062"></rect></svg>