<svg xmlns="http://www.w3.org/2000/svg" id="Capa_1" enable-background="new 0 0 512 512" height="512" viewBox="0 0 512 512" width="512" transform="matrix(-1, 0, 0, 1, 0, 0)"><g><g><path d="m42.698 72.715v262.298h101.246l38.2-131.149-38.2-131.149z" fill="#fff5f5"/><path d="m299 154.084-81.37-81.369h-73.686v262.298h155.056z" fill="#efe2dd"/></g><g><g><path d="m483.528 265.183-52.528 25.765-53.445-25.765v-105.974h105.973z" fill="#e6b261"/></g><g><path d="m483.528 371.156h-105.973v-105.973h105.973z" fill="#d2985b"/></g><g><path d="m220.204 85.871h-162.506l24.302 122.809h51.015l61.626 58.891h89.359v-117.904z" fill="none"/><path d="m380 371.285v-314.697h-30v284.697h-51v30h51v30h162v-30z" fill="#b3d4df"/></g></g><path d="m254.247 226.193-38.935-38.935 14.085-14.085-21.213-21.213-49.384 49.384 21.213 21.213 14.086-14.086 47.192 45.297z" fill="#445373"/><g><path d="m294.12 321.27h-57.005v-112.175h57.005z" fill="#f49900"/></g><g><path d="m62 55.871-4.302 30h86.246l26.905-13.156-26.905-16.844z" fill="#efe2dd"/><path d="m232.63 55.871h-88.686v30h76.26l63.796 63.796v168.502l30-10.598v-170.331z" fill="#d6cdcc"/></g><g><path d="m62 259.124v-203.253h-62v345.414h143.944l26.905-60.667-26.905-81.494z" fill="#ffde08"/></g><path d="m314 307.571h-119.359l-50.697-48.447v142.161h170.056z" fill="#ffbe10"/><g><path d="m91.943 343.169c-31.143 0-56.479 25.337-56.479 56.48s25.337 56.48 56.479 56.48c23.329 0 43.398-14.218 52.001-34.443l38.2-20.402-38.2-23.673c-8.603-20.224-28.672-34.442-52.001-34.442z" fill="#445373"/></g><path d="m252.425 399.649c0-31.003-25.895-56.243-56.846-56.469-.14-.001.14-.011 0-.011-23.328 0-43.031 14.218-51.635 34.443v44.075c8.604 20.225 28.307 34.443 51.635 34.443.14 0-.14-.01 0-.011 30.95-.227 56.846-25.467 56.846-56.47z" fill="#363c5a"/></g></svg>