<svg xmlns="http://www.w3.org/2000/svg" fill-rule="evenodd" stroke-linejoin="round" stroke-miterlimit="2" clip-rule="evenodd" viewBox="0 0 32 32" id="quality-control"><path fill="url(#_Linear1)" d="M7,2c-2.208,0 -4,1.792 -4,4l0,3c0,0.552 0.448,1 1,1l5,0l0,16c0,2.208 1.792,4 4,4l12,0c0.932,0 1.818,-0.482 2.517,-1.265c0.906,-1.014 1.483,-2.527 1.483,-3.735c0,-0.552 -0.448,-1 -1,-1l-2,0l0,-19c0,-1.656 -1.344,-3 -3,-3l-16,0Zm3.464,2c0.341,0.589 0.536,1.272 0.536,2l0,20c0,1.104 0.896,2 2,2c0.393,0 0.731,-0.267 1.025,-0.597c0.585,-0.654 0.975,-1.624 0.975,-2.403c0,-0.552 0.448,-1 1,-1l8,0l0,-19c0,-0.552 -0.448,-1 -1,-1l-12.536,0Zm16.359,22c0,0 -9.938,-0 -9.938,-0c-0.148,0.678 -0.432,1.382 -0.82,2l8.935,0c0.393,0 0.731,-0.267 1.025,-0.597c0.35,-0.391 0.629,-0.895 0.798,-1.403Zm-14.53,-6.293l1,1c0.39,0.391 1.024,0.391 1.414,0l2,-2c0.39,-0.39 0.39,-1.024 0,-1.414c-0.39,-0.39 -1.024,-0.39 -1.414,-0l-1.293,1.293c-0,-0 -0.293,-0.293 -0.293,-0.293c-0.39,-0.39 -1.024,-0.39 -1.414,-0c-0.39,0.39 -0.39,1.024 -0,1.414Zm6.707,0.293l3,0c0.552,0 1,-0.448 1,-1c0,-0.552 -0.448,-1 -1,-1l-3,0c-0.552,0 -1,0.448 -1,1c0,0.552 0.448,1 1,1Zm-6.707,-5.293l1,1c0.39,0.391 1.024,0.391 1.414,0l2,-2c0.39,-0.39 0.39,-1.024 0,-1.414c-0.39,-0.39 -1.024,-0.39 -1.414,-0l-1.293,1.293c-0,-0 -0.293,-0.293 -0.293,-0.293c-0.39,-0.39 -1.024,-0.39 -1.414,-0c-0.39,0.39 -0.39,1.024 -0,1.414Zm6.707,0.293l3,0c0.552,0 1,-0.448 1,-1c0,-0.552 -0.448,-1 -1,-1l-3,0c-0.552,0 -1,0.448 -1,1c0,0.552 0.448,1 1,1Zm-6.707,-5.293l1,1c0.39,0.391 1.024,0.391 1.414,0l2,-2c0.39,-0.39 0.39,-1.024 0,-1.414c-0.39,-0.39 -1.024,-0.39 -1.414,-0l-1.293,1.293c-0,-0 -0.293,-0.293 -0.293,-0.293c-0.39,-0.39 -1.024,-0.39 -1.414,-0c-0.39,0.39 -0.39,1.024 -0,1.414Zm6.707,0.293l3,0c0.552,0 1,-0.448 1,-1c0,-0.552 -0.448,-1 -1,-1l-3,0c-0.552,0 -1,0.448 -1,1c0,0.552 0.448,1 1,1Zm-10,-2l-4,0c0,0 -0,-2 -0,-2c-0,-1.104 0.896,-2 2,-2c1.104,0 2,0.896 2,2l-0,2Z"></path><defs><linearGradient id="_Linear1" x1="0" x2="1" y1="0" y2="0" gradientTransform="matrix(26 26 -26 26 3 3)" gradientUnits="userSpaceOnUse"><stop offset="0" stop-color="#f78cff"></stop><stop offset="1" stop-color="#6dc8ff"></stop></linearGradient></defs></svg>