<svg xmlns="http://www.w3.org/2000/svg" viewBox="0 0 96 96" id="warehouse"><rect width="24.23" height="24.23" x="35.79" y="42.33" fill="#ffca87" rx="1.42"></rect><path fill="#ffe8aa" d="M57.58,44.07V61.39a1.61,1.61,0,0,1-1.39,1.74H39.63a1.59,1.59,0,0,1-1.38-1.74V44.07a1.59,1.59,0,0,1,1.38-1.74H56.19A1.61,1.61,0,0,1,57.58,44.07Z"></path><rect width="8.34" height="9.66" x="43.74" y="42.33" fill="#ffa769"></rect><path fill="#fffacd" d="M57.58,44.8v-.73a1.61,1.61,0,0,0-1.39-1.74H39.63a1.59,1.59,0,0,0-1.38,1.74v.73Z"></path><rect width="8.34" height="2.47" x="43.69" y="42.33" fill="#ffc582"></rect><rect width="24.23" height="24.23" x="47.91" y="66.56" fill="#ffc050" rx="1.42"></rect><path fill="#ff9350" d="M72.14,68.7v-.85a1.28,1.28,0,0,0-1.28-1.29H49.2a1.29,1.29,0,0,0-1.29,1.29v.85Z"></path><rect width="16.36" height="16.36" x="51.85" y="70.5" fill="#ffd469" rx=".76"></rect><rect width="8.34" height="9.66" x="55.86" y="66.56" fill="#ff9350"></rect><rect width="8.34" height="5.73" x="55.86" y="70.5" fill="#ffc050"></rect><rect width="8.34" height="2.12" x="55.86" y="66.56" fill="#cd523c"></rect><rect width="24.23" height="24.23" x="23.68" y="66.56" fill="#ff9d50" rx="1.42"></rect><path fill="#f06b41" d="M47.91,68.7v-.85a1.29,1.29,0,0,0-1.29-1.29H25a1.29,1.29,0,0,0-1.29,1.29v.85Z"></path><rect width="16.36" height="16.36" x="27.61" y="70.5" fill="#ffb15f" rx=".76"></rect><rect width="8.34" height="9.66" x="31.63" y="66.56" fill="#ff703c"></rect><rect width="8.34" height="2.12" x="31.63" y="66.56" fill="#cd523c"></rect><rect width="8.34" height="5.73" x="31.63" y="70.5" fill="#ff8941"></rect><polygon fill="#7481a4" points="41.42 37.5 12.74 37.5 12.74 11.32 27.08 5.2 41.42 11.32 41.42 37.5"></polygon><rect width="28.68" height="13.27" x="12.75" y="24.23" fill="#606d90"></rect><polygon fill="#8da4b8" points="41.42 11.32 41.42 13.97 27.08 7.86 12.74 13.97 12.74 11.32 27.08 5.2 41.42 11.32"></polygon><rect width="31.27" height="6.37" x="11.45" y="31.14" fill="#515e77"></rect><rect width="31.27" height="3.18" x="11.45" y="34.32" fill="#424a68"></rect><rect width="17.77" height="6.54" x="18.2" y="14.81" fill="#88a4cc"></rect><rect width="17.77" height="16.15" x="18.2" y="21.35" fill="#383b4a"></rect><rect width="12.76" height="16.15" x="20.7" y="21.35" fill="#2e2c40"></rect><rect width="17.77" height="4.14" x="18.2" y="21.35" fill="#2e2c40"></rect><path fill="#97b8e0" d="M34.45,17v4.39H19.72V17a.63.63,0,0,1,.63-.63H33.82A.63.63,0,0,1,34.45,17Z"></path><path fill="#fff" d="M22.09,18.84a1,1,0,0,1,1-1h8a1,1,0,0,1,1,1,1,1,0,0,1-1,1h-8A1,1,0,0,1,22.09,18.84Z"></path><polygon fill="#7481a4" points="83.25 37.5 54.58 37.5 54.58 11.32 68.92 5.2 83.25 11.32 83.25 37.5"></polygon><rect width="28.68" height="13.27" x="54.58" y="24.23" fill="#606d90"></rect><polygon fill="#8da4b8" points="83.26 11.32 83.26 13.97 68.92 7.86 54.58 13.97 54.58 11.32 68.92 5.2 83.26 11.32"></polygon><rect width="31.27" height="6.37" x="53.28" y="31.14" fill="#515e77"></rect><rect width="31.27" height="3.18" x="53.28" y="34.32" fill="#424a68"></rect><rect width="17.77" height="6.54" x="60.03" y="14.81" fill="#88a4cc"></rect><rect width="17.77" height="16.15" x="60.03" y="21.35" fill="#383b4a"></rect><rect width="12.76" height="16.15" x="62.54" y="21.35" fill="#2e2c40"></rect><rect width="17.77" height="4.14" x="60.03" y="21.35" fill="#2e2c40"></rect><path fill="#97b8e0" d="M76.28,17v4.39H61.55V17a.63.63,0,0,1,.63-.63H75.65A.63.63,0,0,1,76.28,17Z"></path><path fill="#fff" d="M63.93,18.84a1,1,0,0,1,1-1h8a1,1,0,0,1,0,2h-8A1,1,0,0,1,63.93,18.84Z"></path><path fill="#302d3d" d="M11.45 38.5H42.72a1 1 0 001-1V31.14a1 1 0 00-1-1h-.3V11.32a1 1 0 00-.61-.92L27.48 4.28a1.08 1.08 0 00-.79 0L12.35 10.4a1 1 0 00-.61.92V30.14h-.29a1 1 0 00-1 1V37.5A1 1 0 0011.45 38.5zm1-2V32.14H17.2V36.5zm6.75 0V22.35H35V36.5zM35 20.35H19.2V15.81H35zM37 36.5V32.14h4.75V36.5zM13.74 12L27.08 6.29 40.42 12V30.14H37V14.81a1 1 0 00-1-1H18.2a1 1 0 00-1 1V30.14H13.74zM53.28 38.5H84.55a1 1 0 001-1V31.14a1 1 0 00-1-1h-.29V11.32a1 1 0 00-.61-.92L69.31 4.28a1.08 1.08 0 00-.79 0L54.19 10.4a1 1 0 00-.61.92V30.14h-.3a1 1 0 00-1 1V37.5A1 1 0 0053.28 38.5zm1-2V32.14H59V36.5zm6.75 0V22.35H76.8V36.5zM76.8 20.35H61V15.81H76.8zm2 16.15V32.14h4.75V36.5zM55.58 12L68.92 6.29 82.26 12V30.14H78.8V14.81a1 1 0 00-1-1H60a1 1 0 00-1 1V30.14H55.58z"></path><path fill="#302d3d" d="M19.26 75.23H2v-50H7.67a1 1 0 000-2H1a1 1 0 00-1 1v52a1 1 0 001 1H19.26a1 1 0 100-2zM95 23.19H88.33a1 1 0 000 2H94v50H76.74a1 1 0 000 2H95a1 1 0 001-1v-52A1 1 0 0095 23.19zM38.39 82.17h-5a1 1 0 000 2h5a1 1 0 000-2z"></path><path fill="#302d3d" d="M70.66,65.56h-9.6c.09-.39.06,1,.06-21.66a2.58,2.58,0,0,0-2.58-2.57H37.46a2.58,2.58,0,0,0-2.58,2.57c0,22.81,0,21.27.06,21.66h-9.6a2.58,2.58,0,0,0-2.57,2.58V89.23a2.58,2.58,0,0,0,2.57,2.57H46.43A2.55,2.55,0,0,0,48,91.26a2.55,2.55,0,0,0,1.57.54H70.66a2.58,2.58,0,0,0,2.57-2.57V68.14A2.58,2.58,0,0,0,70.66,65.56Zm-7.37,2v7.67H57V67.56ZM51.17,43.33V51H44.83V43.33ZM36.88,65V43.9a.58.58,0,0,1,.58-.57h5.37V52a1,1,0,0,0,1,1h8.34a1,1,0,0,0,1-1V43.33h5.37a.58.58,0,0,1,.58.57V65a.57.57,0,0,1-.58.57H37.46A.57.57,0,0,1,36.88,65Zm2.17,2.57v7.67H32.71V67.56ZM46.43,89.8H25.34a.57.57,0,0,1-.57-.57V68.14a.57.57,0,0,1,.57-.58h5.37v8.67a1,1,0,0,0,1,1h8.34a1,1,0,0,0,1-1V67.56h5.38a.58.58,0,0,1,.57.58V89.23A.58.58,0,0,1,46.43,89.8Zm24.8-.57a.57.57,0,0,1-.57.57H49.57a.58.58,0,0,1-.57-.57V68.14a.58.58,0,0,1,.57-.58H55v8.67a1,1,0,0,0,1,1h8.34a1,1,0,0,0,1-1V67.56h5.37a.57.57,0,0,1,.57.58Z"></path><path fill="#302d3d" d="M62.62 82.17h-5a1 1 0 000 2h5a1 1 0 000-2zM45.49 59.94h5a1 1 0 000-2h-5a1 1 0 000 2z"></path></svg>