<svg xmlns="http://www.w3.org/2000/svg" viewBox="0 0 52 52" id="packages"><path fill="#E5BD13" d="m21.098 20.07.033 12.631 10.419 6.055-.033-12.631z"></path><path fill="#D6B218" d="m31.517 26.125.033 12.631L50 28.103l-.033-12.63z"></path><path fill="#F1C40F" d="m21.098 20.07 10.419 6.055 18.45-10.652-10.419-6.055z"></path><path fill="#E5BD13" d="m39.548 9.418-4.016 8.354 14.435-2.299z"></path><path fill="#D6B218" d="m21.097 20.07 10.42 6.056 4.015-8.354z"></path><path fill="#C6A51A" d="m42.783 19.627.007 2.424-4.056 2.342-.007-2.425zM42.783 29.842l.007 2.425-4.056 2.341-.007-2.425z"></path><path fill="#3293C9" d="m27.919 28.211-.001.431 2.243 1.296.001-.432zM27.916 29.091l-.001.431 2.244 1.296.001-.431z"></path><path fill="#FFF" d="m30.6 31.556-3.13-1.807.014-4.74 3.13 1.808-.013 4.74zm-2.682-2.914 2.243 1.296.001-.432-2.243-1.295-.001.431m-.003.88 2.244 1.296.001-.432-2.244-1.295v.431"></path><path fill="#E5BD13" d="m2 31.096.033 12.631 10.419 6.054-.033-12.63z"></path><path fill="#D6B218" d="m12.419 37.151.033 12.63 18.451-10.652-.033-12.63z"></path><path fill="#F1C40F" d="m2 31.096 10.419 6.055L30.87 26.499l-10.419-6.055z"></path><path fill="#D6B218" d="m20.45 20.444-4.015 8.353 14.435-2.298zM2 31.096l10.42 6.055 4.015-8.354z"></path><path fill="#C6A51A" d="m23.685 30.652.007 2.425-4.055 2.342-.007-2.425zM23.685 40.868l.007 2.424-4.055 2.342-.007-2.425z"></path><path fill="#3293C9" d="m8.822 39.237-.002.431 2.244 1.295.001-.431zM8.819 40.117l-.001.431 2.244 1.295.001-.431z"></path><path fill="#FFF" d="m11.503 42.582-3.13-1.807.014-4.74 3.13 1.808-.014 4.74zM8.82 39.668l2.244 1.295.001-.43-2.243-1.296-.002.431m-.002.88 2.244 1.295v-.43L8.82 40.116l-.001.431"></path><path fill="#E5BD13" d="m10.455 12.871.033 12.631 10.419 6.054-.033-12.63z"></path><path fill="#D6B218" d="m20.874 18.926.033 12.63 18.45-10.652-.033-12.63z"></path><path fill="#F1C40F" d="m10.455 12.871 10.419 6.055 18.45-10.652-10.419-6.055z"></path><path fill="#D6B218" d="m28.905 2.219-4.015 8.353 14.435-2.298zM10.454 12.871l10.42 6.055 4.016-8.354z"></path><path fill="#C6A51A" d="m32.14 12.427.007 2.425-4.056 2.342-.007-2.425zM32.14 22.643l.007 2.424-4.056 2.342-.007-2.425z"></path><path fill="#3293C9" d="m17.276 21.012-.001.431 2.243 1.295.002-.431zM17.274 21.892l-.002.431 2.244 1.295.001-.431z"></path><path fill="#FFF" d="m19.958 24.357-3.13-1.807.013-4.74 3.13 1.807-.013 4.74zm-2.683-2.914 2.243 1.295.002-.43-2.244-1.296-.001.43m-.003.88 2.244 1.296.001-.43-2.243-1.296-.002.43"></path></svg>