<svg xmlns="http://www.w3.org/2000/svg" viewBox="0 0 64 64" id="packaging"><path fill="#FF8000" d="M3 11h50v50H3z"></path><path fill="#E57300" d="M35.5 54C22.191 54 10.383 48.626 3 40.33V61h50V50.679C47.703 52.807 41.768 54 35.5 54zM53 11H3l8-8h50z"></path><path fill="#CE6700" d="m61 3-8 8v50l8-8z"></path><path fill="#E6E6E6" d="M24 11h8v50h-8z"></path><path fill="#CCC" d="M32 11h-8l8-8h8z"></path><path fill="#FFF" d="M14 48h7v2h-7zM10 48h2v2h-2zM6 48h2v2H6zM6 56h15v2H6zM6 52h15v2H6z"></path></svg>