<svg xmlns="http://www.w3.org/2000/svg" width="512" height="512" id="barcode"><path fill="#ECEFF0" d="M39.5 95h431v322h-431z"></path><path fill="#303C44" d="M130.213 75.874H25.5a4 4 0 0 0-4 4v50.339a4 4 0 0 0 8 0V83.874h100.713a4 4 0 0 0 0-8zM130.213 428.127H29.5v-46.34a4 4 0 0 0-8 0v50.34a4 4 0 0 0 4 4h104.713a4 4 0 0 0 0-8zM486.5 75.874H381.787a4 4 0 0 0 0 8H482.5v46.339a4 4 0 0 0 8 0V79.874a4 4 0 0 0-4-4zM486.5 377.787a4 4 0 0 0-4 4v46.34H381.787a4 4 0 0 0 0 8H486.5a4 4 0 0 0 4-4v-50.34a4 4 0 0 0-4-4z"></path><path fill="#C9314B" d="M256 113.063a4 4 0 0 0-4 4v223.009a4 4 0 0 0 8 0V117.063a4 4 0 0 0-4-4zM288.341 113.063a4 4 0 0 0-4 4v223.009a4 4 0 0 0 8 0V117.063a4 4 0 0 0-4-4zM233.791 113.063a4 4 0 0 0-4 4v223.009a4 4 0 0 0 8 0V117.063a4 4 0 0 0-4-4zM198.166 113.063a4 4 0 0 0-4 4v223.009a4 4 0 0 0 8 0V117.063a4 4 0 0 0-4-4zM175.9 113.063a4 4 0 0 0-4 4v223.009a4 4 0 0 0 8 0V117.063a4 4 0 0 0-4-4zM123.122 340.072V117.063a4 4 0 0 0-8 0v223.009a4 4 0 0 0 8 0zM66.344 394.938V117.063a4 4 0 0 0-8 0v277.874a4 4 0 0 0 8 .001zM86.384 340.072V117.063a4 4 0 0 0-8 0v223.009a4 4 0 0 0 8 0zM153.634 113.063a4 4 0 0 0-4 4v223.009a4 4 0 0 0 8 0V117.063a4 4 0 0 0-4-4zM307.268 113.063a4 4 0 0 0-4 4v223.009a4 4 0 0 0 8 0V117.063a4 4 0 0 0-4-4zM326.194 113.063a4 4 0 0 0-4 4v223.009a4 4 0 0 0 8 0V117.063a4 4 0 0 0-4-4zM345.12 113.063a4 4 0 0 0-4 4v223.009a4 4 0 0 0 8 0V117.063a4 4 0 0 0-4-4zM372.949 113.063a4 4 0 0 0-4 4v223.009a4 4 0 0 0 8 0V117.063a4 4 0 0 0-4-4zM402.555 340.072V117.063a4 4 0 0 0-8 0v223.009a4 4 0 0 0 8 0zM429.274 340.072V117.063a4 4 0 0 0-8 0v223.009a4 4 0 0 0 8 0zM449.313 394.938V117.063a4 4 0 0 0-8 0v277.874a4 4 0 0 0 8 .001z"></path><linearGradient id="a" x1="255" x2="255" y1="256" y2="417" gradientUnits="userSpaceOnUse"><stop offset="0"></stop><stop offset="1" stop-color="#FFF" stop-opacity="0"></stop></linearGradient><path fill="url(#a)" d="M39.5 256h431v161h-431z" opacity=".1"></path></svg>