<svg xmlns="http://www.w3.org/2000/svg" enable-background="new 0 0 512 512" viewBox="0 0 512 512" id="product"><linearGradient id="a" x1="63.361" x2="448.64" y1="536.188" y2="150.909" gradientUnits="userSpaceOnUse"><stop offset="0" stop-color="#fcc60e"></stop><stop offset="1" stop-color="#e92e29"></stop></linearGradient><path fill="url(#a)" d="M58.873,316.98v-39.2c0-4.418,3.582-8,8-8H248V240.81c0-4.418,3.582-8,8-8s8,3.582,8,8v28.971h181.127
	c4.418,0,8,3.582,8,8v39.2c0,4.418-3.582,8-8,8s-8-3.582-8-8v-31.2H264v31.201c0,4.418-3.582,8-8,8s-8-3.582-8-8V285.78H74.873v31.2
	c0,4.418-3.582,8-8,8S58.873,321.398,58.873,316.98z M219.168,118.813L191.45,93.534c-2.321-2.117-3.188-5.396-2.218-8.383
	c0.971-2.988,3.6-5.131,6.722-5.479l37.282-4.159l15.477-34.173c1.296-2.862,4.146-4.7,7.287-4.7s5.991,1.838,7.287,4.699
	l15.477,34.173l37.282,4.16c3.122,0.348,5.751,2.491,6.722,5.479s0.104,6.266-2.218,8.383l-27.718,25.277l7.566,36.744
	c0.633,3.076-0.593,6.239-3.134,8.085c-2.541,1.848-5.927,2.035-8.658,0.481L256,145.573l-32.606,18.549
	c-1.231,0.7-2.596,1.047-3.955,1.047c-1.657,0-3.308-0.514-4.703-1.528c-2.541-1.846-3.767-5.009-3.134-8.085L219.168,118.813z
	 M233.313,110.058c2.085,1.901,3.014,4.761,2.445,7.524l-4.922,23.898l21.208-12.064c1.227-0.698,2.592-1.047,3.956-1.047
	s2.729,0.349,3.956,1.047l21.208,12.065l-4.921-23.9c-0.568-2.764,0.36-5.623,2.445-7.524l18.028-16.441l-24.25-2.706
	c-2.805-0.313-5.236-2.079-6.4-4.649L256,64.032L245.934,86.26c-1.164,2.571-3.596,4.338-6.4,4.65l-24.25,2.705L233.313,110.058z
	 M155.095,100.905C155.095,45.266,200.361,0,256.001,0s100.905,45.266,100.905,100.905s-45.266,100.905-100.905,100.905
	S155.095,156.545,155.095,100.905z M171.095,100.905c0,46.817,38.089,84.905,84.906,84.905s84.905-38.088,84.905-84.905
	S302.818,16,256.001,16S171.095,54.088,171.095,100.905z M323.73,400.543v68.971c0,2.858-1.524,5.499-4,6.928L260,510.928
	c-1.237,0.715-2.619,1.072-4,1.072s-2.763-0.357-4-1.072l-59.731-34.486c-2.476-1.429-4-4.069-4-6.928v-68.971
	c0-2.858,1.524-5.499,4-6.928L252,359.13c2.476-1.43,5.526-1.429,8,0l59.73,34.485C322.206,395.044,323.73,397.685,323.73,400.543z
	 M212.269,400.543L256,425.791l43.73-25.248L256,375.295L212.269,400.543z M204.269,464.895L248,490.144v-50.497l-43.731-25.248
	V464.895z M307.73,464.895v-50.496L264,439.647v50.497L307.73,464.895z M135.462,400.543v68.971c0,2.858-1.524,5.499-4,6.928
	l-59.73,34.486c-1.237,0.715-2.619,1.072-4,1.072s-2.763-0.357-4-1.072L4,476.441c-2.476-1.429-4-4.069-4-6.928v-68.971
	c0-2.858,1.524-5.499,4-6.928l59.731-34.485c2.476-1.43,5.526-1.429,8,0l59.73,34.485
	C133.938,395.044,135.462,397.685,135.462,400.543z M24,400.543l43.731,25.248l43.73-25.248l-43.73-25.248L24,400.543z M16,464.895
	l43.731,25.249v-50.497L16,414.399V464.895z M119.462,464.895v-50.496l-43.73,25.248v50.497L119.462,464.895z M512,400.543v68.971
	c0,2.858-1.524,5.499-4,6.928l-59.73,34.486c-1.237,0.715-2.619,1.072-4,1.072s-2.763-0.357-4-1.072l-59.731-34.486
	c-2.476-1.429-4-4.069-4-6.928v-68.971c0-2.858,1.524-5.499,4-6.928l59.731-34.485c2.477-1.43,5.527-1.429,8,0L508,393.615
	C510.476,395.044,512,397.685,512,400.543z M400.538,400.543l43.731,25.248L488,400.543l-43.73-25.248L400.538,400.543z
	 M392.538,464.895l43.731,25.249v-50.497l-43.731-25.248V464.895z M496,464.895v-50.496l-43.73,25.248v50.497L496,464.895z"></path></svg>