<svg xmlns="http://www.w3.org/2000/svg" width="511pt" height="511pt" viewBox="-22 1 511 511.999" id="trolley"><path fill="#00acea" d="M428.906 262.883v67.281c0 5.606-4.586 10.191-10.191 10.191h-115.45c-5.609 0-10.195-4.585-10.195-10.19v-67.282Zm0 0"></path><path fill="#00efd1" d="M428.906 234.848v28.035H293.07v-28.035c0-5.606 4.59-10.196 10.196-10.196h115.449c5.605 0 10.191 4.461 10.191 10.196zm-56.449 202.48c20.645 0 37.336 16.692 37.336 37.336 0 20.64-16.691 37.336-37.336 37.336-20.64 0-37.336-16.695-37.336-37.336-.125-20.644 16.695-37.336 37.336-37.336zm0 0"></path><path fill="#00acea" d="M339.707 109.969v67.281c0 5.61-4.586 10.195-10.191 10.195h-115.45c-5.605 0-10.195-4.586-10.195-10.195v-67.281Zm0 0"></path><path fill="#00efd1" d="M339.707 81.934v28.035H203.871V81.934c0-5.606 4.59-10.192 10.195-10.192h115.45c5.605 0 10.191 4.461 10.191 10.192Zm0 0"></path><path fill="#00acea" d="M250.512 262.883v67.281c0 5.606-4.59 10.191-10.196 10.191H124.867c-5.605 0-10.191-4.585-10.191-10.19v-67.282Zm0 0"></path><path fill="#00efd1" d="M250.512 234.848v28.035H114.676v-28.035c0-5.606 4.586-10.196 10.191-10.196h115.45c5.605 0 10.195 4.461 10.195 10.196zm-85.887 202.48c20.645 0 37.336 16.692 37.336 37.336 0 20.64-16.695 37.336-37.336 37.336-20.64 0-37.336-16.695-37.336-37.336 0-20.644 16.691-37.336 37.336-37.336zm0 0"></path><path fill="#fedb41" d="M453.883 405.727H119.516c-35.168 0-63.715-28.543-63.715-63.715V50.969c0-14.016-11.469-25.485-25.485-25.485H13.242C6.234 25.484.5 19.75.5 12.742.5 5.734 6.234 0 13.242 0h17.074C58.48 0 81.29 22.809 81.29 50.969v291.043c0 21.027 17.203 38.23 38.227 38.23h334.367c7.008 0 12.746 5.735 12.746 12.742-.004 7.008-5.738 12.743-12.746 12.743Zm0 0"></path></svg>