<svg id="Layer_1" enable-background="new 0 0 66 66" viewBox="0 0 66 66" xmlns="http://www.w3.org/2000/svg"><g><g><g><g><path d="m28.3075809 32.0613327h-22.528933c-2.0707514 0-3.7546692-1.683918-3.7546692-3.7546692v-22.5280156c0-2.0707514 1.6839178-3.7546692 3.7546692-3.7546692h22.5289326c2.0707512 0 3.7546673 1.6839178 3.7546673 3.7546692v22.5280151c.0000004 2.0707517-1.6839157 3.7546697-3.7546669 3.7546697zm-22.528933-28.1600194c-1.0349174 0-1.8773346.8424172-1.8773346 1.8773346v22.5280151c0 1.0349178.8424172 1.8773346 1.8773346 1.8773346h22.5289326c1.0349159 0 1.8773346-.8424168 1.8773346-1.8773346v-22.5280151c0-1.0349174-.8424187-1.8773346-1.8773346-1.8773346z"/></g><g><path d="m20.4430904 13.7348194-3.4000301-1.8773346-3.4000282 1.8773346v-10.7724657h6.8000583z" fill="#fd8d65"/></g><g><path d="m20.443491 14.6730709c-.1558323 0-.3125839-.0384998-.4537506-.1173334l-2.9470844-1.6261683-2.9461689 1.6261683c-.2896671.1622496-.6444168.1567497-.9304171-.0128336-.2869167-.1686668-.4620008-.4766665-.4620008-.8085003v-10.7717576c0-.5188336.4198341-.9386673.9386673-.9386673h6.8007545c.5188332 0 .9386673.4198337.9386673.9386673v10.7717571c0 .3318338-.1750832.6398335-.4619999.8085003-.1466675.0870843-.3116665.1301675-.4766674.1301675zm-3.4008351-3.7546692c.1558323 0 .3125839.0384998.4537506.1173334l2.0084171 1.1082506v-8.242672h-4.92342v8.242672l2.0075016-1.1082506c.1411668-.0779171.2979165-.1173334.4537507-.1173334z"/></g><g><path d="m16.104393 26.411768h-7.5677872c-.5184116 0-.9386673-.4202557-.9386673-.9386673v-3.1025429c0-.5184116.4202557-.9386673.9386673-.9386673h7.5677872c.5184116 0 .9386673.4202557.9386673.9386673v3.1025429c0 .5184116-.4202557.9386673-.9386673.9386673z" fill="#c383ff"/></g><g><path d="m16.1039886 27.3505802h-7.567089c-1.0349169 0-1.8773341-.8424187-1.8773341-1.8773346v-3.1029205c0-1.0349159.8424172-1.8773346 1.8773341-1.8773346h7.5670891c1.0349178 0 1.8773346.8424187 1.8773346 1.8773346v3.1029205c-.0000001 1.0349159-.8424168 1.8773346-1.8773347 1.8773346zm-7.567089-4.9802551v3.1029205h7.5680046l-.0009155-3.1029205z"/></g></g><g><g><path d="m60.2213516 63.9751053h-22.5280151c-2.0707512 0-3.7546692-1.683918-3.7546692-3.7546692v-22.5280151c0-2.0707512 1.683918-3.7546692 3.7546692-3.7546692h22.5280151c2.0707512 0 3.7546692 1.683918 3.7546692 3.7546692v22.5280151c0 2.0707512-1.683918 3.7546692-3.7546692 3.7546692zm-22.5280151-28.1600189c-1.0349159 0-1.8773346.8424149-1.8773346 1.8773346v22.5280151c0 1.0349159.8424187 1.8773346 1.8773346 1.8773346h22.5280151c1.0349159 0 1.8773346-.8424187 1.8773346-1.8773346v-22.5280151c0-1.0349197-.8424187-1.8773346-1.8773346-1.8773346z"/></g><g><path d="m45.5572052 45.6493263 3.4000282-1.8773346 3.4000283 1.8773346v-10.7724647h-6.8000565z" fill="#fd8d65"/></g><g><path d="m52.3572617 46.5877609c-.1558304 0-.3125801-.0385017-.4537468-.1173363l-2.9461708-1.6261673-2.946167 1.6261673c-.2905846.1622505-.6453362.1576691-.9304199-.0128326-.2869148-.1686668-.461998-.4766655-.461998-.8084984v-10.7726745c0-.5188332.4198341-.9386673.9386673-.9386673h6.7998352c.518837 0 .9386673.4198341.9386673.9386673v10.7726746c0 .3318329-.1750832.6398315-.461998.8084984-.1466675.0870856-.3116684.1301688-.4766693.1301688zm-3.3999176-3.7546692c.1558342 0 .3125839.0394135.4537506.1173325l2.0074997 1.1082497v-8.2435875h-4.9225006v8.2435875l2.0074997-1.1082497c.1411666-.077919.2979164-.1173325.4537506-.1173325z"/></g><g><path d="m49.8959007 58.3262749h7.5677872c.5184135 0 .9386673-.4202538.9386673-.9386673v-3.1025429c0-.5184097-.4202538-.9386673-.9386673-.9386673h-7.5677872c-.5184135 0-.9386673.4202576-.9386673.9386673v3.1025429c0 .5184135.4202538.9386673.9386673.9386673z" fill="#c383ff"/></g><g><path d="m57.464016 59.2652664h-7.5680046c-1.0349159 0-1.8773346-.8424149-1.8773346-1.8773346v-3.1029167c0-1.0349197.8424187-1.8773346 1.8773346-1.8773346h7.5680046c1.0349197 0 1.8773346.8424149 1.8773346 1.8773346v3.1029167c0 1.0349198-.8424149 1.8773346-1.8773346 1.8773346zm-7.5680046-4.9802513v3.1029167h7.5680046v-3.1029167z"/></g></g><g><path d="m61.7778587 22.357502c-2.7577171-6.7614012-9.5358429-10.4050941-15.7678604-9.54848v2.5625429l-8.2698059-6.2045765 8.2698059-6.2046347v3.078856c9.4507751 1.1547866 15.7653198 8.2662659 16.8582573 16.0300426.0931854.6619535-.8379402.9052263-1.0903969.2862497z" fill="#ffcc2e"/></g><g><path d="m4.2224483 43.6419144c2.7577176 6.7613983 9.5358429 10.4050941 15.7678585 9.5484772v-2.562542l8.2698059 6.2045784-8.2698059 6.2046318v-3.0788536c-9.4507742-1.154789-15.7653208-8.2662659-16.8582554-16.0300446-.0931849-.661953.8379405-.9052238 1.0903969-.2862472z" fill="#ffcc2e"/></g><g><path d="m62.2957687 23.6536598c-.6004143 0-1.1485825-.3556671-1.3869171-.9414177-2.352169-5.7685871-8.1207542-9.470089-13.9599266-9.0585051v1.7178345c0 .3556662-.2007484.6801672-.5188332.8396673-.3190002.1585827-.6985016.1246662-.9835815-.0889168l-8.2701759-6.2049217c-.2355804-.1769161-.3749161-.4555836-.3749161-.7507496 0-.295167.1393356-.5738344.3758354-.7507505l8.2701721-6.2040048c.2832489-.2145001.6636658-.2465835.982666-.0889165.3180847.1594999.5188332.4840002.5188332.8396671v2.2632518c8.777092 1.4226675 15.6484299 8.1904221 16.8492622 16.7145119.1063347.7626667-.3547516 1.4593353-1.0972519 1.6591682-.1356658.0366659-.2713317.0540819-.4051666.0540819zm.3510857-1.6500015h.0100822zm-14.8170128-10.2575064c5.3322563 0 10.4903412 2.9498358 13.4640121 7.634923-2.105587-6.5743389-8.0850067-11.5151749-15.3972626-12.408926-.4711647-.0568333-.8250008-.457417-.8250008-.931334v-1.2008343l-5.7676697 4.3266702 5.7676697 4.3275862v-.685667c0-.4693336.3465004-.866251.8112526-.9295015.6489984-.0898334 1.298916-.1329166 1.9469987-.1329166z"/></g><g><path d="m19.9906578 63.9760208c-.1429996 0-.2869167-.0330009-.4198341-.098999-.3180828-.1585846-.5188332-.4840012-.5188332-.8396683v-2.2641678c-8.7780065-1.4226684-15.6493442-8.1895065-16.8492618-16.7135963-.10725-.7617493.3538337-1.4602509 1.0963342-1.6600838.7470839-.2025833 1.5005844.1714172 1.7920845.8873329 2.3540015 5.7704239 8.1299219 9.4774246 13.9608431 9.0585098v-1.7178345c0-.3556671.2007504-.6810875.5188332-.8396683.3190002-.1576691.6985016-.1255836.9835854.0889168l8.2692547 6.2049217c.2355843.1769142.3749161.4555817.3749161.7507477 0 .2951698-.1393318.5738335-.3749161.7507515l-8.2692548 6.2049218c-.1659183.1246643-.3639183.1879158-.5637512.1879158zm-15.2835936-17.3570938c2.1046677 6.574337 8.0840893 11.5142555 15.3972607 12.4080086.4711666.0568314.8250008.4574165.8250008.9313316v1.2008362l5.7667542-4.3266716-5.7667542-4.3266678v.6847496c0 .4693336-.3465004.8662491-.8112507.9295006-5.9876715.8277512-12.0752588-2.2476692-15.4110108-7.5010872z"/></g></g></g></svg>