<svg xmlns="http://www.w3.org/2000/svg" data-name="Layer 1" viewBox="0 0 512 512" id="easy-return"><path fill="#ffc166" d="M37.50018,160.5h437a0,0,0,0,1,0,0v314a30,30,0,0,1-30,30h-377a30,30,0,0,1-30-30v-314A0,0,0,0,1,37.50018,160.5Z"></path><path fill="#ffae36" d="M37.50018,160.5v20H367.96655a86.53363,86.53363,0,0,1,86.53363,86.53363V494.5a29.99069,29.99069,0,0,1-1.28906,8.71094A30.00968,30.00968,0,0,0,474.50018,474.5v-314Z"></path><circle cx="256" cy="332.5" r="137.5" fill="#fff"></circle><rect width="497" height="89" x="7.5" y="71.5" fill="#ffc166" rx="9.986"></rect><path fill="#ffae36" d="M494.51385,71.5h-20a9.98622,9.98622,0,0,1,9.98633,9.98633v69.02734A9.98622,9.98622,0,0,1,474.51385,160.5h20a9.98622,9.98622,0,0,0,9.98633-9.98633V81.48633A9.98622,9.98622,0,0,0,494.51385,71.5Z"></path><path fill="#63ea86" d="M307.07525,296.15626h-88a5,5,0,0,1-5-5V273.85318a5,5,0,0,0-8.1467-3.88565l-49.15014,39.80308a5,5,0,0,0,0,7.7713L205.92855,357.345a5,5,0,0,0,8.1467-3.88565V336.15626a5,5,0,0,1,5-5h87.57633a15.27883,15.27883,0,0,1,15.40656,14.27469,15.00075,15.00075,0,0,1-14.98289,15.72532h-58a5,5,0,0,0-5,5v25a5,5,0,0,0,5,5h58a50,50,0,0,0,50-50h0A50,50,0,0,0,307.07525,296.15626Z"></path><rect width="149.043" height="89" x="181.479" y="71.5" fill="#ffcd85"></rect><path fill="#676e87" d="M504.50018,512h-497a7.5,7.5,0,0,1,0-15h497a7.5,7.5,0,0,1,0,15Z"></path></svg>