<svg xmlns="http://www.w3.org/2000/svg" width="24" height="24" fill="none" viewBox="0 0 24 24" id="bar-code-scan"><path fill="#A668E3" d="M7 5H6C3.79086 5 2 6.79086 2 9V10C2.27614 10.2761 2.72386 10.2761 3 10V9C3 7.34315 4.34315 6 6 6H7C7.27614 5.72386 7.27614 5.27614 7 5zM7 18H6C4.34315 18 3 16.6569 3 15V14C2.72386 13.7239 2.27614 13.7239 2 14V15C2 17.2091 3.79086 19 6 19H7C7.27614 18.7239 7.27614 18.2761 7 18zM17 19C16.7239 18.7239 16.7239 18.2761 17 18H18C19.6569 18 21 16.6569 21 15V14C21.2761 13.7239 21.7239 13.7239 22 14V15C22 17.2091 20.2091 19 18 19H17zM17 6C16.7239 5.72386 16.7239 5.27614 17 5H18C20.2091 5 22 6.79086 22 9V10C21.7239 10.2761 21.2761 10.2761 21 10V9C21 7.34315 19.6569 6 18 6H17z"></path><path fill="#E0C0FF" d="M6 8.5C6 8.22386 6.22386 8 6.5 8H8.26923C8.54537 8 8.76923 8.22386 8.76923 8.5V15.5C8.76923 15.7761 8.54537 16 8.26923 16H6.5C6.22386 16 6 15.7761 6 15.5V8.5zM12.4615 8.5C12.4615 8.22386 12.6854 8 12.9615 8H14.7308C15.0069 8 15.2308 8.22386 15.2308 8.5V15.5C15.2308 15.7761 15.0069 16 14.7308 16H12.9615C12.6854 16 12.4615 15.7761 12.4615 15.5V8.5zM9.69231 8.5C9.69231 8.22386 9.91617 8 10.1923 8H11.0385C11.3146 8 11.5385 8.22386 11.5385 8.5V15.5C11.5385 15.7761 11.3146 16 11.0385 16H10.1923C9.91617 16 9.69231 15.7761 9.69231 15.5V8.5zM16.1538 8.5C16.1538 8.22386 16.3777 8 16.6538 8H17.5C17.7761 8 18 8.22386 18 8.5V15.5C18 15.7761 17.7761 16 17.5 16H16.6538C16.3777 16 16.1538 15.7761 16.1538 15.5V8.5z"></path></svg>