<svg xmlns="http://www.w3.org/2000/svg" xmlns:xlink="http://www.w3.org/1999/xlink" width="60.485" height="56.367" viewBox="0 0 60.485 56.367"><defs><style>.a{fill:url(#a);}</style><linearGradient id="a" x1="0.5" x2="0.5" y2="1" gradientUnits="objectBoundingBox"><stop offset="0" stop-color="#6055e0"/><stop offset="1" stop-color="#0ed7ce"/></linearGradient></defs><g transform="translate(-9 -25.634)"><path class="a" d="M65.8,49.922h-3.05a3,3,0,0,0-2.867-2.2H56.629V39.756a.84.84,0,0,0-.41-.742L33.253,25.749a.848.848,0,0,0-.852,0L9.426,39.014A.855.855,0,0,0,9,39.756V66.287a.857.857,0,0,0,.429.742L32.4,80.295a.857.857,0,0,0,.429.115.9.9,0,0,0,.441-.115l12.09-6.974v5.041A3.629,3.629,0,0,0,49.025,82H65.8a3.65,3.65,0,0,0,3.684-3.639V53.617a3.7,3.7,0,0,0-3.683-3.7Zm-5.887-.49a1.244,1.244,0,0,1,1.244,1.244v.083A1.244,1.244,0,0,1,59.915,52H54.935a1.244,1.244,0,0,1-1.244-1.244v-.083a1.244,1.244,0,0,1,1.244-1.244ZM32.833,27.481l9.547,5.512L21.12,45.267l-9.547-5.512Zm-.815,50.588-21.3-12.276V41.239l21.3,12.276Zm.815-26.038-10-5.773L44.095,33.982l10,5.773Zm12.531,1.587V71.342L33.733,78.068V53.515L54.915,41.239v6.479h.027a3,3,0,0,0-2.867,2.2h-3.05A3.678,3.678,0,0,0,45.365,53.617ZM67.771,78.362A1.934,1.934,0,0,1,65.8,80.287H49.025a1.914,1.914,0,0,1-1.946-1.925V53.617a1.962,1.962,0,0,1,1.946-1.981h3.083a2.932,2.932,0,0,0,2.834,2.081h4.943a2.931,2.931,0,0,0,2.834-2.081H65.8a1.982,1.982,0,0,1,1.969,1.981Z" transform="translate(0 0)"/><path class="a" d="M337.851,283.755h.9a.857.857,0,0,0,0-1.714h-.034v-2.326h2.364a.825.825,0,0,0,.815.579.859.859,0,0,0,.862-.855v-.577a.868.868,0,0,0-.866-.861h-4.037a.855.855,0,0,0-.851.861V282.9a.851.851,0,0,0,.851.856Z" transform="translate(-287.84 -221.466)"/><path class="a" d="M337.857,347.755H341.9a.857.857,0,0,0,.857-.857v-4.041A.857.857,0,0,0,341.9,342h-4.041a.857.857,0,0,0-.857.857V346.9A.857.857,0,0,0,337.857,347.755Zm.857-4.041h2.326v2.326h-2.326Z" transform="translate(-287.84 -277.63)"/><path class="a" d="M338.748,410.041h-.034v-2.326h2.318a.862.862,0,1,0,1.723,0v-.826a.894.894,0,0,0-.866-.89H337.85a.88.88,0,0,0-.851.89v4.037a.827.827,0,0,0,.851.827h.9a.857.857,0,1,0,0-1.714Z" transform="translate(-287.839 -333.794)"/><path class="a" d="M359.091,284.79l-2.51,2.51-.764-.764a.857.857,0,0,0-1.212,1.212l1.37,1.37a.857.857,0,0,0,1.212,0L360.3,286a.857.857,0,1,0-1.212-1.212Z" transform="translate(-303.069 -227.204)"/><path class="a" d="M359.091,414.039l-2.51,2.51-.764-.764A.857.857,0,0,0,354.606,417l1.37,1.37a.857.857,0,0,0,1.212,0l3.116-3.116a.857.857,0,0,0-1.212-1.212Z" transform="translate(-303.069 -340.628)"/><path class="a" d="M420.131,295h-5.383a.857.857,0,0,0,0,1.714h5.383a.857.857,0,1,0,0-1.714Z" transform="translate(-355.316 -236.385)"/><path class="a" d="M420.131,359h-5.383a.857.857,0,0,0,0,1.714h5.383a.857.857,0,0,0,0-1.714Z" transform="translate(-355.316 -292.549)"/><path class="a" d="M420.131,423h-5.383a.857.857,0,1,0,0,1.714h5.383a.857.857,0,1,0,0-1.714Z" transform="translate(-355.316 -348.713)"/></g></svg>