<svg xmlns="http://www.w3.org/2000/svg" enable-background="new 0 0 512 512" viewBox="0 0 512 512" id="invoice"><path fill="#78909c" d="M455.6765,105c0-45.4-36.8-82.2-82.21-82.2c-29.26,0-54.95,15.29-69.51,38.32l-0.01-0.02
		c-20.46,5.48-40.93,10.96-61.39,16.45l-1.16-0.31l-18.3-4.9l-62.15-16.66c-4.2-1.12-8.49,1.35-9.61,5.55l-7.63,28.46l-4.11,15.33
		l-0.04,0.13c-25.8,6.91-51.61,13.82-77.41,20.7401c-4.2,1.1299-6.68,5.41-5.55,9.62l37.42,139.65l-37.45,139.77l33.96-16.43
		l21.2,31.21l20.98-10.14l5.89,21.99h0.0099l2.22,8.3l59.95,34.61l8.3-2.22l95.3-25.54l27.93,32.4901l11.53-43.06l77.91-20.8701
		c4.2-1.1299,6.68-5.42,5.55-9.62l-37.64-140.48l26.81-100.09C439.9865,160.62,455.6765,134.65,455.6765,105z"></path><polygon fill="#546e7a" points="343.837 446.14 332.307 489.2 304.377 456.71"></polygon><polygon fill="#546e7a" points="209.077 482.25 200.776 484.47 140.827 449.86 138.607 441.56 194.186 426.67"></polygon><path fill="#90a4ae" d="M138.2167 142.5381c3.7339-1.001 5.9497-4.8394 4.9487-8.5737-1.001-3.7339-4.8398-5.9487-8.5737-4.9487l-39.6992 10.6411c-3.7339 1.001-5.9497 4.8394-4.9487 8.5737.8384 3.127 3.6665 5.1895 6.7568 5.1895.5996 0 1.21-.0781 1.8169-.2407L138.2167 142.5381zM168.1615 134.272c.5996 0 1.21-.0781 1.8169-.2407l7.9424-2.1289c3.7339-1.001 5.9497-4.8394 4.9487-8.5737-1.001-3.7334-4.8379-5.9502-8.5737-4.9487l-7.9424 2.1289c-3.7339 1.001-5.9497 4.8394-4.9487 8.5737C162.2431 132.2095 165.0712 134.272 168.1615 134.272zM207.8607 123.6309c.5986 0 1.208-.0776 1.814-.2397l7.9419-2.125c3.7344-.9995 5.9517-4.8369 4.9526-8.5718-.999-3.7339-4.8359-5.9502-8.5718-4.9526l-7.9419 2.125c-3.7344.9995-5.9517 4.8369-4.9526 8.5718C201.9403 121.5669 204.769 123.6309 207.8607 123.6309zM268.4467 141.6875c3.7344-1.001 5.9507-4.8389 4.9502-8.5732-1.001-3.7344-4.8413-5.9507-8.5732-4.9502l-161.4219 43.25c-3.7344 1.001-5.9507 4.8389-4.9502 8.5732.8384 3.1274 3.6665 5.1904 6.7573 5.1904.5996 0 1.2095-.0776 1.8159-.2402L268.4467 141.6875zM371.6361 319.6494l-42.3618-167.3691c-.0043-.0172-.011-.0331-.0155-.0503-.0038-.0146-.0055-.0293-.0094-.0439-.0245-.0916-.0585-.1779-.0864-.2676-.0389-.1249-.075-.2513-.1202-.3726-.0378-.1014-.0831-.1978-.1252-.2965-.0497-.1165-.0967-.2344-.1522-.3471-.0494-.1004-.106-.1955-.1598-.2927-.0576-.1041-.1125-.21-.175-.3103-.062-.0996-.1308-.1932-.1973-.2891-.0631-.0909-.1235-.1838-.1906-.2712-.075-.0978-.1567-.1891-.2365-.2824-.0667-.078-.1307-.1584-.2006-.2332-.0884-.0946-.183-.1823-.2763-.2715-.0686-.0657-.1345-.134-.2056-.1967-.1014-.0896-.2086-.1716-.3149-.2551-.0696-.0545-.1367-.1121-.2081-.1639-.1143-.0829-.2336-.1577-.3526-.2335-.0691-.0441-.136-.0912-.2067-.1329-.1259-.0742-.2562-.1398-.3865-.206-.069-.0351-.136-.0735-.2061-.1063-.1353-.0632-.2744-.1174-.4135-.172-.0695-.0272-.1372-.058-.2076-.083-.1429-.0508-.2891-.0922-.4353-.1337-.0704-.02-.1394-.0436-.2105-.0615-.1468-.0367-.2962-.0637-.4457-.0909-.074-.0135-.1469-.0308-.2214-.0419-.1476-.022-.2971-.0338-.4468-.0463-.0789-.0066-.1568-.0172-.2361-.0211-.1447-.0071-.2907-.0038-.4367-.0018-.0865.0012-.1724-.0018-.2593.0027-.1357.007-.2719.0242-.4082.0392-.0991.0109-.1979.0178-.2972.033-.1198.0184-.2396.0467-.3596.0717-.1002.0208-.2004.0347-.3006.0599-.0172.0043-.0331.011-.0502.0154-.0146.0038-.0294.0056-.0441.0095l-161.1063 43.1699c-.0054.0015-.0109.002-.0163.0035s-.0105.0037-.0159.0051l-47.6175 12.7596c-.0022.0006-.0045.0008-.0067.0014-1.1671.3128-2.1859.9028-3.0045 1.6801-.015.0142-.0278.0302-.0426.0446-1.77 1.7105-2.5852 4.3029-1.9031 6.8486l10.6296 39.6705c.0029.011.0042.022.0071.0331.0018.0067.0051.0124.0069.019l34.0356 127.0234c.481 1.7935 1.6538 3.3223 3.2617 4.2505 1.0732.6201 2.2817.938 3.5.938.6064 0 1.2158-.0786 1.8115-.2388l158.7995-42.5497c.0017-.0005.0035-.0005.0052-.001.0023-.0006.0043-.0015.0066-.0021l47.6345-12.7635C370.3593 327.1377 372.5751 323.3608 371.6361 319.6494zM317.4436 162.5966l6.6504 26.2754-35.9777 9.6409-7.0143-26.1781L317.4436 162.5966zM267.5792 175.9583l7.0144 26.1782-97.6403 26.1647-7.0146-26.179L267.5792 175.9583zM122.2984 214.8879l34.1174-9.1422 7.0146 26.1791-34.1174 9.1425L122.2984 214.8879zM163.3539 368.1108L132.9364 254.59l34.1174-9.1425 30.4178 113.5215L163.3539 368.1108zM210.9945 355.3456l-30.4179-113.5218 97.6403-26.1647 30.4185 113.5237L210.9945 355.3456zM322.1583 325.5595l-30.4185-113.524 35.7896-9.5905L356.37 316.3926 322.1583 325.5595z"></path><path fill="#90a4ae" d="M245.8485 258.3745c3.7344-1.0005 5.9507-4.8389 4.9502-8.5732s-4.8398-5.9502-8.5732-4.9502l-39.7031 10.6372c-3.7344 1.0005-5.9507 4.8389-4.9502 8.5732.8379 3.1274 3.6665 5.1904 6.7573 5.1904.5996 0 1.209-.0776 1.8159-.2402L245.8485 258.3745zM274.5536 270.2305l-63.519 17.02c-3.7344 1.001-5.9507 4.8394-4.9502 8.5732.8384 3.1279 3.6665 5.1904 6.7573 5.1904.5996 0 1.2095-.0781 1.8159-.2402l63.519-17.02c3.7344-1.001 5.9507-4.8394 4.9502-8.5732C282.1254 271.4458 278.2865 269.2329 274.5536 270.2305zM253.0761 385.356c-1.0005-3.7344-4.8389-5.9507-8.5732-4.9492L165.1 401.6836c-3.7339 1.0005-5.9502 4.8389-4.9492 8.5732.8379 3.1274 3.666 5.1899 6.7568 5.1899.5996 0 1.2095-.0781 1.8164-.2407l79.4028-21.2769C251.8607 392.9287 254.0771 389.0903 253.0761 385.356zM250.8847 404.2266l-31.7573 8.5122c-3.7339 1.001-5.9497 4.8394-4.9487 8.5737.8379 3.127 3.6665 5.1895 6.7568 5.1895.5996 0 1.21-.0781 1.8169-.2407l31.7573-8.5122c3.7339-1.001 5.9497-4.8394 4.9487-8.5737C258.4579 405.4419 254.619 403.2256 250.8847 404.2266z"></path><path fill="#546e7a" d="M416.4665,175.08l-26.81,100.09l-23.66-88.3c2.46,0.23,4.95,0.34,7.47,0.34
		C389.2365,187.21,403.9565,182.78,416.4665,175.08z"></path><path fill="#bdbdbd" d="M373.4731,385.4574c0,14.0796-11.411,25.4944-25.4905,25.4944c-14.0804,0-25.4944-11.4148-25.4944-25.4944
		c0-14.0796,11.4141-25.4913,25.4944-25.4913C362.0621,359.9661,373.4731,371.3779,373.4731,385.4574z"></path><polygon fill="#546e7a" points="132.707 419.57 111.727 429.71 90.526 398.5 56.566 414.93 94.016 275.16"></polygon><path fill="#546e7a" d="M242.5565,77.55c-34.33,9.19-68.67,18.39-103,27.6l0.04-0.13l4.11-15.33l7.63-28.46
		c1.12-4.2,5.41-6.67,9.61-5.55l62.15,16.66l18.3,4.9L242.5565,77.55z"></path><path fill="#ffb300" d="M455.6765,105c0,29.65-15.69,55.62-39.21,70.08c-12.51,7.7-27.23,12.13-43,12.13c-2.52,0-5.01-0.11-7.47-0.34
		c-41.89-3.77-74.73-38.98-74.73-81.87c0-16.14,4.65-31.18,12.69-43.88c14.56-23.03,40.25-38.32,69.51-38.32
		C418.8765,22.8,455.6765,59.6,455.6765,105z"></path><path fill="#ff8f00" d="M373.4711,98.0469c-8.4639,0-14.375-5.1113-14.375-12.4297c0-6.8555,5.5776-12.4331,12.4331-12.4331H394.85
		c3.8662,0,7-3.1338,7-7s-3.1338-7-7-7h-14.3789V47.6172c0-3.8662-3.1338-7-7-7s-7,3.1338-7,7V59.675
		c-12.1633,2.3673-21.375,13.0969-21.375,25.9421c0,15.0674,12.1987,26.4297,28.375,26.4297
		c8.4663,0,14.3789,5.1128,14.3789,12.4331c0,6.856-5.5781,12.4341-12.4341,12.4341h-0.9027
		c-0.3409-0.051-0.687-0.0859-1.0421-0.0859s-0.7012,0.0349-1.0421,0.0859h-20.3329c-3.8662,0-7,3.1338-7,7s3.1338,7,7,7h14.375
		v11.481c0,3.8662,3.1338,7,7,7s7-3.1338,7-7v-11.9714c12.1652-2.3661,21.3789-13.0969,21.3789-25.9436
		C401.85,109.4106,389.6498,98.0469,373.4711,98.0469z"></path></svg>