<svg xmlns="http://www.w3.org/2000/svg" viewBox="0 0 64 64" id="transfer-folder"><path fill="#fdbf00" d="m18.57 15.51 7.86 7a2 2 0 0 0 1.33.51H56v34.9A2.93 2.93 0 0 1 53.26 61H5.74A2.93 2.93 0 0 1 3 57.92V18a2.85 2.85 0 0 1 2.68-3h11.56a2 2 0 0 1 1.33.51Z"></path><path fill="#d7e6ef" d="M49 57H7V3h42z"></path><path fill="#fdbf00" d="M45 23h16v-6a2 2 0 0 0-2-2h-6Z"></path><path fill="#f7fcff" d="M14 9h42v14H14z"></path><path fill="#ffda2d" d="m25.69 15.51 7.42 7a1.8 1.8 0 0 0 1.25.51H61v34.9A2.87 2.87 0 0 1 58.41 61H13.59A2.87 2.87 0 0 1 11 57.92V18a2.79 2.79 0 0 1 2.53-3h10.9a1.82 1.82 0 0 1 1.26.51Z"></path><circle cx="36" cy="42" r="13" fill="#f7fcff"></circle><path fill="#d7e6ef" d="M52 13H32a1 1 0 0 0 0 2h20a1 1 0 0 0 0-2zm0 4H37a1 1 0 0 0 0 2h15a1 1 0 0 0 0-2z"></path><path fill="#44394a" d="M29 39.5h11.7l-1.23 1.32a1 1 0 0 0 1.46 1.36l2.8-3a1 1 0 0 0 0-1.36l-2.8-3a1 1 0 0 0-1.46 1.36l1.23 1.32H29a1 1 0 0 0 0 2zm14 5H31.3l1.23-1.32a1 1 0 1 0-1.46-1.36l-2.8 3a1 1 0 0 0 0 1.36l2.8 3a1 1 0 1 0 1.46-1.36L31.3 46.5H43a1 1 0 0 0 0-2z"></path></svg>